<svg xmlns="http://www.w3.org/2000/svg" width="586.598" height="550.577" viewBox="0 0 586.598 550.577"><defs><style>.a{opacity:0.1;}.b{fill:#0050ff;}</style></defs><g class="a" transform="translate(-3273.933 -1536.973)"><path class="b" d="M3750.074,1839.425c-1.966,10.3-3.835,20.1-5.722,29.985.217.066.7.366.86.243,13.514-10.33,27.991,3.626,28.708,15.747.31,5.243-1.268,10.6-2.126,16.909l9.3,3.328c.756-.316,1.208-.461,1.618-.683,8.23-4.461,14.561-4.157,19.661.955,5.247,5.26,6.258,15.984,2.148,22.7a13.484,13.484,0,0,1-13.284,6.795c-6.405-.536-12.2-3-15.4-8.993a8.547,8.547,0,0,0-5.875-4.574c-13.982-3.828-27.94-7.746-42.444-10.669,1.094.916,2.125,1.921,3.291,2.734,8.994,6.281,17.852,12.777,27.067,18.717,12.615,8.132,25.473,15.892,38.332,23.636a9.065,9.065,0,0,0,5.328.751c16.7-1.877,22.739,14.963,18.335,25.254-3.947,9.222-13.144,12.581-21.773,7.446-6.277-3.735-10.138-9.241-10.571-16.841-26.306-12.788-52.728-24.781-81.489-33.487l-17.014,15.255c11.5,16.436,22.843,32.613,34.13,48.827a6.791,6.791,0,0,0,5.213,3.074c6.579.889,10.8,4.837,12.269,11.322,1.3,5.745-2.62,14.367-7.623,17.488-8.2,5.117-20.92-1.72-20.8-11.8.053-4.473-1.611-7.211-4.265-9.9-9.176-9.3-18.442-18.516-27.675-27.763l-1.606,1.2c3.683,6.857,7.283,13.76,11.136,20.521.6,1.046,2.349,1.436,3.569,2.125a14.565,14.565,0,0,1,7.176,10.21c.978,4.621-1.62,10.509-5.587,13.115-3.831,2.517-7.716,2.3-11.416-.15-4.484-2.967-6.976-7.158-6.58-12.656.114-1.588.92-3.127,1.509-5.01l-31.2-33.863-22.763,9.47c.479,17.568,3.293,34.457,6.7,51.268.529,2.612,1.409,4.772,3.828,6.492,9.671,6.87,10.914,23.825.186,34.184-9.02,8.71-23.271,4.987-27.02-7.072-3.208-10.316-1.431-19.78,6.35-28.171-2.856-17.52-9.953-33.907-16.354-51.31l-14.4,1.993c0,2.14-.054,3.978.009,5.812.279,8.105.809,16.208.822,24.313.01,6.473.718,12.009,5.318,17.569,6.716,8.117,3.582,21.119-5.112,27.126-9.466,6.54-21.906,2.238-25.5-8.817-2.574-7.93-.721-14.985,6.064-22.956-2.242-13.765-4.491-27.578-6.817-41.856l-10.812-.782-15.509,40.75c1.17,1.975,2.379,3.72,3.292,5.608,5.207,10.766-.141,24.551-11.041,28.614-10.027,3.736-19.217-2.193-19.75-12.83a21.012,21.012,0,0,1,8.082-18.241,9.2,9.2,0,0,0,3.833-7.048q1.887-20.648,4.167-41.259c.3-2.7-.962-3.354-3.674-3.573-2.745,7.251-7.371,13.147-15.3,15.293-7.657,2.073-14.749,1.171-20.348-6.628-3.31,5.089-6.39,9.471-9.016,14.109-.652,1.151.052,3.152.323,4.729a16.932,16.932,0,0,1-8.566,18.083c-6.64,3.559-15.881,2.968-20.681-2.125a18.355,18.355,0,0,1-4.635-9.27,20.825,20.825,0,0,1,14.406-22.761c3.11-.965,4.108-2.762,5.011-5.267,1.617-4.484,3.253-8.962,4.94-13.419s3.443-8.881,5.345-13.773l-9.9-7.828c-8.041,7.031-16.194,13.865-24.012,21.063q-18.419,16.958-36.4,34.388c-1.505,1.454-2.224,3.983-2.739,6.149-1.632,6.867-3.833,13.24-10.117,17.456a23.814,23.814,0,0,1-14.8,4.317c-13.1-.607-20.491-12.4-14.989-24.376,4.351-9.471,12.133-14.438,22.405-15.464,2.391-.239,4.506-.161,6.3-2.4,17.159-21.355,34.516-42.553,50.164-65.524l-5.246-6.536c-6.658,3.821-13.119,7.333-19.323,11.252-1.28.808-1.858,3.065-2.317,4.774a16.135,16.135,0,0,1-11.975,12.08,15.839,15.839,0,0,1-16.895-5c-4.344-4.885-5.408-10.539-2.74-16.623,2.856-6.516,8.1-10.859,15.02-10.056,6.743.782,10.616-2.229,14.7-6.353,3.336-3.366,6.955-6.45,10.553-9.754-2.02-4.16-3.877-7.982-5.937-12.224-1.916.69-3.686,1.179-5.33,1.941-16,7.412-31.942,14.945-47.99,22.247-2.832,1.288-3.487,3.276-4.217,5.961-3.116,11.455-14.778,17.375-25.165,13.039-9.6-4.008-12.509-14.878-5.978-23.023,5.179-6.459,12.167-9.294,20.284-8a11.86,11.86,0,0,0,9.322-1.82c12.869-8.617,25.875-17.029,38.794-25.57,3.767-2.49,7.414-5.163,11.7-8.157l-2.913-9.639-86.865,11.738a20.684,20.684,0,0,1-12.851,10.5,19.773,19.773,0,0,1-24.812-14.472c-2.2-10.159,3.513-18.1,13.88-19.131a25.524,25.524,0,0,1,20.249,6.712l83.58-27.6c-.746-6.621-1.478-13.126-2.236-19.861-8.19-1.085-15.957-2.057-23.707-3.152-15.812-2.233-31.634-4.414-47.407-6.9-3.173-.5-5.171.379-7.753,2.047a34.832,34.832,0,0,1-12.221,5.3c-10.134,1.83-18.52-4.373-19.9-13.852a18.01,18.01,0,0,1,15.075-20.175c7.656-1.21,14.428.428,18.445,7.693,1.563,2.827,3.615,3.393,6.379,3.485,15.256.507,30.508,1.167,45.766,1.57,8.337.221,16.685.04,25.542.04l1.373-6.987-14.287-6.146a62.409,62.409,0,0,1-5.529,3.159c-7.925,3.543-15.845-.742-17.109-9.32a18.238,18.238,0,0,1,5.443-16.333c7.776-7.682,16.96-5.993,21.69,3.88a9.151,9.151,0,0,0,1,1.314l13.028,1.1,2.712-6.618c-7.232-6.869-15.652-11.691-24.46-15.839-1.467-.691-3.638-.307-5.375.073-8.014,1.755-15.522.987-20.779-5.843-5.486-7.127-6.244-15.4-2.807-23.709a16.608,16.608,0,0,1,19.558-9.467c9.789,2.549,16.461,8.4,18.351,19.378l28.786,8.563,4.363-6.05c-18.521-20.012-35.333-41.371-56.353-59.292-1.373.216-2.98.56-4.6.711-7.576.7-13.5-2.375-16.657-8.591-3.285-6.468-2.354-15.713,2.1-20.918,4.492-5.244,11.987-7.031,18.944-4.6,6.091,2.131,8.847,7.053,10.342,12.755.637,2.431,1.326,4.262,3.6,5.679,19.829,12.358,39.583,24.836,59.37,37.263.75.471,1.6.777,3.889,1.863-1.5-2.586-2.153-3.946-3.011-5.163-5.911-8.375-11.911-16.687-17.779-25.093a11.361,11.361,0,0,0-8.076-4.961c-9.3-1.637-15.128-7.714-18.084-16.455-2.158-6.38-1.05-12.338,3.981-17.076,4.609-4.341,11.795-4.9,18.066-1.75,8.484,4.259,11.938,10.744,9.961,19.771-.541,2.47-.174,4.092,1.419,5.768,3.94,4.149,7.707,8.475,11.8,12.466,6.993,6.815,14.183,13.429,21.673,20.489l9.231-6.12-13.886-29.858a15.777,15.777,0,0,0-2.2-.771c-8.618-1.545-12.683-6.927-11.248-14.939s7.695-12.533,15.471-11.145a13.911,13.911,0,0,1,11.487,16.118c-.238,1.507-.426,3.472.313,4.612a207.427,207.427,0,0,0,17.388,23.72l-17.633-63.924a61.311,61.311,0,0,1-7.143-1.513c-3.807-1.288-7.8-2.406-11.2-4.445-7.939-4.755-9.909-13.211-4.793-20.951,5.893-8.916,14.538-13.82,25.211-14.084,12.407-.307,20.584,11.57,16.384,23.26-.96,2.673-2.392,5.177-3.459,7.446l23.62,66.407,31.724-8.155c3.939-21.841,3.8-43.745,3.156-65.679a8.158,8.158,0,0,0-2.625-6.291,27.238,27.238,0,0,1-5.168-6.774c-3.571-6.592-2.581-13.6,2.262-18.47a18.032,18.032,0,0,1,20.469-3.682c6.7,3.2,10.9,9.914,9.737,16.708-.5,2.9-2.388,5.571-3.682,8.328-.773,1.647-2.341,3.274-2.315,4.889.283,17.149-.4,34.375,3.218,51.311.524,2.451,1.351,4.837,2.038,7.253l1.689.055c2.033-8.155,4.185-16.284,5.976-24.491.272-1.245-.871-3.049-1.793-4.266-6.491-8.569-6.967-16.408-1.266-23.428,5.722-7.046,18.118-9.7,26.122-5.584,9.626,4.944,11.8,19.064,4.085,27a56.008,56.008,0,0,1-5.248,4.232c.53,11.728-.3,23.758,3.049,35.989,1.332-2.67,2.751-5.3,3.982-8.017,8.564-18.9,16.708-37.947,21.992-58.095a11.73,11.73,0,0,0-.705-8.839c-3.116-6.429-1.554-12.9,4.526-16.985a31.621,31.621,0,0,1,12.444-4.8c7.78-1.2,14.538,2.9,16.923,9.14,2.493,6.523.444,15.364-6.1,18.937-5.585,3.05-7.1,7.724-8.932,12.776-6.792,18.763-10.146,38.194-11.319,58.049-.083,1.4-.01,2.806-.01,4.428l12.714,5.29,41.279-50.97c-5.121-8.914-10.384-17.557-1.863-26.512,6.216-6.532,18.527-7.71,26.648-3.141a19.5,19.5,0,0,1,9.142,20.839c-1.96,9.664-8.238,14.509-20.357,15.552l-5.425,10.565c2.013,0,3.515-.027,5.015,0,8.706.184,16.126,6.347,17.2,14.272,1.017,7.516-2.829,13.441-10.34,14.474a8.412,8.412,0,0,0-6.667,4.5c-4.937,8.139-9.815,16.313-15.05,25.029l11.759,10.168a43.85,43.85,0,0,0,5.777-2.713c14.723-9.708,29.379-19.518,44.078-29.261a9.133,9.133,0,0,0,4.493-7.464c.758-7.89,7.362-13.384,15.663-13.958,8.658-.6,17.375,4.569,19.466,11.644,1.419,4.8-.176,8.991-3.226,12.613a17.578,17.578,0,0,1-13.721,6.675,9.258,9.258,0,0,0-7.486,3.3,12.664,12.664,0,0,1-1.619,1.406c-15.115,12.078-30.267,24.118-41.036,41.635l6.948,9.71c13.164-3.753,24.753-10.252,36.059-17.288,1.153-.717,1.644-2.642,2.232-4.092,1.42-3.507,2.217-7.374,4.17-10.537a13.013,13.013,0,0,1,16.944-4.987c8.892,4.087,14.2,11.219,15.4,20.908a15.809,15.809,0,0,1-6.924,15.562c-5.576,3.918-11.509,4.2-17.513.846-1.451-.81-2.838-1.734-4.568-2.8l-32.6,21.37,9.307,23.69c8.881-.9,17.614-1.833,26.356-2.658,3.012-.284,5-1.174,6.637-4.257,3.9-7.338,10.381-10.1,17.9-8.618,8.418,1.655,14.912,7.71,16.256,15.155,1.463,8.109-2.172,16.8-8.638,20.475-5.89,3.35-11.624,2.493-16.68-1.523-2.47-1.962-4.644-2.967-7.735-2.2-9.689,2.4-19.406,4.692-29.6,7.144.39,4.333.743,8.241,1.131,12.557h17.445c.449-.59.878-1.136,1.288-1.7,5.347-7.281,11.986-8.239,18.944-2.6,5.4,4.38,8.4,10.218,9.627,17.143,10.162,0,20.163.17,30.149-.135,2.142-.065,4.249-1.818,6.344-2.85,11.175-5.5,23.317.125,26.263,12.19,2.663,10.9-4.591,19.753-15.81,19.119-5.131-.29-10.023-1.793-13.467-5.759-2.038-2.346-4.124-2.664-6.9-2.49C3799.034,1830.141,3774.44,1832.836,3750.074,1839.425ZM3486,1663.132c-2.65,1.221-4.375,1.928-6.02,2.787a123.9,123.9,0,0,0-36.565,28.2c-18.393,21.017-33.986,43.605-42.263,70.618-.641,2.091-1.009,4.264-1.7,7.238,9.743-3.851,16.6-.659,22.158,5.758a9.883,9.883,0,0,0,8.072,3.636,48.339,48.339,0,0,0,5,.163c10.181-1,20.365-2,30.521-3.224,3.994-.482,7.949-.722,10.194,3.12,3.275,5.6,2.687,11.419-.427,17.028-2.8,5.047-7.125,6.667-12.664,5.821-8.478-1.294-16.974-2.468-25.452-3.762-4.4-.671-7.825-.28-11.42,3.484-7.272,7.615-17.732,7.595-25.884,1.079-1.2-.957-2.379-1.935-3.938-3.2a14.539,14.539,0,0,0-.655,2.663c0,2.383,0,4.772.171,7.148a273.055,273.055,0,0,0,12.166,63.74,175.852,175.852,0,0,0,35.932,63.662c11.7,13.277,24.2,25.706,40.53,33.484,7.624,3.633,13.259,1.673,16.253-6.117a320.553,320.553,0,0,0,15.045-50.611c1.177-5.739,5.611-9.335,11.419-8.231a31.6,31.6,0,0,1,11.615,4.95c7.719,5.3,8.216,8.736,3.575,16.7a36.04,36.04,0,0,1-2.275,3.636c-9.557,12.654-16.357,26.833-22.874,41.172-2.986,6.568-.839,11.535,5.934,13.566,21.366,6.406,43,6.878,65.12,4.53,46.125-4.9,83.287-27.045,115.718-58.52,12.26-11.9,19.889-26.97,26.68-42.916l-7.148-1.83a36.784,36.784,0,0,1-1.934,3.587,79.842,79.842,0,0,1-5.968,7.942c-.666.731-2.633.8-3.731.407-.605-.216-1.05-2.1-.845-3.086a20.235,20.235,0,0,1,1.939-4.581c1-2.037,2.08-4.034,3.635-7.031-12.608-1.725-24.14-3.348-35.689-4.844a59.617,59.617,0,0,0-7.092-.159,14.984,14.984,0,0,1-14.044-9.28,17.976,17.976,0,0,1,4.166-19.783c5.367-5.238,9.179-5.6,16.136-2.7,13.4,5.589,27.068,10.523,40.652,15.658a41.5,41.5,0,0,0,5.339,1.265c2.845-6.488,1.985-14.018,8.322-19.9,3.018,8.571.95,15.112-2.888,21.8l6.824,1.861c1.231-4.552,2.612-8.609,3.411-12.777,5.734-29.873,5.1-59.8-.411-89.571-1.633-8.821-5.256-17.277-8.029-25.88-1.129-3.5-2.911-2.936-5.087-.7,1.7,2.544,3.469,4.8,4.8,7.286,3.547,6.6,3.158,13.532-1.124,18.018-4.958,5.194-10.88,6.375-17.663,3.8a7.959,7.959,0,0,0-5.227-.378,226.925,226.925,0,0,0-47.1,25.323c-7.041,5-14.85,3.99-19.822-3.01-6.319-8.9-3.319-18.026,7.068-21.369,2.474-.8,5.126-1.116,7.507-2.109,11.212-4.675,22.367-9.49,33.521-14.3,1.619-.7,3.122-1.668,4.958-2.663a37.127,37.127,0,0,1-2.462-3.365c-6.455-11.649-5.444-18.6,7.348-22.493,5.844-1.776,11.432-4.391,18.174-7.033-16.367-21.473-34.256-39.807-57.007-53.737-1.032,1.712-1.651,2.964-2.475,4.059a38.387,38.387,0,0,1-4.531,5.5,11.987,11.987,0,0,1-15.748.495c-5.489-4.177-7.628-11.839-4.708-17.161.969-1.765,2.175-3.4,3.294-5.127-33.191-17.121-102.812-12.348-128.818.4,1.114,3.34,2.517,6.635,3.3,10.072a13.775,13.775,0,0,1-14.48,16.691c-5.373-.389-8.924-3.487-9.75-8.758C3486.226,1668.966,3486.237,1666.585,3486,1663.132Zm254.615,212.691c-27.892-5.834-30.221-6.707-57.318-20.228a25.3,25.3,0,0,0-8.767-2.684c-5.761-.518-10.813,4.932-11.248,11.474-.463,6.958,2.815,11.215,9.353,11.824,5.693.529,11.417.73,17.113,1.233a158.8,158.8,0,0,1,41.773,8.947c3.284,1.223,6.865,1.654,10.756,2.553,0,.524.02,1.69,0,2.856-.107,5.416,2.7,9.215,7.336,11.247,4.535,1.985,8.9.492,12.619-2.617,8.122-6.788,7.518-20.194-1.163-26.145a8.777,8.777,0,0,0-10.673-.055c-2.335,1.617-4.377,3.652-6.621,5.408a7.1,7.1,0,0,1-2.223.647C3741.247,1878.821,3740.973,1877.515,3740.619,1875.824ZM3391.556,2015.89c2.11-1.634,4.56-3.269,6.694-5.244,3.491-3.232,6.744-6.717,10.153-10.039,14.8-14.418,29.614-28.814,44.87-43.652-2.344-2.342-4.83-4.815-7.3-7.3-2.424-2.433-4.836-4.876-7.464-7.526-2.687,3.408-4.767,6-6.8,8.629q-20.522,26.539-40.97,53.134c-1.322,1.73-1.841,4.075-2.856,6.421-4.211.938-8.655,1.75-13,2.937-6.906,1.889-11.815,6.077-13.6,13.232-1.773,7.09,2.068,12.449,9.293,12.873,7.551.443,13.784-2.377,17-9.349C3389.611,2025.6,3390.289,2020.57,3391.556,2015.89Zm45.241-322.833c-2.631-1.509-4.7-2.618-6.7-3.854q-26.979-16.722-53.922-33.5c-2.215-1.382-4.06-3.811-6.418-4.413-4.544-1.16-5.524-4.366-6.718-8.1a16.378,16.378,0,0,0-4.23-7.093c-3.648-3.24-9.675-2.674-13.1.536-3.6,3.379-4.55,10.2-2.017,14.545,2.375,4.07,8.447,6.106,13.208,4.286,1.846-.7,3.561-1.754,6.241-3.1-.458,5.575,2.7,7.814,5.873,10.378a123.064,123.064,0,0,1,12.488,11.7c9.266,9.906,18.291,20.037,27.441,30.051,3.329,3.643,6.736,7.215,10.215,10.934Zm-43.708,146.451c-24.459,8.108-48.015,15.625-71.336,23.809-7.832,2.748-14.882,3.829-22.557-.192-2.734-1.432-6.46-1.5-9.685-1.321-3.667.2-6.893,1.983-8.266,5.815-1.359,3.793.077,7.043,2.424,9.911,5.307,6.485,14.879,7.42,20.73,1,4.61-5.061,10.143-6.923,16.224-7.9,14.093-2.257,28.24-4.183,42.376-6.171,11.28-1.586,22.575-3.064,34.215-4.638C3395.857,1853.132,3394.593,1846.91,3393.089,1839.507Zm72.252-281.518a22.952,22.952,0,0,0-16.931,9.962c-3.033,4.37-2.331,8.083,2.385,10.84,3.42,2,7.332,3.883,11.177,4.259,5.843.571,7.829,3.4,9.2,8.74,6.562,25.57,13.545,51.033,20.477,76.507.525,1.931,1.4,4.15,2.851,5.357,2.145,1.789,6.505.613,9.156-1.791,3.044-2.758,3.593-5.158,1.715-8.767-12.041-23.13-19.74-47.9-27.65-72.6-2.076-6.486-3.016-12.4-.546-19.2C3479.667,1564.419,3473.946,1558.059,3465.342,1557.989Zm229.5,12.847a30.189,30.189,0,0,0-3.653.463c-8.182,1.889-10.85,7.218-7.432,14.972a52.522,52.522,0,0,0,3.429,6.262c1.744,2.833,1.393,5.256-.71,7.818-11.5,14.006-22.833,28.142-34.378,42.107-4.1,4.958-8.677,9.514-12.932,14.346-2.122,2.41-3.544,5-1.681,8.413s4.457,5.7,8.316,5.925c3.626.208,6.083-1.533,7.759-5.039,3.9-8.163,7.833-16.359,12.453-24.124,6.7-11.262,14.247-22.017,20.97-33.265,3.229-5.4,7.063-9.039,13.291-10.82,7.879-2.253,10.95-8.072,9.56-15.939C3708.576,1574.865,3703.269,1570.76,3694.838,1570.836Zm16.581,362.766,79.958,34.327c.552,1.59.728,3.138,1.532,4.221,2.656,3.581,4.967,7.8,8.464,10.292,5.887,4.2,11.942.87,12.917-6.334,1.319-9.754-4.915-15.325-14.707-13.144-.925.206-1.854.39-2.782.584-26.789-11.761-49.479-29.994-73.61-46.317Zm-6.179-178.962c-3.1.607-5.532.629-7.542,1.558-7.12,3.293-13.921,7.326-21.173,10.265-7.9,3.2-16.15,5.587-24.3,8.168-6.61,2.093-9.215,6.455-7.07,12.324,2.488,6.81,9.258,8.633,15.614,4.1,13.6-9.7,27.747-18.4,43.324-24.652,1.937-.777,3.426-2.669,5.375-4.249a41.1,41.1,0,0,0,4.282,2.646,11.5,11.5,0,0,0,12.658-1.714c3.144-2.957,3.966-7.1,1.454-11.811a22.474,22.474,0,0,0-6.316-7.514c-6.052-4.373-12.312-2.06-14.667,4.993C3706.141,1750.975,3705.618,1753.268,3705.24,1754.639Zm-67.892-185.962c1.84-1.236,4.336-2.375,6.083-4.223,2.219-2.347,4.495-5.031,5.552-8a8.053,8.053,0,0,0-5.607-10.721c-5.27-1.417-10.425-.841-14.893,2.664-4.354,3.414-5.339,7.537-3.04,12.595.78,1.716,1.788,3.329,2.536,4.7a48.936,48.936,0,0,0-2.511,6.051c-.548,2.05-.47,4.259-.909,6.347-4.039,19.216-11.8,37.1-19.795,54.892-.736,1.637-1.459,3.281-2.437,5.481l18.921,3.017a22.673,22.673,0,0,0,.752-3.17c1.533-21.733,5.409-42.9,14.705-62.835C3637.479,1573.824,3637.105,1571.632,3637.348,1568.678Zm85.284,169.21c13.994-9.188,27.15-17.731,40.192-26.448,3.775-2.522,6.794-2.964,10.835.007,4.99,3.67,10.43,2.632,14.1-1.506,3.786-4.27,4.106-10.836.813-16.692-3.131-5.569-9.329-9.657-13.734-8.551-6.14,1.543-8.481,6.39-9.536,12.1a5.262,5.262,0,0,0-.1.707,9.44,9.44,0,0,1-5.041,8.127c-8.662,4.911-17.086,10.426-26.195,14.324-13.479,5.769-27.467,10.35-42.167,15.78l5.754,14.088c4.281.355,4.127-2.032,4.707-4.087a12.614,12.614,0,0,1,14.685-9.368A51.27,51.27,0,0,1,3722.632,1737.888ZM3540.9,1922.306a18.7,18.7,0,0,0-13.094-9.231c-5.749-1.184-8.221.542-8.582,6.258-1.165,18.425-7.6,35.181-15.665,51.5a15.949,15.949,0,0,1-7.224,7.465c-4.365,2.283-7.644,5.578-9.118,10.461-2.282,7.561,2.337,13.485,10.26,12.87a14.852,14.852,0,0,0,12.921-8.764c2.705-5.478,1.335-10.12-2.354-13.7,1.788-3.584,3.467-6.615,4.849-9.776,5.819-13.3,11.342-26.748,20.6-38.182C3535.871,1928.281,3538.319,1925.4,3540.9,1922.306Zm209.749-107.16v16.848c5.746-1.267,11.06-2.379,16.344-3.616,17.74-4.151,35.776-5.41,53.927-5.933,6.059-.174,11.616.1,16.689,4.007a12.647,12.647,0,0,0,6.713,2.049c6.586.366,10.148-4.547,8.15-10.822-2.168-6.806-9.908-10.744-16.079-6.876-4.8,3.007-9.5,3.385-14.586,3.494q-22.866.49-45.735.828C3767.776,1815.239,3759.479,1815.147,3750.646,1815.147Zm-361.095-18.211-77.783-4.183c-.906-1.768-1.3-2.624-1.769-3.437-4.927-8.589-15.234-10.145-22.377-3.451a10.53,10.53,0,0,0-3.065,11.112,9.972,9.972,0,0,0,8.61,7.563c4.852.775,9.8.539,13.8-2.321,5.4-3.867,11-3.867,17.043-2.676,3.5.691,7.076,1.016,10.618,1.5l54.922,7.525Zm214.794,198.255a222.934,222.934,0,0,1,14.855,48.736c.741,4.081.143,6.806-1.761,9.726a23.692,23.692,0,0,0-3.315,19.11c1.035,4.349,3.573,8.029,8.231,8.986s8.252-1.43,11.072-5.026c6.61-8.434,5.807-18.167-2.01-25.6-1.471-1.4-3.388-2.914-3.854-4.7-4.25-16.306-8.458-32.642-8.6-49.672a30.752,30.752,0,0,0-.709-4.382ZM3568.7,1636.627h18.4c0-10.54-.1-20.711.046-30.879.06-4.31,1.243-7.7,5.312-10.771,7.61-5.751,5.268-18.753-3.261-21.714-6.229-2.163-14.134.647-17.508,6.224-3.154,5.214-2.076,10.827,3.057,16.05,1.748,1.779,3.455,3.6,4.75,4.949-1.719,2.371-3.477,3.8-3.9,5.552C3573.136,1616.136,3570.99,1626.311,3568.7,1636.627ZM3397.434,1789.2a29.967,29.967,0,0,0,1.832,6.037c4.7,9.481,16.038,11.648,23.865,3.908,4.3-4.253,8.707-5.227,14.111-4.6,8.489.977,17.144,1.142,25.112,4.773,3.412,1.555,5.916.688,7.993-2.282,2.456-3.513,3.163-8.733,1.388-11.463-2.269-3.488-5.272-2.2-8.257-1.264a77.93,77.93,0,0,1-28.239,2.969c-6.8-.415-13.8-.54-18.412-7.013a9.794,9.794,0,0,0-3.5-2.408C3404.873,1773.389,3397.385,1778.045,3397.434,1789.2Zm313.6-86.537c10.63-17.182,24.753-29.472,40.4-40.193.784-.537,2.208-1.261,2.146-1.744-.7-5.35,3.36-4.382,6.351-5.168,3.652-.96,7.521-1.8,10.7-3.693,7.151-4.249,6.774-11.861-.625-15.667a16.942,16.942,0,0,0-7.5-1.876c-7.126.017-11.821,6.059-10.47,13.031.391,2.02.99,4,1.386,5.572-2.9,1.042-5.9,1.289-7.685,2.89-13.386,12.031-28.274,21.86-43.832,30.767-1.169.67-2.216,1.554-3.592,2.531Zm-153.083-65.05a12.67,12.67,0,0,0-.016-2.434c-6.426-20.342-6.764-41.243-5.937-62.286.189-4.816.732-8.881,4.349-12.816,4.595-5,3.593-11-1.2-15.188a12.441,12.441,0,0,0-16.364.041c-4.507,3.889-4.9,9.005-.986,14.713a25.592,25.592,0,0,0,3.8,4.241c1.733,1.6,3.65,3,5.064,4.138-1.083,2.823-2.58,4.73-2.326,6.366,3.19,20.531,1.292,40.855-2.036,61.149a23.889,23.889,0,0,0-.018,3.23Zm-182.779,87.73a11.7,11.7,0,0,1,.371-2.3c2.423-6.079.994-10.3-4.942-14.453-6.13-4.286-13.8-4.573-17.852-.6a9.39,9.39,0,0,0-2.1,2.86c-2.545,5.946-2.046,11.833,1.71,16.974,3.633,4.973,8.891,5.787,14.776,4.384,2.424-.578,5.5-1.141,7.536-.164,8.974,4.305,17.677,9.176,26.792,14.008l7.338-14.235c-6.739-2-13.1-3.92-19.493-5.761-3.788-1.092-7.573-3.1-11.479-.077C3377.4,1726.315,3376.149,1725.6,3375.173,1725.34Zm349.281,286.587c-15.687-16.872-28.3-34.983-39.724-54.437l-16.028,10.943c15.363,12.492,29.912,24.465,41.55,39.442,3.419,4.4,8.035,8.186,8.249,14.568a5.956,5.956,0,0,0,2.463,4.174c2.5,1.557,5.4,3.382,8.147,3.4,3.46.027,4.8-3.558,5.736-6.539,1.943-6.166-1.225-10.781-7.778-11.536A16.926,16.926,0,0,0,3724.454,2011.927Zm-197.8-18.353c-.449,4.917-.764,8.938-1.192,12.945-1.062,9.933-2.572,19.842-3.063,29.8-.178,3.633-.815,6.158-3.487,8.514a15.167,15.167,0,0,0-4.36,5.575c-1.286,3.467-2.52,7.263-2.4,10.874.2,5.915,4.986,8.642,10.662,6.7,5.512-1.883,8.335-6.111,9.292-11.641q1.595-9.2-6.015-15.309c5.444-14.376,10.822-28.578,16.423-43.368Zm-122.885-112.144c-2.536,1.591-4.148,2.57-5.728,3.6q-21.216,13.828-42.436,27.65a18.42,18.42,0,0,1-12.051,3.241,18.965,18.965,0,0,0-16.048,6.317c-3.139,3.431-4.012,8-2.309,11.168,1.92,3.57,7.291,5.654,11.834,4.592,6.593-1.543,11.28-8.227,10.965-15.6-.054-1.264-.008-2.533-.008-4.775,4.2,2.906,7.122,1.058,10.384-.556,14.694-7.271,29.516-14.285,44.292-21.392,1.637-.787,3.274-1.577,5.248-2.528C3406.525,1889.214,3405.282,1885.7,3403.772,1881.431ZM3577.2,1999.908h-11.689c1.784,11.54,3.273,22.381,5.2,33.143,1.021,5.7,1.039,10.7-2.535,15.851-3.308,4.766-3.188,10.472.041,15.571,3.736,5.9,10.225,6.5,15.174,1.619a13.786,13.786,0,0,0-1.315-21.272c-1.264-.971-2.612-1.832-2.99-2.094C3578.433,2027.811,3577.82,2013.89,3577.2,1999.908Zm-111.9,14.52c6.384-12.6,15.94-22.38,18.813-36.272l-9.911-5.087-13.379,32.952c-1.591.461-2.967.834-4.326,1.257a16.15,16.15,0,0,0-11.534,15.364c-.036,3.89,1.476,6.93,5.019,8.762,4.517,2.336,11.566,1.439,14.7-1.828,3.466-3.615,3.944-8.58,1.321-13.848C3465.6,2014.915,3465.143,2014.127,3465.305,2014.428Zm282.465-237.77c10.054-2.281,19.094-4.327,28.13-6.385,2.652-.6,5.295-1.245,8.041-1.892,1.748,1.566,3.485,3.573,5.629,4.948a9.469,9.469,0,0,0,11.881-.922c3.391-3.14,5.156-9.688,3.438-13.869-2.09-5.083-6.132-7.81-11.537-8.369-5.059-.522-8.664,1.773-11.312,6.941-.978,1.908-1.833,3.883-2.875,5.754-.309.554-1.069.857-1.9,1.482l-2.447-3.4-29.561,4.4C3746.114,1769.188,3746.972,1773.056,3747.771,1776.658Zm-295.7-98.82c-10.664-10.743-20.683-20.828-30.693-30.923-3.673-3.7-5.86-7.913-5.22-13.39.764-6.541-3.175-10.133-8.63-12.376-7.346-3.022-13.565,1.516-13.148,9.449.39,7.434,7.581,14.395,15.636,15.026,2.1.164,4.221.025,5.316.025l28.957,39.382Zm230.653-37.659c-3.74,3.935-6.939,7.462-10.317,10.809-3.422,3.389-8.776,5.068-9.584,11.076l13.385,7.747c4.925-8.023,9.69-15.638,14.288-23.354,1.727-2.9,3.063-6.027,4.674-9.244a5.526,5.526,0,0,1,1.741.2c3.647,1.445,6.554.53,8.676-2.7,1.881-2.861,1.424-6.912-1.643-9.733a15.053,15.053,0,0,0-6.721-3.615c-8.176-1.712-11.821.516-16.181,9.311l9.549,10.092Zm-280.126,300.5,22.858-15.282-5.956-8.809c-6.052,6.635-14.153,10.189-18.51,17.972-3.687,0-7.568-.563-11.209.132-5.414,1.033-8.794,7.107-7.4,12.042a10.464,10.464,0,0,0,13.105,6.826C3401.088,1951.831,3403.24,1947.96,3402.594,1940.68Zm250.273,37.474c9.322,10.479,18.174,20.365,26.94,30.326,2.376,2.7,4.1,5.558,3.364,9.647-.381,2.114.529,4.735,1.569,6.76,1.258,2.448,3.883,4.213,6.511,2.841a8.849,8.849,0,0,0,3.846-5.382c.815-3.556-1.4-6.237-4.053-8.541-2.47-2.147-5.384-4.145-6.982-6.867-5.037-8.581-9.85-17.327-14.113-26.311-1.7-3.573-3.5-6.548-6.844-8.818Zm103.856-67.193c3.357,1.069,5.615,1.763,7.855,2.507,2.472.822,4.886,1.856,7.4,2.5,3.8.975,6.842,2.655,9.113,6.112a12.254,12.254,0,0,0,11.633,5.577,9.589,9.589,0,0,0,5.971-2.961c3-3.518,2.475-10.56-.433-13.967-2.943-3.448-7.328-4.231-12.222-1.35a8.475,8.475,0,0,1-7.914.772c-2.217-.795-4.836-.693-6.851-1.779C3766.1,1905.585,3761.975,1907.625,3756.723,1910.962Zm-364.39-133.98,1.844-10.986-15.535-1.951c-.46-1.474-.752-2.587-1.152-3.66-1.85-4.953-5.205-6.493-9.983-4.5a11.71,11.71,0,0,0-6.848,7.743c-.988,3.289-1.018,6.669,1.6,9.353,2.763,2.833,6.132,2.58,9.152.718,4.636-2.859,8.986-2.064,13.483.113C3386.984,1774.827,3389.17,1775.645,3392.333,1776.982Zm64.383-145.544c.024,4.48,8.469,24.25,14.012,33.32l7.877-4.268c-2.437-3.386-4.718-6.361-6.791-9.474-5.339-8.013-12.133-15.246-12.3-25.877-.055-3.551-3.18-5.729-6.656-6.613a6.319,6.319,0,0,0-7.956,5.135,6.044,6.044,0,0,0,5.048,7.329A55.915,55.915,0,0,0,3456.716,1631.437Zm314.486,170.8H3749.95l.81,5.971h40.9c-1.57-3.3-2.38-6.075-4-8.233-6.122-8.131-11.744-7.434-16.069,1.763A2.626,2.626,0,0,1,3771.2,1802.241Zm-27.261,105.077-8.791-15.719-5.2,12.616Z"/><path class="b" d="M3896.286,2249.587c15.882,1.184,20.646,6.667,20.917,23.889a80.207,80.207,0,0,1,8.156-4.489c1.266-.53,2.993.041,4.511.113-.107,1.524.317,3.417-.432,4.494a17.911,17.911,0,0,1-5.5,5.508,145.368,145.368,0,0,1-15.415,7.342c-2.6,1.073-5.463,1.5-8.174-.541-1.01-.761-2.661-.8-4.041-.924-6.669-.609-11.5-4.21-15.437-9.308-3.2-4.148-4.194-8.727-1.359-13.293,1.677-2.7,1.136-4.75-.042-7.257-7.1-15.1-14.07-30.249-21.138-45.359-3.79-8.1,1-15.211,9.9-14.387,6.686.618,10.629,4.576,12.768,10.841,4.233,12.4,8.681,24.728,13.042,37.085C3894.758,2245.311,3895.478,2247.317,3896.286,2249.587Zm-8.154,9c-.747.791-1.788,1.765-2.68,2.861-4.176,5.125-3.914,9.149.84,13.768a15.906,15.906,0,0,0,19.756,1.9c5.778-3.609,7.033-8.486,4.181-14.741-2.31-5.068-6.72-6.621-11.553-7.153a9.458,9.458,0,0,1-8.513-6.483c-.522-1.328-1.188-2.6-1.784-3.9-4.687-10.219-8.563-20.7-10.091-31.913-.736-5.4-3.18-9.52-8.755-10.956-2.588-.667-5.27-.672-7.163,1.811-1.8,2.362-.509,4.433.569,6.617,6.849,13.874,13.591,27.8,20.5,41.647C3884.483,2254.146,3886.189,2255.918,3888.132,2258.585Z" transform="translate(-274.72 -310.171)"/><path class="b" d="M3835.04,1809.033c-5.112-4.5-7.7-9.6-7.605-15.984.068-4.433,1.792-8,5.654-10.042,9.385-4.97,19.069-5.937,28.6-.523,10.08,5.728,11.062,16.109,2.061,23.294-3.428,2.736-7.8,4.293-12.938,7.024-.593,8.925-1.076,19.071-2.015,29.175-.5,5.375-1.142,10.9-2.866,15.96-2.552,7.5-9.8,9.469-18.363,6.091-7.292-2.877-10.126-10.426-7.259-16.71,5.12-11.222,9.208-22.915,13.7-34.423A39.4,39.4,0,0,0,3835.04,1809.033Zm14.1-25.125c-2.954.339-4.4.371-5.779.688-3.7.85-8.11,1.259-9.528,5.34a11.038,11.038,0,0,0,3.614,12.35c4.24,3.41,3.366,6.5,1.67,10.6-4.822,11.668-9.284,23.483-13.952,35.214-1.375,3.457-1.223,6.516,1.721,9.084,2.892,2.522,9.244,3.6,12.155,1.907,3.313-1.926,3.514-4.882,3.513-8.566-.006-11.657.552-23.32,1.15-34.967.224-4.359,2.562-7.2,6.949-8.969a33.968,33.968,0,0,0,10-6.692c3.844-3.556,3.726-8-.571-10.981C3856.495,1786.429,3852.043,1785.187,3849.14,1783.908Z" transform="translate(-256.9 -113.95)"/><path class="b" d="M3696.61,1870.846c-1.586,4.41.421,8.348,3.624,11.831,5.148,5.6,10.28,11.221,15.671,16.579,3.882,3.859,7.31,7.633,5.151,13.655-1.847,5.154-8.5,9.408-14.782,9.446-5.714.034-11-3.005-12.639-8.677-2.088-7.213-6.381-13.2-9.513-19.815a10.427,10.427,0,0,0-6.585-5.8c-9.39-3.328-15.269-10.212-17.5-20.013-1.921-8.436,2.276-16.724,10.348-20.589,7.779-3.725,15.305-2,21.127,4.829C3695.489,1856.958,3697.178,1862.887,3696.61,1870.846Zm-5.849,3.181c.266-7.071-.807-13.525-5.858-18.669-3.715-3.784-8.876-4.307-13.7-1.55-4.675,2.673-6.7,6.813-5.472,11.979,1.947,8.217,6.916,14.093,14.895,16.81,3.178,1.082,5.483,2.483,6.946,5.427,3.685,7.418,7.514,14.765,11.074,22.242,2.091,4.391,4.287,6.015,8.724,5.6,3.987-.375,7.412-2.859,8.034-5.984.833-4.178-1.441-6.728-4.758-8.674a12.286,12.286,0,0,1-2.413-1.511c-4.753-4.6-9.661-9.061-14.092-13.954A12.827,12.827,0,0,1,3690.761,1874.027Z" transform="translate(-181.692 -145.377)"/><path class="b" d="M3669.606,2069.525c-.662.784-1.177,1.288-1.57,1.875-6.615,9.889-18.18,11.378-26.8,3.219-6.24-5.906-8.127-13.431-6.3-21.635,1.835-8.24,10-12.457,18.462-9.8a28.967,28.967,0,0,1,6.989,3.5,54.88,54.88,0,0,1,5.537,4.723c8.82-2.036,17.656-3.942,26.417-6.144,6.221-1.564,10.086-.137,12.916,5.408a21.414,21.414,0,0,1,1.3,3.316c2.625,8.344.057,13.083-8.651,14.195-7.765.991-15.662.955-23.5,1.337C3672.756,2069.594,3671.1,2069.525,3669.606,2069.525Zm12.947-5.84c3.371.293,7.876.772,12.394,1.051,4.378.271,7.394-1.171,7.166-4.042a22.244,22.244,0,0,0-3.052-9.9c-1.87-2.937-5.06-1.031-7.813-.237-7.084,2.041-14.24,3.837-21.364,5.738-3.454.922-6.174.562-8.79-2.572a15.382,15.382,0,0,0-12.043-5.4,8.554,8.554,0,0,0-8.409,5.475c-2.405,6.11.576,14.721,6.326,18.278,6.011,3.717,11.887,2.789,16.91-3.489,2.837-3.546,5.97-5.179,10.366-4.93C3676.62,2063.8,3679.011,2063.685,3682.552,2063.685Z" transform="translate(-169.77 -238.124)"/><path class="b" d="M3598.507,2153.615c6.871-7.9,13.5-15.969,20.68-23.5,2.063-2.163,5.631-3.485,8.7-3.969,6.522-1.026,12.135,1.5,16.658,6.274,4.852,5.128,4.687,9.6-.953,13.82-7.605,5.687-15.382,11.157-23.258,16.465-2.955,1.991-4.783,3.813-4.666,7.853.2,7.013-3.027,12.374-9.926,14.912-7.445,2.74-14.633,2.4-20.681-3.146-5.527-5.064-5.939-11.713-4.01-18.478,1.8-6.322,7.106-10.005,13.868-10.225C3596.09,2153.583,3597.26,2153.615,3598.507,2153.615Zm2.641,5.51c-.053-.013-.95-.232-1.841-.475-7-1.909-12.453.552-14.436,6.523a12.252,12.252,0,0,0,7.494,15.7c10.179,3.911,18.5-1.406,18.467-12.309-.014-4.147,1.437-6.945,4.485-9.055,6.447-4.464,13.034-8.729,19.6-13.019,3.085-2.017,8.1-2.825,7.712-7.394-.387-4.533-5.29-5.583-8.83-7.393a6.978,6.978,0,0,0-2.02-.7c-3.486-.563-6.4-.089-8.789,3.136-2.677,3.617-6.014,6.74-9,10.138C3609.807,2149.051,3605.683,2153.878,3601.148,2159.125Z" transform="translate(-144.205 -277.477)"/><path class="b" d="M3910.076,2135.472c.12,7.471-4.3,13.334-11.567,15.635-7.546,2.391-16.7.245-19.642-5.9-3.285-6.859-8.85-10.251-15.131-13.222-7.81-3.695-9.841-9.928-5.656-17.456,3.38-6.08,7.871-7.393,14.226-4.172,1.905.966,3.9,1.781,5.721,2.88,3.736,2.253,7.164,4.05,11.83,1.552,3.356-1.8,7.078,0,10,2.153A24.917,24.917,0,0,1,3910.076,2135.472Zm-29.348-14.352c-1.621-1.041-3.06-1.883-4.406-2.853s-2.473-2.373-3.943-3.044c-1.813-.826-3.969-1.713-5.822-1.457-2.926.4-5.655,4.818-5.727,8.3-.076,3.7,2.208,5.232,5.412,6.546a54.948,54.948,0,0,1,11.038,6.124c1.814,1.3,2.77,3.788,4.133,5.725a13.444,13.444,0,0,0,17.819,3.647c4.9-2.947,5.881-8.592,2.524-15.136a19.319,19.319,0,0,0-2.789-4.134c-4.424-4.885-8.195-4.827-12.611.135-1.618,1.819-3.106,3.753-5.628,6.819Z" transform="translate(-274.212 -269.345)"/><path class="b" d="M3871.941,1963.514c-.2-3.837-.993-6.985-.372-9.823,1.387-6.329,7.568-9.57,15.176-8.611,7.886.993,15.516,8.637,16.534,16.565.8,6.234-2.8,12.989-9.358,14.149-7.519,1.33-11.3,6.534-15.3,11.611-6.179,7.836-15.476,7.711-20.866-.713-2.89-4.517-2.348-8.071,1.739-11.782C3863.709,1971.082,3867.9,1967.221,3871.941,1963.514Zm10.313,8.507c2.792-.4,6.378-.514,9.706-1.5,4.128-1.222,6-4.344,5.674-8-.5-5.672-6.226-11.219-11.862-11.487-5.382-.256-8.427,2.886-7.864,8.292.337,3.243.907,6.461,1.468,10.358-1.6-.354-2.422-.594-3.26-.7-.857-.114-2.038-.488-2.549-.083-4.4,3.49-8.671,7.132-12.972,10.719a15.815,15.815,0,0,0,1.195,3.089c4.229,6.064,9.72,6.107,14.056.206,1.122-1.526,2.58-2.831,3.542-4.441A61.276,61.276,0,0,0,3882.255,1972.021Z" transform="translate(-274.207 -192.198)"/><path class="b" d="M3830.046,2053.133c.156,9.859-7.32,17.089-17.811,17.226-8.761.114-15.759-4.744-15.715-11.11.1-14.32,4.632-20.281,17.876-21.738C3823.11,2036.553,3829.9,2043.9,3830.046,2053.133Zm-26.671,1.556c-.365,8.282,1.922,10.629,9.062,9.824a18.97,18.97,0,0,0,6.741-2.115c5.2-2.809,6.711-8.833,3.875-14.193-2.364-4.467-6.789-5.741-12.357-3.562C3805.678,2046.605,3803.084,2050.185,3803.375,2054.689Z" transform="translate(-246.213 -235.785)"/><path class="b" d="M4056.953,2244c-4.944,15.151-15.748,25.619-27.73,35.1-2.319,1.834-4.827,4.064-8.312,2.349,1.545-5.535,3.2-7.6,16.808-19.68C4044.227,2255.99,4048.6,2247.977,4056.953,2244Z" transform="translate(-351.933 -333.112)"/><path class="b" d="M4050.474,2211.2c1.5,11.141-12.357,25.822-25.633,28.559,1.028-1.495,1.624-2.559,2.4-3.465,5.405-6.271,10.792-12.56,16.312-18.729C4045.353,2215.56,4047.526,2213.891,4050.474,2211.2Z" transform="translate(-353.785 -317.658)"/><path class="b" d="M3580.7,1865.934c-.445-7.525,2.932-13.494,8.434-18.424,1.852-1.659,4.376-2.365,6.465-.258,2.063,2.081,1.454,4.573-.278,6.426-4.182,4.475-8.6,8.727-12.928,13.069Z" transform="translate(-144.512 -145.57)"/><path class="b" d="M3857.3,2373.812c4.212-2.536,8.34-5.235,12.7-7.494a4.784,4.784,0,0,1,4.306.6c1.891,1.639.611,3.646-.852,4.833C3868.8,2375.521,3863.477,2376.455,3857.3,2373.812Z" transform="translate(-274.85 -390.609)"/><path class="b" d="M4118.69,2111.825c.581-3.6.97-7.25,1.882-10.764.216-.83,2.377-1.865,3.3-1.6a3.775,3.775,0,0,1,2.021,3.105c-.569,3.846-1.184,7.883-5.164,9.867Z" transform="translate(-398.001 -264.991)"/><path class="b" d="M3975.037,2288.5a85.844,85.844,0,0,1,5.131-7.039c.406-.466,2.227-.108,3.087.4.455.267.6,1.83.274,2.527a9.2,9.2,0,0,1-6.887,5.393Z" transform="translate(-330.32 -350.659)"/><path class="b" d="M3542,2135.681c3.34,3.693,3.465,4.166,2.482,9.392C3539.525,2141.733,3539.135,2140.256,3542,2135.681Z" transform="translate(-125.453 -282.077)"/><path class="b" d="M3828.946,1754.693c-.153-1.234-.56-2.171-.264-2.532a25.363,25.363,0,0,1,4.127-4.1,3.964,3.964,0,0,1,2.376,1.911c.522,2.758-1,4.456-3.684,5.024A9.509,9.509,0,0,1,3828.946,1754.693Z" transform="translate(-261.316 -99.448)"/><path class="b" d="M3562.339,1916.605c-2.8-3.032-2.746-5.547-.336-7.828a2.477,2.477,0,0,1,2.4.316C3566.559,1912.082,3564.881,1914.2,3562.339,1916.605Z" transform="translate(-134.88 -175.084)"/><path class="b" d="M3761.806,2182.657c-1.166-2.307-2.263-3.758-2.517-5.344-.1-.614,1.711-1.534,2.652-2.315a23.964,23.964,0,0,1,2.615,4.438C3764.727,2179.918,3763.3,2180.963,3761.806,2182.657Z" transform="translate(-228.67 -300.601)"/><path class="b" d="M4021.045,2212.976c1.776,4.981-1.265,6.662-5.18,9.231C4016.022,2217.6,4017.216,2214.923,4021.045,2212.976Z" transform="translate(-349.556 -318.494)"/><path class="b" d="M4142.731,2034.8c-3.819-5.769-3.819-5.769-.926-8.968C4144.452,2028.2,4143.271,2030.935,4142.731,2034.8Z" transform="translate(-407.918 -230.322)"/><path class="b" d="M3547.911,2109.8c-.662.413-.856.641-1.046.637-2.781-.06-4.619-1.22-4.263-4.266a2.5,2.5,0,0,1,2.057-1.317C3547.6,2105.41,3548.089,2107.5,3547.911,2109.8Z" transform="translate(-126.56 -267.547)"/><path class="b" d="M3763.193,2149.992c1.57-1.35,2.7-2.778,3.116-2.594a15.7,15.7,0,0,1,3.4,2.689c-.687.783-1.523,2.306-2.034,2.2C3766.325,2152.021,3765.115,2151.047,3763.193,2149.992Z" transform="translate(-230.511 -287.59)"/><path class="b" d="M3801.921,1757.253c-.228-1.92-.333-3.769,3.936-3.853-.828,1.945-1.429,3.357-2.03,4.768Z" transform="translate(-248.716 -101.968)"/></g></svg>