<svg xmlns="http://www.w3.org/2000/svg" width="27" height="187" viewBox="0 0 27 187"><defs><style>.a{fill:#004cff;}.b{fill:#014dff;}.c{fill:#024eff;}.d{fill:#034fff;}.e{fill:#044fff;}.f{fill:#0550ff;}.g{fill:#0651ff;}.h{fill:#0752ff;}.i{fill:#0853ff;}.j{fill:#0954ff;}.k{fill:#0a54ff;}.l{fill:#0b55ff;}.m{fill:#0c56ff;}.n{fill:#0d57ff;}.o{fill:#0e58ff;}.p{fill:#0f59ff;}.q{fill:#1059ff;}.r{fill:#115aff;}.s{fill:#125bff;}.t{fill:#135cff;}.u{fill:#145dff;}.v{fill:#155eff;}.w{fill:#165eff;}.x{fill:#175fff;}.y{fill:#1860ff;}.z{fill:#1961ff;}.aa{fill:#1a62ff;}.ab{fill:#1b63ff;}.ac{fill:#1c63ff;}.ad{fill:#1d64ff;}.ae{fill:#1e65ff;}.af{fill:#1f66ff;}.ag{fill:#2067ff;}.ah{fill:#2168ff;}.ai{fill:#2268ff;}.aj{fill:#2369ff;}.ak{fill:#246aff;}.al{fill:#256bff;}.am{fill:#266cff;}.an{fill:#276dff;}.ao{fill:#286dff;}.ap{fill:#296eff;}.aq{fill:#2a6fff;}.ar{fill:#2b70ff;}.as{fill:#2c71ff;}.at{fill:#2d72ff;}.au{fill:#2e72ff;}.av{fill:#2f73ff;}.aw{fill:#3074ff;}.ax{fill:#3175ff;}.ay{fill:#3276ff;}.az{fill:#37f;}.ba{fill:#3478ff;}.bb{fill:#3578ff;}.bc{fill:#3679ff;}.bd{fill:#377aff;}.be{fill:#387bff;}.bf{fill:#397cff;}.bg{fill:#3a7dff;}.bh{fill:#3b7dff;}.bi{fill:#3c7eff;}.bj{fill:#3d7fff;}.bk{fill:#3e80ff;}.bl{fill:#3f81ff;}.bm{fill:#4082ff;}.bn{fill:#4182ff;}.bo{fill:#4283ff;}.bp{fill:#4384ff;}.bq{fill:#4485ff;}.br{fill:#4586ff;}.bs{fill:#4687ff;}.bt{fill:#4787ff;}.bu{fill:#4888ff;}.bv{fill:#4989ff;}.bw{fill:#4a8aff;}.bx{fill:#4b8bff;}.by{fill:#4c8cff;}.bz{fill:#4d8cff;}.ca{fill:#4e8dff;}.cb{fill:#4f8eff;}.cc{fill:#508fff;}.cd{fill:#5190ff;}.ce{fill:#5291ff;}.cf{fill:#5391ff;}.cg{fill:#5492ff;}.ch{fill:#5593ff;}.ci{fill:#5694ff;}.cj{fill:#5795ff;}.ck{fill:#5896ff;}.cl{fill:#5996ff;}.cm{fill:#5a97ff;}.cn{fill:#5b98ff;}.co{fill:#5c99ff;}.cp{fill:#5d9aff;}.cq{fill:#5e9bff;}.cr{fill:#5f9bff;}.cs{fill:#609cff;}.ct{fill:#619dff;}.cu{fill:#629eff;}.cv{fill:#639fff;}.cw{fill:#64a0ff;}.cx{fill:#65a0ff;}.cy{fill:#66a1ff;}.cz{fill:#67a2ff;}.da{fill:#68a3ff;}.db{fill:#69a4ff;}.dc{fill:#6aa5ff;}.dd{fill:#6ba6ff;}.de{fill:#6ca6ff;}.df{fill:#6da7ff;}.dg{fill:#6ea8ff;}.dh{fill:#6fa9ff;}.di{fill:#70aaff;}.dj{fill:#71abff;}.dk{fill:#72abff;}.dl{fill:#73acff;}.dm{fill:#74adff;}.dn{fill:#75aeff;}.do{fill:#76afff;}.dp{fill:#77b0ff;}.dq{fill:#78b0ff;}.dr{fill:#79b1ff;}.ds{fill:#7ab2ff;}.dt{fill:#7bb3ff;}.du{fill:#7cb4ff;}.dv{fill:#7db5ff;}.dw{fill:#7eb5ff;}.dx{fill:#7fb6ff;}.dy{fill:#80b7ff;}.dz{fill:#81b8ff;}.ea{fill:#82b9ff;}.eb{fill:#83baff;}.ec{fill:#84baff;}.ed{fill:#85bbff;}.ee{fill:#86bcff;}.ef{fill:#87bdff;}.eg{fill:#88beff;}.eh{fill:#89bfff;}.ei{fill:#8abfff;}.ej{fill:#8bc0ff;}.ek{fill:#8cc1ff;}.el{fill:#8dc2ff;}.em{fill:#8ec3ff;}.en{fill:#8fc4ff;}.eo{fill:#90c4ff;}.ep{fill:#91c5ff;}.eq{fill:#92c6ff;}.er{fill:#93c7ff;}.es{fill:#94c8ff;}.et{fill:#95c9ff;}.eu{fill:#96c9ff;}.ev{fill:#97caff;}.ew{fill:#98cbff;}.ex{fill:#9cf;}</style></defs><g transform="translate(-1942.606 2473.433)"><circle class="a" cx="13.5" cy="13.5" r="13.5" transform="translate(1942.606 -2473.433)"/><circle class="b" cx="13.5" cy="13.5" r="13.5" transform="translate(1942.606 -2472.388)"/><circle class="c" cx="13.5" cy="13.5" r="13.5" transform="translate(1942.606 -2471.342)"/><circle class="d" cx="13.5" cy="13.5" r="13.5" transform="translate(1942.606 -2470.296)"/><circle class="e" cx="13.5" cy="13.5" r="13.5" transform="translate(1942.606 -2469.25)"/><circle class="f" cx="13.5" cy="13.5" r="13.5" transform="translate(1942.606 -2468.205)"/><circle class="g" cx="13.5" cy="13.5" r="13.5" transform="translate(1942.606 -2467.159)"/><circle class="h" cx="13.5" cy="13.5" r="13.5" transform="translate(1942.606 -2466.113)"/><circle class="i" cx="13.5" cy="13.5" r="13.5" transform="translate(1942.606 -2465.067)"/><circle class="j" cx="13.5" cy="13.5" r="13.5" transform="translate(1942.606 -2464.021)"/><circle class="k" cx="13.5" cy="13.5" r="13.5" transform="translate(1942.606 -2462.976)"/><circle class="l" cx="13.5" cy="13.5" r="13.5" transform="translate(1942.606 -2461.93)"/><circle class="m" cx="13.5" cy="13.5" r="13.5" transform="translate(1942.606 -2460.884)"/><circle class="n" cx="13.5" cy="13.5" r="13.5" transform="translate(1942.606 -2459.839)"/><circle class="o" cx="13.5" cy="13.5" r="13.5" transform="translate(1942.606 -2458.793)"/><circle class="p" cx="13.5" cy="13.5" r="13.5" transform="translate(1942.606 -2457.747)"/><circle class="q" cx="13.5" cy="13.5" r="13.5" transform="translate(1942.606 -2456.701)"/><circle class="r" cx="13.5" cy="13.5" r="13.5" transform="translate(1942.606 -2455.656)"/><circle class="s" cx="13.5" cy="13.5" r="13.5" transform="translate(1942.606 -2454.61)"/><circle class="t" cx="13.5" cy="13.5" r="13.5" transform="translate(1942.606 -2453.564)"/><circle class="u" cx="13.5" cy="13.5" r="13.5" transform="translate(1942.606 -2452.518)"/><circle class="v" cx="13.5" cy="13.5" r="13.5" transform="translate(1942.606 -2451.473)"/><circle class="w" cx="13.5" cy="13.5" r="13.5" transform="translate(1942.606 -2450.427)"/><circle class="x" cx="13.5" cy="13.5" r="13.5" transform="translate(1942.606 -2449.381)"/><circle class="y" cx="13.5" cy="13.5" r="13.5" transform="translate(1942.606 -2448.335)"/><circle class="z" cx="13.5" cy="13.5" r="13.5" transform="translate(1942.606 -2447.29)"/><circle class="aa" cx="13.5" cy="13.5" r="13.5" transform="translate(1942.606 -2446.244)"/><circle class="ab" cx="13.5" cy="13.5" r="13.5" transform="translate(1942.606 -2445.198)"/><circle class="ac" cx="13.5" cy="13.5" r="13.5" transform="translate(1942.606 -2444.152)"/><circle class="ad" cx="13.5" cy="13.5" r="13.5" transform="translate(1942.606 -2443.106)"/><circle class="ae" cx="13.5" cy="13.5" r="13.5" transform="translate(1942.606 -2442.061)"/><circle class="af" cx="13.5" cy="13.5" r="13.5" transform="translate(1942.606 -2441.015)"/><circle class="ag" cx="13.5" cy="13.5" r="13.5" transform="translate(1942.606 -2439.969)"/><circle class="ah" cx="13.5" cy="13.5" r="13.5" transform="translate(1942.606 -2438.924)"/><circle class="ai" cx="13.5" cy="13.5" r="13.5" transform="translate(1942.606 -2437.878)"/><circle class="aj" cx="13.5" cy="13.5" r="13.5" transform="translate(1942.606 -2436.832)"/><circle class="ak" cx="13.5" cy="13.5" r="13.5" transform="translate(1942.606 -2435.786)"/><circle class="al" cx="13.5" cy="13.5" r="13.5" transform="translate(1942.606 -2434.74)"/><circle class="am" cx="13.5" cy="13.5" r="13.5" transform="translate(1942.606 -2433.695)"/><circle class="an" cx="13.5" cy="13.5" r="13.5" transform="translate(1942.606 -2432.649)"/><circle class="ao" cx="13.5" cy="13.5" r="13.5" transform="translate(1942.606 -2431.603)"/><circle class="ap" cx="13.5" cy="13.5" r="13.5" transform="translate(1942.606 -2430.558)"/><circle class="aq" cx="13.5" cy="13.5" r="13.5" transform="translate(1942.606 -2429.512)"/><circle class="ar" cx="13.5" cy="13.5" r="13.5" transform="translate(1942.606 -2428.466)"/><circle class="as" cx="13.5" cy="13.5" r="13.5" transform="translate(1942.606 -2427.42)"/><circle class="at" cx="13.5" cy="13.5" r="13.5" transform="translate(1942.606 -2426.375)"/><circle class="au" cx="13.5" cy="13.5" r="13.5" transform="translate(1942.606 -2425.329)"/><circle class="av" cx="13.5" cy="13.5" r="13.5" transform="translate(1942.606 -2424.283)"/><circle class="aw" cx="13.5" cy="13.5" r="13.5" transform="translate(1942.606 -2423.237)"/><circle class="ax" cx="13.5" cy="13.5" r="13.5" transform="translate(1942.606 -2422.192)"/><circle class="ay" cx="13.5" cy="13.5" r="13.5" transform="translate(1942.606 -2421.146)"/><circle class="az" cx="13.5" cy="13.5" r="13.5" transform="translate(1942.606 -2420.1)"/><circle class="ba" cx="13.5" cy="13.5" r="13.5" transform="translate(1942.606 -2419.054)"/><circle class="bb" cx="13.5" cy="13.5" r="13.5" transform="translate(1942.606 -2418.009)"/><circle class="bc" cx="13.5" cy="13.5" r="13.5" transform="translate(1942.606 -2416.963)"/><circle class="bd" cx="13.5" cy="13.5" r="13.5" transform="translate(1942.606 -2415.917)"/><circle class="be" cx="13.5" cy="13.5" r="13.5" transform="translate(1942.606 -2414.871)"/><circle class="bf" cx="13.5" cy="13.5" r="13.5" transform="translate(1942.606 -2413.825)"/><circle class="bg" cx="13.5" cy="13.5" r="13.5" transform="translate(1942.606 -2412.78)"/><circle class="bh" cx="13.5" cy="13.5" r="13.5" transform="translate(1942.606 -2411.734)"/><circle class="bi" cx="13.5" cy="13.5" r="13.5" transform="translate(1942.606 -2410.688)"/><circle class="bj" cx="13.5" cy="13.5" r="13.5" transform="translate(1942.606 -2409.643)"/><circle class="bk" cx="13.5" cy="13.5" r="13.5" transform="translate(1942.606 -2408.597)"/><circle class="bl" cx="13.5" cy="13.5" r="13.5" transform="translate(1942.606 -2407.551)"/><circle class="bm" cx="13.5" cy="13.5" r="13.5" transform="translate(1942.606 -2406.505)"/><circle class="bn" cx="13.5" cy="13.5" r="13.5" transform="translate(1942.606 -2405.459)"/><circle class="bo" cx="13.5" cy="13.5" r="13.5" transform="translate(1942.606 -2404.414)"/><circle class="bp" cx="13.5" cy="13.5" r="13.5" transform="translate(1942.606 -2403.368)"/><circle class="bq" cx="13.5" cy="13.5" r="13.5" transform="translate(1942.606 -2402.322)"/><circle class="br" cx="13.5" cy="13.5" r="13.5" transform="translate(1942.606 -2401.277)"/><circle class="bs" cx="13.5" cy="13.5" r="13.5" transform="translate(1942.606 -2400.231)"/><circle class="bt" cx="13.5" cy="13.5" r="13.5" transform="translate(1942.606 -2399.185)"/><circle class="bu" cx="13.5" cy="13.5" r="13.5" transform="translate(1942.606 -2398.139)"/><circle class="bv" cx="13.5" cy="13.5" r="13.5" transform="translate(1942.606 -2397.094)"/><circle class="bw" cx="13.5" cy="13.5" r="13.5" transform="translate(1942.606 -2396.048)"/><circle class="bx" cx="13.5" cy="13.5" r="13.5" transform="translate(1942.606 -2395.002)"/><circle class="by" cx="13.5" cy="13.5" r="13.5" transform="translate(1942.606 -2393.956)"/><circle class="bz" cx="13.5" cy="13.5" r="13.5" transform="translate(1942.606 -2392.91)"/><circle class="ca" cx="13.5" cy="13.5" r="13.5" transform="translate(1942.606 -2391.865)"/><circle class="cb" cx="13.5" cy="13.5" r="13.5" transform="translate(1942.606 -2390.819)"/><circle class="cc" cx="13.5" cy="13.5" r="13.5" transform="translate(1942.606 -2389.773)"/><circle class="cd" cx="13.5" cy="13.5" r="13.5" transform="translate(1942.606 -2388.728)"/><circle class="ce" cx="13.5" cy="13.5" r="13.5" transform="translate(1942.606 -2387.682)"/><circle class="cf" cx="13.5" cy="13.5" r="13.5" transform="translate(1942.606 -2386.636)"/><circle class="cg" cx="13.5" cy="13.5" r="13.5" transform="translate(1942.606 -2385.59)"/><circle class="ch" cx="13.5" cy="13.5" r="13.5" transform="translate(1942.606 -2384.544)"/><circle class="ci" cx="13.5" cy="13.5" r="13.5" transform="translate(1942.606 -2383.499)"/><circle class="cj" cx="13.5" cy="13.5" r="13.5" transform="translate(1942.606 -2382.453)"/><circle class="ck" cx="13.5" cy="13.5" r="13.5" transform="translate(1942.606 -2381.407)"/><circle class="cl" cx="13.5" cy="13.5" r="13.5" transform="translate(1942.606 -2380.362)"/><circle class="cm" cx="13.5" cy="13.5" r="13.5" transform="translate(1942.606 -2379.316)"/><circle class="cn" cx="13.5" cy="13.5" r="13.5" transform="translate(1942.606 -2378.27)"/><circle class="co" cx="13.5" cy="13.5" r="13.5" transform="translate(1942.606 -2377.224)"/><circle class="cp" cx="13.5" cy="13.5" r="13.5" transform="translate(1942.606 -2376.178)"/><circle class="cq" cx="13.5" cy="13.5" r="13.5" transform="translate(1942.606 -2375.133)"/><circle class="cr" cx="13.5" cy="13.5" r="13.5" transform="translate(1942.606 -2374.087)"/><circle class="cs" cx="13.5" cy="13.5" r="13.5" transform="translate(1942.606 -2373.041)"/><circle class="ct" cx="13.5" cy="13.5" r="13.5" transform="translate(1942.606 -2371.995)"/><circle class="cu" cx="13.5" cy="13.5" r="13.5" transform="translate(1942.606 -2370.95)"/><circle class="cv" cx="13.5" cy="13.5" r="13.5" transform="translate(1942.606 -2369.904)"/><circle class="cw" cx="13.5" cy="13.5" r="13.5" transform="translate(1942.606 -2368.858)"/><circle class="cx" cx="13.5" cy="13.5" r="13.5" transform="translate(1942.606 -2367.813)"/><circle class="cy" cx="13.5" cy="13.5" r="13.5" transform="translate(1942.606 -2366.767)"/><circle class="cz" cx="13.5" cy="13.5" r="13.5" transform="translate(1942.606 -2365.721)"/><circle class="da" cx="13.5" cy="13.5" r="13.5" transform="translate(1942.606 -2364.675)"/><circle class="db" cx="13.5" cy="13.5" r="13.5" transform="translate(1942.606 -2363.629)"/><circle class="dc" cx="13.5" cy="13.5" r="13.5" transform="translate(1942.606 -2362.584)"/><circle class="dd" cx="13.5" cy="13.5" r="13.5" transform="translate(1942.606 -2361.538)"/><circle class="de" cx="13.5" cy="13.5" r="13.5" transform="translate(1942.606 -2360.492)"/><circle class="df" cx="13.5" cy="13.5" r="13.5" transform="translate(1942.606 -2359.447)"/><circle class="dg" cx="13.5" cy="13.5" r="13.5" transform="translate(1942.606 -2358.401)"/><circle class="dh" cx="13.5" cy="13.5" r="13.5" transform="translate(1942.606 -2357.355)"/><circle class="di" cx="13.5" cy="13.5" r="13.5" transform="translate(1942.606 -2356.309)"/><circle class="dj" cx="13.5" cy="13.5" r="13.5" transform="translate(1942.606 -2355.263)"/><circle class="dk" cx="13.5" cy="13.5" r="13.5" transform="translate(1942.606 -2354.218)"/><circle class="dl" cx="13.5" cy="13.5" r="13.5" transform="translate(1942.606 -2353.172)"/><circle class="dm" cx="13.5" cy="13.5" r="13.5" transform="translate(1942.606 -2352.126)"/><circle class="dn" cx="13.5" cy="13.5" r="13.5" transform="translate(1942.606 -2351.08)"/><circle class="do" cx="13.5" cy="13.5" r="13.5" transform="translate(1942.606 -2350.035)"/><circle class="dp" cx="13.5" cy="13.5" r="13.5" transform="translate(1942.606 -2348.989)"/><circle class="dq" cx="13.5" cy="13.5" r="13.5" transform="translate(1942.606 -2347.943)"/><circle class="dr" cx="13.5" cy="13.5" r="13.5" transform="translate(1942.606 -2346.897)"/><circle class="ds" cx="13.5" cy="13.5" r="13.5" transform="translate(1942.606 -2345.852)"/><circle class="dt" cx="13.5" cy="13.5" r="13.5" transform="translate(1942.606 -2344.806)"/><circle class="du" cx="13.5" cy="13.5" r="13.5" transform="translate(1942.606 -2343.76)"/><circle class="dv" cx="13.5" cy="13.5" r="13.5" transform="translate(1942.606 -2342.714)"/><circle class="dw" cx="13.5" cy="13.5" r="13.5" transform="translate(1942.606 -2341.669)"/><circle class="dx" cx="13.5" cy="13.5" r="13.5" transform="translate(1942.606 -2340.623)"/><circle class="dy" cx="13.5" cy="13.5" r="13.5" transform="translate(1942.606 -2339.577)"/><circle class="dz" cx="13.5" cy="13.5" r="13.5" transform="translate(1942.606 -2338.531)"/><circle class="ea" cx="13.5" cy="13.5" r="13.5" transform="translate(1942.606 -2337.486)"/><circle class="eb" cx="13.5" cy="13.5" r="13.5" transform="translate(1942.606 -2336.44)"/><circle class="ec" cx="13.5" cy="13.5" r="13.5" transform="translate(1942.606 -2335.394)"/><circle class="ed" cx="13.5" cy="13.5" r="13.5" transform="translate(1942.606 -2334.348)"/><circle class="ee" cx="13.5" cy="13.5" r="13.5" transform="translate(1942.606 -2333.303)"/><circle class="ef" cx="13.5" cy="13.5" r="13.5" transform="translate(1942.606 -2332.257)"/><circle class="eg" cx="13.5" cy="13.5" r="13.5" transform="translate(1942.606 -2331.211)"/><circle class="eh" cx="13.5" cy="13.5" r="13.5" transform="translate(1942.606 -2330.165)"/><circle class="ei" cx="13.5" cy="13.5" r="13.5" transform="translate(1942.606 -2329.12)"/><circle class="ej" cx="13.5" cy="13.5" r="13.5" transform="translate(1942.606 -2328.074)"/><circle class="ek" cx="13.5" cy="13.5" r="13.5" transform="translate(1942.606 -2327.028)"/><circle class="el" cx="13.5" cy="13.5" r="13.5" transform="translate(1942.606 -2325.982)"/><circle class="em" cx="13.5" cy="13.5" r="13.5" transform="translate(1942.606 -2324.937)"/><circle class="en" cx="13.5" cy="13.5" r="13.5" transform="translate(1942.606 -2323.891)"/><circle class="eo" cx="13.5" cy="13.5" r="13.5" transform="translate(1942.606 -2322.845)"/><circle class="ep" cx="13.5" cy="13.5" r="13.5" transform="translate(1942.606 -2321.799)"/><circle class="eq" cx="13.5" cy="13.5" r="13.5" transform="translate(1942.606 -2320.754)"/><circle class="er" cx="13.5" cy="13.5" r="13.5" transform="translate(1942.606 -2319.708)"/><circle class="es" cx="13.5" cy="13.5" r="13.5" transform="translate(1942.606 -2318.662)"/><circle class="et" cx="13.5" cy="13.5" r="13.5" transform="translate(1942.606 -2317.616)"/><circle class="eu" cx="13.5" cy="13.5" r="13.5" transform="translate(1942.606 -2316.571)"/><circle class="ev" cx="13.5" cy="13.5" r="13.5" transform="translate(1942.606 -2315.525)"/><circle class="ew" cx="13.5" cy="13.5" r="13.5" transform="translate(1942.606 -2314.479)"/><circle class="ex" cx="13.5" cy="13.5" r="13.5" transform="translate(1942.606 -2313.433)"/></g></svg>