<?xml version="1.0" standalone="no"?>
<!DOCTYPE svg PUBLIC "-//W3C//DTD SVG 20010904//EN"
 "http://www.w3.org/TR/2001/REC-SVG-20010904/DTD/svg10.dtd">
<svg version="1.0" xmlns="http://www.w3.org/2000/svg"
 width="952.000000pt" height="952.000000pt" viewBox="0 0 952.000000 952.000000"
 preserveAspectRatio="xMidYMid meet">
<metadata>
Created by potrace 1.11, written by Peter Selinger 2001-2013
</metadata>
<g transform="translate(0.000000,952.000000) scale(0.100000,-0.100000)"
fill="#000000" stroke="none">
<path d="M5360 8172 c-22 -11 -43 -33 -57 -60 -23 -46 -25 -105 -7 -262 12
-97 11 -269 0 -295 -5 -11 -10 -22 -11 -25 -9 -39 -55 -101 -124 -171 -109
-109 -155 -136 -246 -145 -39 -3 -83 -8 -100 -10 -16 -1 -64 -6 -105 -9 -41
-3 -95 -8 -120 -10 -152 -15 -261 -17 -290 -5 -29 12 -32 18 -44 81 -3 14 14
124 28 184 2 11 14 60 26 109 34 139 19 194 -63 235 -42 21 -60 23 -172 23
-122 -1 -125 0 -126 21 -3 79 -29 134 -74 156 -17 8 -59 14 -95 15 -244 0
-418 -140 -356 -288 19 -45 41 -69 106 -119 122 -92 149 -127 169 -227 6 -30
14 -66 17 -80 5 -27 7 -156 2 -180 -5 -24 -47 -103 -66 -125 -9 -11 -48 -45
-87 -75 -38 -30 -75 -59 -81 -65 -6 -5 -42 -37 -79 -70 -38 -33 -84 -74 -103
-92 -88 -83 -227 -118 -334 -86 -89 26 -234 123 -342 228 -71 70 -88 103 -90
184 -3 89 -24 126 -86 152 -42 18 -92 17 -142 -1 -27 -10 -48 -15 -48 -12 0 4
-4 2 -8 -3 -4 -6 -26 -23 -50 -39 -59 -40 -99 -89 -133 -160 -35 -73 -37 -131
-9 -187 27 -52 55 -62 175 -64 109 -2 163 -19 218 -71 l28 -26 -29 -21 c-112
-83 -187 -192 -208 -302 -12 -64 -4 -134 18 -162 6 -7 7 -13 2 -13 -19 0 89
-90 109 -92 62 -4 85 -2 117 8 38 12 75 12 133 0 31 -6 37 -10 33 -27 -11 -38
-15 -54 -20 -81 -9 -50 -45 -117 -89 -165 -46 -50 -87 -120 -87 -149 0 -29
-40 -88 -77 -112 -34 -23 -44 -26 -108 -37 -16 -3 -37 -8 -46 -11 -16 -4 -37
-8 -124 -19 -22 -3 -90 -16 -151 -28 -61 -13 -128 -22 -148 -21 -46 2 -83 35
-120 107 -50 99 -122 153 -189 140 -34 -7 -121 -88 -148 -138 -80 -146 -49
-311 78 -418 45 -38 130 -34 177 9 34 32 97 64 110 57 5 -3 25 -7 45 -8 173
-11 441 -184 441 -285 0 -13 -7 -20 -20 -20 -17 0 -102 27 -155 50 -32 14
-139 52 -155 55 -8 2 -15 4 -15 5 0 1 -22 4 -50 6 -63 6 -126 -17 -160 -59
-14 -18 -30 -37 -35 -44 -6 -7 -10 -16 -10 -21 0 -5 -6 -15 -14 -21 -13 -11
-52 -14 -326 -26 -145 -7 -565 -6 -750 1 -91 3 -241 7 -335 7 l-170 2 -1 -43
c-1 -24 4 -45 10 -48 6 -2 83 -6 171 -8 88 -3 234 -9 325 -12 333 -14 824 -9
1010 10 39 4 47 -2 55 -42 9 -51 51 -151 72 -175 39 -42 97 -60 152 -45 30 9
168 92 181 110 12 15 65 28 91 23 33 -7 162 -64 206 -89 17 -11 37 -30 44 -43
7 -13 16 -23 21 -23 4 0 8 -9 8 -19 0 -11 4 -22 9 -25 26 -16 29 -198 6 -351
-23 -154 -20 -150 -245 -319 -162 -123 -183 -131 -235 -100 -34 21 -132 45
-162 40 -15 -2 -33 -5 -40 -5 -27 -2 -81 -62 -88 -99 -25 -126 32 -305 123
-388 76 -70 185 -89 256 -45 40 25 76 92 76 140 0 112 135 187 357 198 172 9
217 -14 358 -181 28 -32 61 -71 75 -86 14 -15 41 -46 60 -70 19 -24 44 -53 55
-65 11 -11 44 -49 73 -83 52 -61 53 -62 38 -91 -10 -18 -26 -31 -43 -34 -16
-3 -59 -11 -96 -18 -38 -7 -92 -24 -120 -39 -133 -65 -122 -240 23 -380 102
-99 193 -126 283 -86 42 18 52 29 76 81 16 33 36 92 46 132 9 39 23 80 31 90
13 16 14 10 9 -52 -5 -87 -9 -104 -33 -157 -25 -55 -81 -112 -140 -142 -116
-59 -168 -157 -133 -248 16 -43 80 -107 135 -136 71 -36 167 -38 217 -3 57 39
78 87 104 236 19 111 33 171 51 213 18 45 210 231 239 233 49 3 80 -9 140 -57
22 -18 69 -45 105 -61 36 -16 73 -41 82 -55 24 -36 39 -155 42 -325 2 -92 -1
-109 -25 -160 -23 -51 -79 -123 -95 -123 -12 0 -84 -85 -99 -117 -38 -80 -22
-141 53 -201 144 -113 370 -133 469 -40 61 57 72 146 34 272 -11 38 -19 71
-17 74 3 2 15 -2 28 -9 12 -7 28 -14 33 -15 6 -2 24 -7 40 -12 29 -9 114 -8
169 2 74 13 139 93 139 171 0 29 -14 71 -48 141 -62 130 -66 145 -71 236 -3
87 -9 80 80 93 37 5 69 12 246 50 41 9 86 19 100 21 14 3 41 9 60 13 53 12
125 4 167 -18 46 -24 253 -225 286 -278 29 -46 36 -74 42 -178 12 -197 27
-310 48 -355 7 -13 28 -35 47 -48 31 -21 43 -23 100 -19 80 6 161 38 218 84
68 56 91 120 70 202 -12 46 -36 75 -142 166 -53 46 -105 117 -114 155 -13 56
-17 101 -11 141 9 57 5 99 -16 189 -21 90 -5 145 57 202 46 41 142 92 196 103
64 13 98 7 192 -35 143 -63 152 -67 190 -83 65 -26 96 -68 181 -241 92 -189
120 -220 190 -218 52 2 108 41 193 134 96 105 126 175 106 249 -23 85 -79 119
-204 125 -86 5 -147 26 -183 65 -21 23 -51 83 -59 121 -2 10 -6 27 -9 39 -2
11 -7 29 -10 39 -11 34 -14 63 -7 56 4 -4 7 -11 7 -14 2 -19 45 -99 62 -114
91 -82 325 28 408 191 69 136 61 274 -20 369 -53 61 -125 82 -229 67 -44 -6
-95 -9 -114 -6 l-33 6 87 125 c93 135 147 205 179 232 23 20 97 58 122 63 10
2 18 4 18 5 0 2 81 9 165 14 41 3 75 6 75 7 0 1 50 2 110 4 193 4 305 -43 373
-157 28 -48 107 -70 166 -47 81 32 162 174 170 302 7 98 -32 201 -89 240 -62
42 -117 36 -242 -24 -60 -28 -121 -53 -138 -54 -16 -2 -63 8 -103 21 -40 14
-87 27 -105 29 -39 5 -104 19 -189 40 -131 34 -170 88 -170 233 0 46 3 87 7
90 7 7 14 8 435 17 179 4 375 9 435 10 385 10 839 18 1080 20 225 1 286 4 313
17 l33 15 -36 31 c-26 23 -46 32 -73 32 -170 2 -1060 -7 -1397 -15 -838 -18
-804 -18 -804 2 1 17 -2 29 -17 93 -3 14 -7 86 -9 161 -5 181 9 238 83 321 31
34 51 34 164 1 43 -13 91 -19 133 -18 117 4 173 65 183 197 l5 68 66 -4 c84
-6 136 9 166 49 102 133 -18 424 -177 430 -52 1 -77 -8 -150 -59 l-58 -40 -40
23 c-98 55 -222 20 -298 -83 -26 -35 -42 -43 -110 -52 -79 -12 -109 -8 -159
22 -72 42 -213 188 -276 284 -89 137 -97 182 -63 335 16 70 110 265 127 265 5
0 9 6 9 14 0 24 147 166 192 185 42 18 78 32 88 36 66 22 169 94 192 133 47
78 26 170 -53 234 -68 55 -115 75 -196 85 -47 6 -112 -12 -130 -36 -7 -9 -26
-59 -44 -111 -32 -97 -55 -154 -74 -179 -34 -48 -119 -121 -166 -145 -29 -14
-80 -50 -111 -79 -89 -81 -163 -101 -318 -83 -73 8 -153 30 -157 42 -2 5 31
27 73 49 138 72 183 142 161 248 -18 88 -155 208 -266 232 -12 3 -31 7 -43 10
-44 11 -115 7 -150 -8 -20 -9 -45 -30 -58 -53 -22 -34 -24 -49 -25 -186 -1
-81 -4 -151 -8 -154 -7 -8 -62 27 -117 74 l-34 29 -4 164 c-4 238 -4 254 12
314 17 71 63 128 199 249 72 65 88 134 46 202 -25 42 -151 105 -299 150 -60
18 -98 18 -140 -4z m150 -113 c36 -12 98 -37 138 -55 98 -45 97 -63 -9 -141
-71 -53 -105 -93 -140 -168 -43 -91 -65 -189 -62 -270 9 -202 9 -255 3 -265
-10 -17 9 -89 35 -127 24 -36 80 -83 143 -120 23 -14 42 -27 42 -30 0 -27 -59
-88 -146 -150 -183 -131 -283 -193 -309 -193 -14 0 -59 17 -98 38 -104 56
-236 106 -362 137 -60 15 -132 39 -159 53 -54 30 -156 125 -156 146 0 8 -3 16
-7 18 -9 4 -75 129 -71 133 3 3 33 6 203 20 114 10 175 14 269 20 165 11 170
12 227 36 69 30 86 43 174 140 116 126 162 202 180 296 12 59 12 201 0 260
-22 112 -24 231 -5 243 16 10 27 8 110 -21z m-1678 -185 c18 -29 17 -92 0
-103 -101 -67 -115 -155 -44 -281 20 -36 43 -77 51 -92 7 -16 17 -28 22 -28 5
0 9 -5 9 -12 0 -6 24 -44 54 -83 115 -152 146 -269 112 -415 -6 -25 -54 -127
-68 -145 -4 -5 -26 -35 -48 -65 -56 -77 -142 -162 -230 -228 -41 -31 -103 -82
-138 -114 -166 -154 -376 -181 -596 -79 -59 28 -124 86 -128 114 0 7 -2 23 -3
37 -3 43 -36 143 -56 171 -10 15 -19 31 -19 36 0 4 4 3 8 -2 8 -12 104 -59
167 -82 22 -8 74 -16 116 -18 134 -7 235 33 354 140 17 15 52 46 79 69 26 22
58 49 70 59 11 10 44 37 71 60 156 129 209 213 218 345 2 29 0 55 -5 58 -4 3
-6 9 -4 13 3 4 1 23 -4 42 -8 33 -18 83 -26 142 -5 39 -39 114 -70 154 -14 18
-51 52 -82 75 -155 114 -164 151 -51 213 60 32 133 52 188 50 28 -2 39 -8 53
-31z m383 -176 c12 -12 4 -115 -11 -140 -3 -4 -7 -17 -10 -28 -2 -11 -6 -30
-9 -42 -14 -64 -28 -150 -29 -190 -1 -24 -16 -54 -16 -32 0 6 -20 32 -45 60
-24 27 -44 54 -45 61 0 6 -4 13 -9 15 -16 6 -111 160 -112 182 -1 11 -2 28 -3
36 0 8 1 29 4 45 5 26 11 31 45 35 56 7 233 6 240 -2z m2870 -379 c48 -22 105
-80 105 -105 0 -14 -24 -41 -66 -74 -21 -17 -58 -35 -144 -71 -89 -37 -166
-96 -235 -180 -22 -26 -125 -185 -125 -192 0 -3 -9 -24 -19 -48 -11 -24 -21
-48 -22 -54 -1 -5 -6 -21 -11 -35 -5 -14 -12 -34 -14 -45 -34 -170 -28 -228
42 -353 73 -132 214 -291 323 -363 60 -39 141 -62 197 -55 24 2 44 3 44 1 0
-3 -17 -16 -37 -29 -32 -21 -109 -41 -148 -38 -5 0 -64 3 -130 7 -66 3 -140 8
-165 10 -25 2 -88 6 -140 9 -133 7 -223 40 -330 119 -147 110 -290 259 -355
371 -37 65 -49 164 -30 261 4 17 8 46 11 65 10 72 54 211 76 238 6 7 18 10 27
6 32 -13 145 -44 185 -50 52 -9 170 -10 217 -2 51 8 178 71 219 108 19 17 66
49 105 72 134 80 213 186 265 358 12 41 27 81 33 88 13 16 63 9 122 -19z
m-1129 -33 c42 -9 100 -45 142 -87 68 -70 69 -118 3 -159 -22 -14 -41 -28 -41
-32 0 -5 -6 -8 -12 -8 -7 0 -49 -25 -92 -54 -71 -49 -82 -53 -105 -43 -46 19
-48 27 -45 194 2 186 0 168 19 186 13 14 77 16 131 3z m-1747 -214 c23 -21 41
-44 41 -50 0 -7 4 -12 9 -12 4 0 16 -21 26 -47 68 -178 210 -290 449 -353 139
-37 221 -68 332 -127 111 -58 156 -62 232 -16 31 19 59 39 60 44 2 5 10 9 18
9 8 0 23 9 33 19 11 11 30 25 43 32 43 22 218 150 244 177 14 15 32 39 40 55
16 30 31 34 58 14 15 -11 16 -15 2 -48 -19 -44 -64 -221 -70 -274 -16 -131
-18 -211 -6 -261 7 -30 17 -54 22 -54 4 0 8 -5 8 -11 0 -20 114 -174 185 -248
72 -76 185 -171 203 -171 6 0 12 -4 14 -8 5 -13 144 -92 162 -92 8 0 17 -4 20
-9 5 -8 53 -21 96 -27 8 -1 33 -5 56 -8 23 -4 68 -9 100 -11 32 -2 97 -8 144
-12 99 -8 304 -10 340 -2 77 16 164 79 230 167 22 29 38 36 140 63 106 28 115
29 127 14 10 -14 44 -112 47 -138 1 -4 -39 -24 -89 -43 -49 -20 -121 -57 -159
-83 -100 -66 -106 -69 -161 -75 -325 -32 -615 -277 -680 -575 -3 -11 -8 -31
-11 -43 -3 -13 -5 -115 -5 -228 1 -178 -3 -241 -22 -335 -3 -11 -8 -42 -11
-70 -15 -105 -18 -121 -33 -160 -9 -22 -33 -61 -55 -87 -49 -59 -66 -102 -62
-151 5 -58 28 -92 141 -206 123 -124 158 -161 167 -178 5 -10 -5 -43 -19 -60
-1 -2 -37 12 -81 31 -217 95 -479 128 -574 75 -45 -25 -84 -94 -95 -163 -9
-63 -55 -134 -139 -218 -69 -69 -98 -91 -177 -133 -11 -5 -19 -13 -19 -17 0
-5 -6 -8 -12 -8 -7 0 -26 -7 -41 -15 -46 -24 -125 -42 -213 -50 -29 -2 -91
-16 -140 -30 -48 -14 -106 -27 -128 -30 -23 -2 -67 -7 -99 -10 -115 -11 -134
-32 -221 -248 l-61 -151 -39 -8 c-22 -5 -46 -13 -53 -20 -20 -16 -22 -8 -14
39 15 81 7 125 -59 307 -102 281 -129 305 -355 312 -71 2 -141 6 -155 9 -69
17 -199 14 -270 -6 -131 -36 -201 -81 -330 -213 -50 -51 -60 -57 -72 -45 -7 8
-23 27 -36 41 l-23 26 25 50 c14 28 28 65 31 84 3 18 10 47 15 63 12 41 25
140 35 255 9 114 16 172 31 267 12 76 10 190 -4 253 -44 197 -184 402 -320
469 -31 16 -104 43 -162 61 -91 28 -173 63 -190 80 -3 3 -30 23 -60 44 -30 21
-101 75 -158 119 -81 64 -102 85 -102 105 0 14 2 23 6 20 8 -9 121 49 199 101
39 26 96 63 129 82 32 19 85 62 117 97 54 57 94 128 170 297 18 42 61 161 65
184 3 13 10 34 16 45 6 12 13 57 14 101 6 159 -65 286 -211 380 l-50 33 0 66
c0 36 3 66 7 66 4 0 28 -13 55 -30 53 -32 182 -78 247 -87 89 -13 196 -5 286
22 58 18 167 85 216 133 16 16 51 46 78 68 27 21 64 53 81 69 18 17 68 62 111
101 130 116 224 259 248 376 3 13 8 34 11 48 8 38 9 152 1 180 -19 65 -19 62
2 51 11 -6 38 -28 61 -49z m-1786 -11 c6 -6 11 -38 12 -73 3 -79 10 -101 48
-157 37 -54 162 -178 188 -186 11 -4 17 -11 14 -16 -4 -5 -13 -5 -23 0 -9 4
-27 7 -40 6 -15 -1 -39 13 -70 42 -97 89 -184 122 -315 118 -72 -2 -79 0 -87
19 -11 30 -3 64 27 115 59 102 201 177 246 132z m151 -584 c31 -41 89 -156
110 -220 28 -84 27 -171 -1 -154 -34 21 -179 27 -230 10 -98 -33 -143 86 -82
215 21 45 148 182 168 182 6 0 21 -15 35 -33z m296 -598 c101 -98 122 -220 65
-384 -28 -83 -122 -279 -167 -351 -28 -44 -109 -120 -145 -137 -13 -6 -23 -14
-23 -19 0 -4 -5 -8 -10 -8 -6 0 -45 -22 -88 -48 -103 -64 -172 -96 -181 -86
-4 5 -14 25 -22 44 -16 41 -22 49 -74 104 -53 56 -126 105 -225 152 -107 51
-170 67 -265 68 -98 1 -141 -13 -189 -61 -31 -31 -56 -25 -92 22 -62 81 -60
179 4 272 40 56 73 73 97 49 8 -8 15 -19 15 -25 0 -6 5 -11 10 -11 6 0 10 -7
10 -15 0 -23 36 -86 70 -121 60 -64 138 -79 255 -48 76 20 141 32 207 39 29 3
98 16 153 27 55 11 106 21 113 21 6 0 12 4 12 9 0 4 9 8 20 8 11 0 20 5 20 10
0 6 5 10 11 10 24 0 80 77 99 137 21 68 43 107 77 138 36 32 90 131 104 188 6
29 16 62 20 75 9 23 9 23 41 5 17 -10 52 -39 78 -64z m4962 70 c29 -13 78 -97
81 -139 1 -16 5 -30 8 -30 12 0 -4 -60 -21 -75 -21 -19 -102 -27 -141 -13 -26
9 -69 72 -69 102 0 10 -7 31 -16 48 -16 31 -16 32 7 49 13 10 32 25 42 33 9 9
17 13 17 10 0 -3 10 2 22 10 26 19 39 20 70 5z m-184 -431 c-8 -74 -37 -98
-115 -93 -32 2 -76 10 -97 18 l-39 13 29 21 c28 20 102 59 116 62 4 1 20 8 35
16 16 8 39 15 52 15 22 0 23 -3 19 -52z m-490 -145 c-3 -5 -10 -23 -17 -40 -7
-18 -16 -33 -20 -33 -4 0 -8 -6 -9 -12 -1 -7 -10 -44 -21 -83 -18 -68 -22
-217 -6 -285 3 -14 8 -58 12 -98 l6 -73 -84 6 c-46 3 -100 8 -119 10 -19 2
-71 7 -115 10 -44 3 -89 8 -100 10 -11 2 -31 4 -44 4 -23 1 -23 3 -17 66 7 77
23 126 61 192 36 60 154 179 220 222 93 60 267 131 253 104z m-5299 -563 c29
-10 56 -21 58 -24 2 -2 -43 -5 -101 -5 -58 -1 -106 1 -106 4 0 9 64 45 80 45
8 0 39 -9 69 -20z m391 -134 c0 -13 8 -33 18 -44 20 -22 219 -182 228 -182 3
0 11 -6 19 -12 25 -25 55 -48 61 -48 4 0 28 -16 54 -35 29 -21 86 -47 146 -66
177 -56 225 -80 282 -137 87 -87 147 -196 176 -319 13 -58 14 -193 2 -278 -10
-72 -15 -119 -21 -185 -16 -180 -13 -161 -41 -299 -9 -41 -21 -83 -28 -93 -12
-17 -16 -14 -51 27 -21 25 -50 59 -64 74 -14 16 -48 54 -76 86 -27 32 -63 73
-80 91 -16 18 -57 62 -89 99 -111 125 -180 154 -353 153 -60 -1 -119 -5 -133
-9 -14 -4 -38 -10 -55 -13 -82 -12 -203 -73 -244 -123 -31 -38 -45 -73 -56
-146 -7 -46 -34 -75 -66 -71 -13 1 -29 3 -34 3 -6 1 -31 20 -56 44 -62 59 -93
125 -97 213 -6 107 19 121 128 73 68 -31 142 -36 193 -13 144 63 370 252 416
349 40 85 54 269 38 498 -10 126 -58 186 -204 252 -43 20 -93 44 -111 53 -62
30 -180 22 -220 -15 -7 -7 -17 -13 -22 -13 -5 0 -15 -6 -22 -13 -36 -34 -104
-77 -124 -77 -12 0 -33 13 -46 29 -31 36 -55 118 -41 132 6 6 78 12 164 14
145 4 331 14 335 18 2 1 19 3 38 4 32 3 36 0 36 -21z m4550 -1 c14 -2 61 -6
105 -10 44 -4 89 -9 100 -11 11 -2 39 -5 63 -6 23 0 43 -6 44 -12 1 -6 2 -49
3 -96 3 -209 75 -289 303 -340 51 -11 110 -23 130 -26 20 -3 69 -16 107 -29
107 -36 167 -30 285 28 52 26 106 49 119 52 112 21 125 -240 16 -342 -43 -40
-56 -41 -78 -5 -22 36 -66 82 -102 108 -35 24 -126 60 -175 68 -19 3 -46 8
-60 11 -14 3 -81 6 -150 7 -113 0 -164 -3 -240 -17 -14 -3 -39 -7 -57 -10 -65
-10 -152 -43 -196 -73 -49 -34 -117 -119 -241 -304 -44 -65 -82 -118 -86 -118
-3 0 -26 24 -50 53 -25 28 -82 89 -127 134 -51 51 -83 91 -83 104 0 21 16 56
34 75 31 32 56 65 56 74 0 6 4 10 8 10 11 0 34 90 37 144 1 23 8 52 14 64 6
12 9 22 7 22 -3 0 -1 11 3 24 13 34 23 142 26 291 2 71 4 134 4 138 1 7 70 4
181 -8z m-545 -1260 c78 -13 104 -21 210 -69 107 -48 108 -50 110 -157 1 -52
5 -114 9 -139 26 -163 92 -327 153 -381 63 -55 127 -73 285 -78 41 -1 68 -36
58 -73 -13 -43 -53 -108 -92 -147 -44 -45 -104 -84 -117 -76 -6 3 -48 80 -93
171 -111 221 -127 237 -318 314 -30 13 -87 38 -127 56 -98 46 -146 48 -293 10
-47 -12 -133 -68 -187 -121 -47 -47 -65 -73 -76 -113 -17 -54 -15 -135 4 -204
10 -38 11 -76 5 -193 -6 -127 61 -239 227 -377 49 -41 60 -72 42 -115 -14 -32
-90 -74 -169 -94 -46 -11 -50 -11 -66 9 -17 21 -26 72 -35 217 -17 264 -15
246 -44 303 -11 23 -51 69 -87 104 -37 35 -99 94 -138 132 -146 142 -183 150
-437 102 -74 -14 -145 -27 -159 -30 -14 -2 -60 -12 -103 -21 -43 -9 -80 -15
-82 -13 -7 6 52 165 80 217 32 59 63 76 152 85 34 3 95 12 135 20 40 8 90 17
110 20 21 3 57 11 80 16 24 6 56 13 73 15 42 6 138 36 150 47 5 4 17 8 27 8
10 0 18 5 18 10 0 6 6 10 13 10 41 0 307 218 307 251 0 5 8 17 18 27 33 34 63
101 69 154 7 68 17 86 56 104 31 14 149 14 232 -1z m813 -20 c45 -27 66 -87
59 -164 -11 -109 -70 -186 -186 -242 -86 -42 -99 -35 -135 68 -45 133 -78 217
-92 240 -12 20 -12 28 1 60 9 21 22 43 29 48 8 6 73 10 153 9 117 0 144 -3
171 -19z m-3148 -430 c19 -3 88 -7 154 -10 65 -2 128 -7 140 -11 38 -11 77
-56 91 -104 1 -3 9 -22 18 -43 39 -90 80 -235 82 -292 1 -47 -6 -84 -36 -170
-22 -60 -39 -110 -40 -110 0 0 -2 -7 -4 -15 -1 -8 -10 -42 -18 -75 -9 -33 -18
-76 -21 -95 -3 -19 -8 -46 -11 -60 -16 -77 8 -240 57 -385 25 -72 6 -133 -48
-158 -41 -20 -149 -16 -194 8 -17 9 -30 13 -30 10 0 -3 -25 11 -55 31 -81 54
-78 71 33 181 121 121 150 188 146 333 -2 84 -14 252 -19 282 -3 12 -8 39 -11
58 -6 32 -32 78 -60 107 -7 7 -43 27 -81 45 -37 17 -86 46 -108 63 -109 85
-178 98 -260 50 -60 -34 -220 -194 -244 -242 -24 -49 -47 -115 -55 -158 -3
-16 -12 -70 -21 -120 -15 -90 -35 -140 -64 -161 -16 -13 -66 -12 -96 1 -45 20
-105 83 -105 110 0 30 48 78 125 125 91 55 119 82 144 140 47 109 65 287 36
356 -18 43 1 78 81 153 72 67 159 122 242 151 56 20 111 21 232 5z m-735 -222
c31 -35 31 -41 0 -94 -13 -25 -35 -86 -49 -138 -41 -151 -70 -178 -150 -140
-87 41 -162 133 -173 214 -7 51 31 71 217 115 65 15 90 26 104 45 11 14 21 25
23 25 2 0 15 -12 28 -27z m1408 -490 c15 -139 38 -219 88 -312 16 -30 29 -64
29 -76 0 -95 -187 -111 -270 -22 -32 33 -53 84 -46 110 3 13 18 50 33 83 15
32 28 61 28 64 4 21 85 179 99 193 27 27 33 21 39 -40z"/>
<path d="M4187 6024 c-2 -2 -30 -6 -63 -9 -32 -4 -70 -9 -84 -12 -14 -3 -32
-7 -40 -8 -123 -20 -205 -47 -264 -87 -47 -30 -129 -129 -147 -175 -4 -12 -29
-43 -55 -70 -26 -26 -61 -77 -78 -113 -29 -61 -31 -72 -31 -185 0 -86 -6 -140
-20 -191 l-19 -71 45 -78 c72 -127 147 -189 259 -214 24 -5 107 -7 184 -4 162
6 214 6 274 -2 52 -8 174 -52 184 -67 3 -6 9 -31 13 -54 3 -24 17 -70 30 -104
13 -33 25 -64 26 -68 4 -18 82 -210 103 -256 12 -24 12 -34 0 -63 -42 -99 -35
-239 16 -348 15 -33 38 -91 50 -130 12 -38 24 -77 27 -85 4 -8 7 -17 8 -20 20
-80 76 -185 122 -228 32 -31 39 -33 81 -29 26 3 67 10 92 16 25 6 55 12 67 15
64 14 161 87 198 150 25 43 58 136 48 136 -3 0 0 7 7 15 7 8 10 15 6 15 -3 0
3 9 15 21 28 28 46 74 53 139 12 103 17 112 88 155 67 41 96 71 103 104 2 11
-5 52 -15 93 -40 157 -44 311 -10 353 4 5 8 12 8 15 2 38 48 94 122 146 82 58
167 151 201 221 51 102 46 206 -7 162 -21 -17 -36 -21 -114 -24 -79 -3 -138
17 -194 66 -67 59 -246 360 -344 579 -42 94 -118 128 -230 103 -56 -13 -65
-13 -80 1 -51 45 -104 34 -138 -29 -17 -32 -23 -36 -54 -33 -19 1 -42 5 -50 9
-8 4 -46 20 -85 35 -55 22 -128 59 -152 79 -2 1 6 19 17 40 23 44 15 68 -27
83 -27 9 -138 14 -146 6z"/>
</g>
</svg>
