<svg xmlns="http://www.w3.org/2000/svg" viewBox="0 0 1280 720" width="1280" height="720">
	<style>
		tspan { white-space:pre }
	</style>
	<path id="404 " fill="#f9ff71" d="M417.98 413.8L417.98 517.51L361.38 517.51L361.38 617L224.27 617L224.27 517.51L19.3 517.51L19.3 415.55L233.05 103.02L361.38 103.02L361.38 413.8L417.98 413.8ZM139.54 413.8L224.27 413.8L224.27 354.03Q224.27 337.16 225.32 308.68Q226.73 279.85 227.43 278.45L223.56 278.45Q211.61 305.52 196.49 329.07L139.54 413.8ZM825.44 360.71Q825.44 497.12 779.73 560.75Q734.03 624.03 639.81 624.03Q547.7 624.03 500.95 557.94Q454.19 491.49 454.19 360.71Q454.19 223.6 499.89 159.62Q545.59 95.63 639.81 95.63Q731.57 95.63 778.33 162.43Q825.44 228.88 825.44 360.71ZM592.35 360.71Q592.35 447.9 603.25 480.59Q614.15 513.29 639.81 513.29Q665.83 513.29 676.38 479.54Q687.27 445.79 687.27 360.71Q687.27 275.28 676.38 241.18Q665.48 206.73 639.81 206.73Q614.15 206.73 603.25 239.77Q592.35 272.82 592.35 360.71ZM1261.73 413.8L1261.73 517.51L1205.13 517.51L1205.13 617L1068.02 617L1068.02 517.51L863.05 517.51L863.05 415.55L1076.8 103.02L1205.13 103.02L1205.13 413.8L1261.73 413.8ZM983.29 413.8L1068.02 413.8L1068.02 354.03Q1068.02 337.16 1069.07 308.68Q1070.48 279.85 1071.18 278.45L1067.31 278.45Q1055.36 305.52 1040.24 329.07L983.29 413.8Z" />
</svg>