<svg xmlns="http://www.w3.org/2000/svg" viewBox="0 0 1280 551" width="1280" height="551">
	<style>
		tspan { white-space:pre }
		.shp0 { fill: #f9ff71 } 
	</style>
	<path id="404 " fill-rule="evenodd" class="shp0" d="M412.76 331.59L412.76 438.36L354.87 438.36L354.87 540.79L214.64 540.79L214.64 438.36L5 438.36L5 333.39L223.62 11.62L354.87 11.62L354.87 331.59L412.76 331.59ZM127.98 331.59L214.64 331.59L214.64 270.05C214.64 258.47 215 242.91 215.71 223.36C216.67 203.57 217.39 193.2 217.87 192.24L213.91 192.24C205.76 210.82 196.54 228.19 186.23 244.35L127.98 331.59ZM829.5 276.93C829.5 370.56 813.92 439.21 782.75 482.88C751.59 526.31 703.89 548.03 639.64 548.03C576.84 548.03 529.5 525.35 497.62 479.99C465.74 434.38 449.8 366.69 449.8 276.93C449.8 182.82 465.38 113.81 496.54 69.89C527.7 25.97 575.4 4.01 639.64 4.01C702.21 4.01 749.44 26.94 781.32 72.79C813.44 118.4 829.5 186.44 829.5 276.93ZM591.1 276.93C591.1 336.77 594.82 377.91 602.25 400.35C609.68 422.79 622.15 434.02 639.64 434.02C657.39 434.02 669.85 422.43 677.05 399.27C684.47 376.1 688.18 335.32 688.18 276.93C688.18 218.29 684.47 177.27 677.05 153.86C669.61 130.22 657.15 118.4 639.64 118.4C622.15 118.4 609.68 129.74 602.25 152.41C594.82 175.1 591.1 216.6 591.1 276.93ZM1275.73 331.59L1275.73 438.36L1217.84 438.36L1217.84 540.79L1077.61 540.79L1077.61 438.36L867.97 438.36L867.97 333.39L1086.59 11.62L1217.84 11.62L1217.84 331.59L1275.73 331.59ZM990.95 331.59L1077.61 331.59L1077.61 270.05C1077.61 258.47 1077.97 242.91 1078.68 223.36C1079.64 203.57 1080.36 193.2 1080.84 192.24L1076.88 192.24C1068.73 210.82 1059.5 228.19 1049.19 244.35L990.95 331.59Z" />
</svg>