<svg xmlns="http://www.w3.org/2000/svg" width="34.017" height="34.057" viewBox="0 0 34.017 34.057"><defs><style>.a{fill:#170f49;}</style></defs><g transform="translate(-7.2 -7.1)"><g transform="translate(7.2 32.98)"><g transform="translate(0)"><path class="a" d="M37.672,73.3v3.691H11.831V73.3H8.1v7.343H41.323V73.3Z" transform="translate(-7.743 -72.903)"/><path class="a" d="M36.732,72.7v3.691l.4-.4H11.288l.4.4V72.7a.427.427,0,0,0-.4-.4H7.6a.427.427,0,0,0-.4.4V80.08a.427.427,0,0,0,.4.4H40.82a.427.427,0,0,0,.4-.4V72.7a.427.427,0,0,0-.4-.4H37.129a.4.4,0,0,0,0,.794H40.82l-.4-.4V80.08l.4-.4H7.6l.4.4V72.7l-.4.4h3.691l-.4-.4v3.691a.427.427,0,0,0,.4.4h25.84a.427.427,0,0,0,.4-.4V72.7A.4.4,0,0,0,36.732,72.7Z" transform="translate(-7.2 -72.3)"/></g></g><g transform="translate(14.54 7.1)"><path class="a" d="M26.8,21.794l4.763,1.072L31.722,8.1H40.3l.159,14.766,4.8-1.072L36.009,33.98Z" transform="translate(-26.36 -7.703)"/><g transform="translate(0 0)"><path class="a" d="M26.012,21.548c1.588.357,3.215.754,4.8,1.111a.43.43,0,0,0,.516-.4c0-4.882.04-9.844.119-14.766l-.4.4h8.613l-.4-.4c.04,4.922.079,9.884.119,14.766a.414.414,0,0,0,.516.4c1.588-.357,3.215-.754,4.8-1.111a5.68,5.68,0,0,1-.437-.6c-3.1,4.049-6.152,8.137-9.249,12.186H35.7C32.6,29.09,29.545,25,26.449,20.953c-.318-.4-.992,0-.675.4,3.056,4.049,6.152,8.137,9.209,12.186a.408.408,0,0,0,.675,0c3.1-4.049,6.152-8.137,9.249-12.186.238-.278-.159-.635-.437-.6-1.588.357-3.215.754-4.8,1.111.159.119.318.238.516.4-.04-4.882-.079-9.844-.159-14.766a.427.427,0,0,0-.4-.4H31.014a.427.427,0,0,0-.4.4c-.04,4.922-.079,9.884-.119,14.766.159-.119.318-.238.516-.4-1.588-.357-3.215-.754-4.8-1.111C25.734,20.675,25.5,21.429,26.012,21.548Z" transform="translate(-25.691 -7.1)"/></g></g></g></svg>