<svg xmlns="http://www.w3.org/2000/svg" width="33.732" height="33.724" viewBox="0 0 33.732 33.724"><defs><style>.a{fill:#170f49;}</style></defs><path class="a" d="M16.864,10.453A8.646,8.646,0,1,0,25.511,19.1,8.633,8.633,0,0,0,16.864,10.453Zm0,14.268A5.621,5.621,0,1,1,22.486,19.1a5.632,5.632,0,0,1-5.621,5.621ZM27.881,10.1a2.017,2.017,0,1,1-2.017-2.017A2.012,2.012,0,0,1,27.881,10.1Zm5.727,2.047A9.98,9.98,0,0,0,30.884,5.08a10.046,10.046,0,0,0-7.066-2.724C21.033,2.2,12.688,2.2,9.9,2.356A10.032,10.032,0,0,0,2.837,5.073C.858,7.044.249,9.437.113,12.139c-.158,2.784-.158,11.13,0,13.914a9.98,9.98,0,0,0,2.724,7.066A10.059,10.059,0,0,0,9.9,35.843c2.784.158,11.13.158,13.914,0a9.98,9.98,0,0,0,7.066-2.724,10.046,10.046,0,0,0,2.724-7.066c.158-2.784.158-11.122,0-13.907Zm-3.6,16.894a5.691,5.691,0,0,1-3.206,3.206c-2.22.88-7.488.677-9.941.677s-7.728.2-9.941-.677a5.691,5.691,0,0,1-3.206-3.206c-.88-2.22-.677-7.488-.677-9.941s-.2-7.728.677-9.941A5.691,5.691,0,0,1,6.924,5.953c2.22-.88,7.488-.677,9.941-.677s7.728-.2,9.941.677a5.691,5.691,0,0,1,3.206,3.206c.88,2.22.677,7.488.677,9.941S30.891,26.828,30.011,29.041Z" transform="translate(0.005 -2.238)"/></svg>