<svg xmlns="http://www.w3.org/2000/svg" width="24.607" height="24" viewBox="0 0 24.607 24"><defs><style>.a{fill:#fff;fill-rule:evenodd;}</style></defs><path class="a" d="M2154.25,220.27a12.3,12.3,0,0,0-3.891,23.976c.615.108.846-.261.846-.584,0-.292-.015-1.261-.015-2.291-3.091.569-3.891-.754-4.137-1.446a4.47,4.47,0,0,0-1.261-1.738c-.43-.231-1.046-.8-.015-.815a2.462,2.462,0,0,1,1.892,1.261,2.63,2.63,0,0,0,3.583,1.015,2.589,2.589,0,0,1,.784-1.646c-2.737-.308-5.6-1.369-5.6-6.075a4.788,4.788,0,0,1,1.261-3.307,4.422,4.422,0,0,1,.123-3.261s1.03-.323,3.383,1.261a11.6,11.6,0,0,1,6.152,0c2.353-1.6,3.383-1.261,3.383-1.261a4.421,4.421,0,0,1,.123,3.261,4.76,4.76,0,0,1,1.261,3.307c0,4.721-2.876,5.767-5.614,6.075a2.914,2.914,0,0,1,.83,2.276c0,1.646-.015,2.968-.015,3.383,0,.323.231.708.846.584a12.31,12.31,0,0,0-3.922-23.976Z" transform="translate(-2141.947 -220.27)"/></svg>