<svg xmlns="http://www.w3.org/2000/svg" width="60" height="60" viewBox="0 0 60 60"><defs><style>.a,.b{fill:none;}.b{stroke:#170f49;stroke-width:2px;}.c{fill:#170f49;}</style></defs><g transform="translate(0 0)"><circle class="a" cx="30" cy="30" r="30"/><circle class="b" cx="29" cy="29" r="29" transform="translate(1 1)"/><g transform="translate(12.457 15.55)"><path class="b" d="M161.31,830.2c0-6.144-7.854-11.125-17.543-11.125s-17.543,4.981-17.543,11.125c0,6.041,7.6,10.946,17.062,11.109l7.16,6.666-.137-7.457C156.755,838.875,161.31,834.879,161.31,830.2Z" transform="translate(-126.224 -819.078)"/><g transform="translate(8.758 10.003)"><path class="c" d="M136.743,831.859h-.587a1.409,1.409,0,0,1,0-2.778h.587a1.408,1.408,0,0,1,0,2.778Z" transform="translate(-134.982 -829.081)"/><g transform="translate(6.859)"><path class="c" d="M143.626,831.859h-.61a1.408,1.408,0,0,1,0-2.778h.61a1.409,1.409,0,0,1,0,2.778Z" transform="translate(-141.841 -829.081)"/></g><g transform="translate(13.742)"><path class="c" d="M150.485,831.859H149.9a1.409,1.409,0,0,1,0-2.778h.587a1.408,1.408,0,0,1,0,2.778Z" transform="translate(-148.724 -829.081)"/></g></g></g></g></svg>