<svg xmlns="http://www.w3.org/2000/svg" width="60" height="60" viewBox="0 0 60 60"><defs><style>.a,.c{fill:#fff;}.b{fill:none;}.b,.c{stroke:#170f49;stroke-width:2px;}</style></defs><g transform="translate(-113.767 -476.839)"><circle class="a" cx="30" cy="30" r="30" transform="translate(113.767 476.839)"/><circle class="b" cx="29" cy="29" r="29" transform="translate(114.767 477.839)"/><path class="b" d="M124.117,513.074l4.037,4.036H159.63a3.787,3.787,0,0,0,3.787-3.787v-5.276l-4.906-8.862a3.787,3.787,0,0,0-3.313-1.953H127.9a3.787,3.787,0,0,0-3.787,3.787Z"/><path class="b" d="M124.117,505.965h32.394l4.062,4.062h2.843"/><path class="b" d="M159.086,500.224h4.33v3.3"/><line class="b" y2="8.733" transform="translate(131.124 497.232)"/><line class="b" y2="8.733" transform="translate(143.07 497.232)"/><line class="b" y2="8.733" transform="translate(155.016 497.232)"/><circle class="c" cx="3.808" cy="3.808" r="3.808" transform="translate(131.124 513.362)"/><circle class="c" cx="3.808" cy="3.808" r="3.808" transform="translate(149.814 513.362)"/></g></svg>