<svg xmlns="http://www.w3.org/2000/svg" width="93" height="93" viewBox="0 0 93 93"><defs><style>.a{fill:#fff;}</style></defs><g transform="translate(-140.447 -984.964)"><path class="a" d="M186.947,1077.964a46.5,46.5,0,1,1,46.5-46.5A46.552,46.552,0,0,1,186.947,1077.964Zm0-89a42.5,42.5,0,1,0,42.5,42.5A42.548,42.548,0,0,0,186.947,988.964Z"/></g><g transform="translate(-140.447 -984.964)"><rect class="a" width="4" height="14.169" transform="translate(163.447 1014.966)"/></g><g transform="translate(-140.447 -984.964)"><path class="a" d="M178.555,1028.736a6.787,6.787,0,1,1,6.787-6.787A6.8,6.8,0,0,1,178.555,1028.736Zm0-9.574a2.787,2.787,0,1,0,2.787,2.787A2.79,2.79,0,0,0,178.555,1019.162Z"/></g><g transform="translate(-140.447 -984.964)"><rect class="a" width="4" height="14.169" transform="translate(190.02 1014.966)"/></g><g transform="translate(-140.447 -984.964)"><path class="a" d="M204.128,1028.736a6.787,6.787,0,1,1,6.787-6.787A6.8,6.8,0,0,1,204.128,1028.736Zm0-9.574a2.787,2.787,0,1,0,2.787,2.787A2.79,2.79,0,0,0,204.128,1019.162Z"/></g><g transform="translate(-140.447 -984.964)"><rect class="a" width="4" height="7.168" transform="translate(163.447 1003.965)"/><path class="a" d="M178.553,1010.734a6.794,6.794,0,0,1-6.786-6.787h4a2.786,2.786,0,1,0,5.573,0h4A6.8,6.8,0,0,1,178.553,1010.734Z"/><rect class="a" width="4" height="13.169" transform="translate(190.02 997.964)"/><path class="a" d="M204.127,1010.734a6.794,6.794,0,0,1-6.786-6.787h4a2.786,2.786,0,1,0,5.573,0h4A6.8,6.8,0,0,1,204.127,1010.734Z"/></g><g transform="translate(-140.447 -984.964)"><rect class="a" width="4" height="7.168" transform="translate(206.914 1052.116)"/><path class="a" d="M202.593,1059.3h-4a2.786,2.786,0,1,0-5.573,0h-4a6.786,6.786,0,1,1,13.573,0Z"/><rect class="a" width="4" height="13.169" transform="translate(180.34 1052.116)"/><path class="a" d="M177.02,1059.3h-4a2.786,2.786,0,1,0-5.573,0h-4a6.786,6.786,0,1,1,13.573,0Z"/></g><g transform="translate(-140.447 -984.964)"><rect class="a" width="4" height="14.169" transform="translate(163.447 1032.967)"/></g><g transform="translate(-140.447 -984.964)"><path class="a" d="M178.555,1046.738a6.787,6.787,0,1,1,6.787-6.787A6.8,6.8,0,0,1,178.555,1046.738Zm0-9.574a2.787,2.787,0,1,0,2.787,2.787A2.79,2.79,0,0,0,178.555,1037.164Z"/></g><g transform="translate(-140.447 -984.964)"><rect class="a" width="4" height="14.169" transform="translate(206.914 1032.967)"/></g><g transform="translate(-140.447 -984.964)"><path class="a" d="M196.807,1046.941a6.787,6.787,0,1,1,6.787-6.787A6.8,6.8,0,0,1,196.807,1046.941Zm0-9.574a2.787,2.787,0,1,0,2.787,2.787A2.79,2.79,0,0,0,196.807,1037.367Z"/></g></svg>