<svg xmlns="http://www.w3.org/2000/svg" width="60" height="60" viewBox="0 0 60 60"><defs><style>.a{fill:#fff;}.b{fill:none;stroke:#170f49;stroke-width:2px;}</style></defs><g transform="translate(-113.767 -152.617)"><circle class="a" cx="30" cy="30" r="30" transform="translate(113.767 152.617)"/><circle class="b" cx="29" cy="29" r="29" transform="translate(114.767 153.617)"/><path class="b" d="M143.772,200.4a1.933,1.933,0,0,1-1.816-1.351,2.06,2.06,0,0,1,.231-1.611c.035-.068.071-.135.108-.2a3.343,3.343,0,0,0,.454-1.181,3.854,3.854,0,0,0-2.322-4.172l-.234-.1a5.533,5.533,0,0,0-1.576-.5,4.176,4.176,0,0,0-.444-.025,3.787,3.787,0,0,0-2.046.6,3.254,3.254,0,0,0-1.534,1.749c-.037.111-.071.225-.1.338-.058.195-.118.4-.2.59a1.81,1.81,0,0,1-1.713,1.206h-.054a1.879,1.879,0,0,1-.727-3.608,3.125,3.125,0,0,1,.611-.218,3.359,3.359,0,0,0,2.232-1.762,3.586,3.586,0,0,0,.262-3.287,6.9,6.9,0,0,0-1.018-1.923,4.033,4.033,0,0,0-3.022-1.337,2.968,2.968,0,0,0-1.084.189,5.2,5.2,0,0,0-.55.272c-.1.054-.2.111-.309.163a2.409,2.409,0,0,1-1.07.277,1.794,1.794,0,0,1-1.218-.478,1.9,1.9,0,0,1-.38-2.34,1.858,1.858,0,0,1,1.612-.947,1.816,1.816,0,0,1,.551.085,3.387,3.387,0,0,1,.721.312,3.431,3.431,0,0,0,1.763.516,4.12,4.12,0,0,0,2.226-.738,3.4,3.4,0,0,0,1.3-1.6c.035-.082.069-.163.1-.244a5.99,5.99,0,0,0,.568-1.893,3.934,3.934,0,0,0-2.03-3.63,2.644,2.644,0,0,0-.511-.173c-.089-.023-.18-.048-.269-.076a2.4,2.4,0,0,1-1.116-.616,1.807,1.807,0,0,1-.384-1.98,1.771,1.771,0,0,1,1.627-1.191c.051,0,.1,0,.151,0a1.761,1.761,0,0,1,1.624,1,2.666,2.666,0,0,1,.279.716,3.336,3.336,0,0,0,1.845,2.287,3.7,3.7,0,0,0,1.777.471,3.98,3.98,0,0,0,1.46-.293l.141-.056a5.515,5.515,0,0,0,1.933-1.077,3.893,3.893,0,0,0,.866-4.188c-.047-.1-.1-.193-.145-.289a5.248,5.248,0,0,1-.389-.892,1.837,1.837,0,0,1,1.221-2.243,1.8,1.8,0,0,1,.578-.1,1.916,1.916,0,0,1,1.736,1.131,2.279,2.279,0,0,1-.258,2.057,3.972,3.972,0,0,0-.439,1.143,3.826,3.826,0,0,0,2.31,4.047l.112.047c.42.175.854.356,1.292.493a4.051,4.051,0,0,0,.674.129c.084.011.162.021.233.033a3.786,3.786,0,0,0,3.345-1.9,3.55,3.55,0,0,0,.284-.751c.044-.146.089-.3.143-.443a1.841,1.841,0,0,1,1.565-1.308,1.882,1.882,0,0,1,.881,3.637c-.162.064-.33.115-.493.164s-.318.1-.471.155a3.358,3.358,0,0,0-2.051,2.6,3.552,3.552,0,0,0,.236,2.243c.046.111.09.222.135.333a4.815,4.815,0,0,0,1.18,1.96,3.716,3.716,0,0,0,2.462,1.028,3.6,3.6,0,0,0,1.005-.149,3.3,3.3,0,0,0,.646-.3c.083-.046.166-.092.25-.135a2.507,2.507,0,0,1,1.141-.317,1.8,1.8,0,0,1,.885.237,1.889,1.889,0,0,1-.89,3.539,2.2,2.2,0,0,1-1.264-.4,2.926,2.926,0,0,0-1.685-.51,3.816,3.816,0,0,0-3.448,2.328l-.066.161a10.339,10.339,0,0,0-.6,1.758,3.6,3.6,0,0,0,1.867,3.838,5.171,5.171,0,0,0,.659.238c.2.061.4.124.59.206a1.77,1.77,0,0,1,1.149,1.7,1.813,1.813,0,0,1-1.1,1.739,1.767,1.767,0,0,1-.781.179,1.843,1.843,0,0,1-1.632-.979,3.3,3.3,0,0,1-.316-.82,3.046,3.046,0,0,0-1.377-1.933,3.8,3.8,0,0,0-2.131-.689,4.015,4.015,0,0,0-1.485.3l-.165.065a9.672,9.672,0,0,0-1.167.521,3.777,3.777,0,0,0-1.879,2.624,3.072,3.072,0,0,0,.357,2.326,2.655,2.655,0,0,1,.454,1.358,1.885,1.885,0,0,1-1.877,1.877Z"/><circle class="b" cx="4.966" cy="4.966" r="4.966" transform="translate(138.801 177.651)"/></g></svg>