<svg xmlns="http://www.w3.org/2000/svg" width="27.087" height="22" viewBox="0 0 27.087 22"><defs><style>.a{fill:#fff;}</style></defs><path class="a" d="M24.3,8.864c.017.241.017.481.017.722a15.687,15.687,0,0,1-15.8,15.8A15.688,15.688,0,0,1,0,22.889a11.484,11.484,0,0,0,1.341.069,11.118,11.118,0,0,0,6.892-2.372,5.561,5.561,0,0,1-5.191-3.85,7,7,0,0,0,1.048.086,5.872,5.872,0,0,0,1.461-.189A5.552,5.552,0,0,1,1.1,11.184v-.069a5.591,5.591,0,0,0,2.509.7A5.56,5.56,0,0,1,1.891,4.395,15.78,15.78,0,0,0,13.337,10.2,6.267,6.267,0,0,1,13.2,8.932a5.557,5.557,0,0,1,9.608-3.8,10.93,10.93,0,0,0,3.523-1.341,5.537,5.537,0,0,1-2.441,3.059,11.129,11.129,0,0,0,3.2-.859A11.934,11.934,0,0,1,24.3,8.864Z" transform="translate(0 -3.381)"/></svg>