<svg xmlns="http://www.w3.org/2000/svg" width="41.523" height="33.724" viewBox="0 0 41.523 33.724"><defs><style>.a{fill:#170f49;}</style></defs><path class="a" d="M37.255,11.785c.026.369.026.738.026,1.107,0,11.25-8.563,24.213-24.213,24.213A24.049,24.049,0,0,1,0,33.285a17.605,17.605,0,0,0,2.055.105A17.043,17.043,0,0,0,12.62,29.754a8.525,8.525,0,0,1-7.957-5.9,10.732,10.732,0,0,0,1.607.132,9,9,0,0,0,2.239-.29,8.511,8.511,0,0,1-6.824-8.352v-.105a8.571,8.571,0,0,0,3.847,1.08A8.523,8.523,0,0,1,2.9,4.935,24.19,24.19,0,0,0,20.445,13.84a9.607,9.607,0,0,1-.211-1.95A8.518,8.518,0,0,1,34.962,6.068a16.755,16.755,0,0,0,5.4-2.055A8.487,8.487,0,0,1,36.622,8.7a17.06,17.06,0,0,0,4.9-1.317,18.293,18.293,0,0,1-4.268,4.4Z" transform="translate(0 -3.381)"/></svg>