<svg xmlns="http://www.w3.org/2000/svg" width="22.5" height="22.5" viewBox="0 0 22.5 22.5"><defs><style>.a{fill:#fff;}</style></defs><g transform="translate(-3 -3.2)"><path class="a" d="M43.875,12.418l-1.3,1.3A1.424,1.424,0,0,1,40.561,11.7l1.3-1.3a2.556,2.556,0,0,0,0-3.61,2.613,2.613,0,0,0-3.609,0l-5.316,5.316a2.552,2.552,0,0,0,0,3.611,1.424,1.424,0,1,1-2.014,2.014,5.4,5.4,0,0,1,0-7.64L36.238,4.78a5.4,5.4,0,0,1,7.637,7.639Z" transform="translate(-19.954)"/><path class="a" d="M15.517,34.764a1.423,1.423,0,0,0,0,2.014,2.553,2.553,0,0,1,0,3.61L10.2,45.7a2.553,2.553,0,1,1-3.61-3.61l1.3-1.3A1.425,1.425,0,1,0,5.88,38.778l-1.3,1.3a5.4,5.4,0,0,0,7.638,7.637L17.531,42.4a5.4,5.4,0,0,0,0-7.639A1.425,1.425,0,0,0,15.517,34.764Z" transform="translate(0 -23.595)"/></g></svg>