<svg xmlns="http://www.w3.org/2000/svg" width="93" height="93" viewBox="0 0 93 93"><defs><style>.a{fill:#fff;}</style></defs><g transform="translate(0 -984.964)"><path class="a" d="M46.5,1077.964a46.5,46.5,0,1,1,46.5-46.5A46.553,46.553,0,0,1,46.5,1077.964Zm0-89a42.5,42.5,0,1,0,42.5,42.5A42.549,42.549,0,0,0,46.5,988.964Z"/><path class="a" d="M53.074,1003.964H35.661V1046.9h32.2v-28.29Zm8.253,14.169H53.074v-8.11Zm-21.372,24.473v-34.348h8.826v14.168H63.569v20.18Z"/></g><g transform="translate(0 -984.964)"><path class="a" d="M52.909,1050.6v5.772H29.3v-34.348h4.787v-4.294H25v42.935H57.2V1050.6Z"/></g></svg>