<svg xmlns="http://www.w3.org/2000/svg" width="60" height="60" viewBox="0 0 60 60"><defs><style>.a{fill:#fff;}.b{fill:none;stroke:#170f49;stroke-width:2px;}.c{fill:#170f49;}</style></defs><g transform="translate(-113.767 -633.949)"><circle class="a" cx="30" cy="30" r="30" transform="translate(113.767 633.949)"/><circle class="b" cx="29" cy="29" r="29" transform="translate(114.767 634.949)"/><path class="b" d="M157.926,649.92h2.636a2.548,2.548,0,0,1,2.548,2.548V676.35a2.548,2.548,0,0,1-2.548,2.548H126.971a2.547,2.547,0,0,1-2.547-2.548V652.468a2.547,2.547,0,0,1,2.547-2.548h18.612"/><path class="b" d="M137.867,684.416V678.9h11.8v5.518"/><path class="b" d="M129.271,662.109l4.49-4.6,4.131,2.3,4.31-4.937,4.311,2.085,7.541-12.005"/><path class="c" d="M156.775,652.923l-1.573.3-1.474-7.75-7.623,2.037-.412-1.547,9.284-2.479Z"/><line class="b" x2="31.816" transform="translate(127.859 671.591)"/><rect class="b" width="5.021" height="3.46" transform="translate(132.409 668.081)"/><rect class="b" width="5.021" height="5.158" transform="translate(141.256 666.382)"/><rect class="b" width="5.021" height="10.254" transform="translate(150.103 661.286)"/></g></svg>