<svg xmlns="http://www.w3.org/2000/svg" width="33.725" height="33.724" viewBox="0 0 33.725 33.724"><defs><style>.a{fill:#170f49;}</style></defs><path class="a" d="M7.549,33.725H.557V11.209H7.549ZM4.049,8.138A4.068,4.068,0,1,1,8.1,4.05,4.083,4.083,0,0,1,4.049,8.138ZM33.717,33.725H26.741V22.764c0-2.612-.053-5.962-3.635-5.962-3.635,0-4.192,2.838-4.192,5.774V33.725H11.929V11.209h6.706V14.28h.1a7.347,7.347,0,0,1,6.615-3.636c7.076,0,8.377,4.66,8.377,10.712V33.725Z" transform="translate(0 -0.001)"/></svg>