<svg xmlns="http://www.w3.org/2000/svg" width="60" height="60" viewBox="0 0 60 60"><defs><style>.a,.c{fill:#fff;}.b{fill:none;}.b,.c{stroke:#170f49;stroke-width:2px;}</style></defs><g transform="translate(-113.764 -385.186)"><circle class="a" cx="30" cy="30" r="30" transform="translate(113.764 385.186)"/><circle class="b" cx="29" cy="29" r="29" transform="translate(114.764 386.186)"/><line class="b" x1="50.257" transform="translate(118.635 430.342)"/><path class="b" d="M164.979,430.342c-6.981-7.863-4.546-20.266-4.546-20.266H147.121s2.435,12.4-4.545,20.266Z"/><path class="c" d="M149.2,430.342c-8.305-11.153-5.408-28.745-5.408-28.745H127.956s2.9,17.592-5.407,28.745Z"/><path class="b" d="M156.069,407.461c0-1.259,1.117-1.259,1.117-2.518s-1.117-1.259-1.117-2.518,1.117-1.26,1.117-2.519-1.117-1.262-1.117-2.523,1.117-1.262,1.117-2.524"/><path class="b" d="M151.267,407.461c0-1.259,1.117-1.259,1.117-2.518s-1.117-1.259-1.117-2.518,1.117-1.26,1.117-2.519"/></g></svg>