<svg xmlns="http://www.w3.org/2000/svg" width="33.254" height="33.254" viewBox="0 0 33.254 33.254"><defs><style>.a{fill:#170f49;}</style></defs><g transform="translate(-3 -3.2)"><path class="a" d="M50.822,16.824,48.9,18.743a2.1,2.1,0,1,1-2.977-2.976l1.92-1.921a3.778,3.778,0,0,0,0-5.335,3.862,3.862,0,0,0-5.333,0l-7.857,7.856a3.772,3.772,0,0,0,0,5.336,2.1,2.1,0,1,1-2.976,2.976,7.981,7.981,0,0,1,0-11.291l7.855-7.855A7.982,7.982,0,0,1,50.822,16.824Z" transform="translate(-16.901)"/><path class="a" d="M21.5,34.963a2.1,2.1,0,0,0,0,2.977,3.773,3.773,0,0,1,0,5.335l-7.854,7.856A3.773,3.773,0,1,1,8.311,45.8l1.922-1.921A2.106,2.106,0,1,0,7.256,40.9L5.332,42.82A7.982,7.982,0,0,0,16.621,54.106l7.855-7.854a7.981,7.981,0,0,0,0-11.29A2.105,2.105,0,0,0,21.5,34.963Z" transform="translate(0 -19.985)"/></g></svg>