<svg xmlns="http://www.w3.org/2000/svg" width="518.583" height="459.245" viewBox="0 0 518.583 459.245"><defs><style>.a,.b{fill:#0050ff;}.a{opacity:0.246;}</style></defs><g transform="translate(0)"><g transform="translate(390.358)"><ellipse class="a" cx="64.112" cy="64.112" rx="64.112" ry="64.112"/></g><g transform="translate(357.62 395.587)"><ellipse class="a" cx="32.284" cy="31.829" rx="32.284" ry="31.829" transform="translate(0)"/></g><g transform="translate(422.187 329.201)"><ellipse class="a" cx="15.914" cy="15.914" rx="15.914" ry="15.914" transform="translate(0)"/></g><g transform="translate(4.888 112.765)"><ellipse class="a" cx="15.914" cy="15.914" rx="15.914" ry="15.914" transform="translate(0)"/></g><g transform="translate(0 297.372)"><ellipse class="a" cx="15.914" cy="15.914" rx="15.914" ry="15.914" transform="translate(0)"/></g><g transform="translate(36.717 22.735)"><ellipse class="a" cx="32.284" cy="31.829" rx="32.284" ry="31.829" transform="translate(0)"/></g></g><g transform="translate(53.015 67.784)"><g transform="translate(0 0)"><path class="b" d="M3553.065,1714.282c-1.153,6.041-2.248,11.781-3.354,17.578.127.039.41.214.5.142,7.922-6.056,16.409,2.126,16.83,9.232.182,3.074-.744,6.213-1.246,9.912l5.452,1.951c.443-.185.708-.27.949-.4,4.825-2.615,8.537-2.437,11.527.559,3.076,3.083,3.668,9.37,1.259,13.3a7.9,7.9,0,0,1-7.788,3.984c-3.754-.314-7.15-1.761-9.025-5.272a5.012,5.012,0,0,0-3.444-2.681c-8.2-2.244-16.379-4.541-24.882-6.255.64.537,1.245,1.126,1.929,1.6,5.273,3.682,10.466,7.49,15.868,10.973,7.4,4.768,14.933,9.316,22.471,13.856a5.318,5.318,0,0,0,3.124.441c9.792-1.1,13.331,8.771,10.748,14.805-2.314,5.406-7.705,7.375-12.764,4.365a11.8,11.8,0,0,1-6.2-9.873c-15.421-7.5-30.911-14.527-47.772-19.631l-9.974,8.943c6.742,9.635,13.392,19.119,20.008,28.624a3.978,3.978,0,0,0,3.056,1.8,8.019,8.019,0,0,1,7.192,6.637c.763,3.368-1.535,8.423-4.468,10.252-4.809,3-12.264-1.009-12.194-6.92a7.458,7.458,0,0,0-2.5-5.805c-5.379-5.454-10.811-10.855-16.223-16.276l-.943.706c2.16,4.02,4.27,8.067,6.529,12.03.35.613,1.377.842,2.092,1.245a8.542,8.542,0,0,1,4.208,5.985,8.025,8.025,0,0,1-3.276,7.689,5.674,5.674,0,0,1-6.692-.088,7.837,7.837,0,0,1-3.858-7.419,14.459,14.459,0,0,1,.885-2.937l-18.29-19.852-13.344,5.551a174.421,174.421,0,0,0,3.928,30.056,5.563,5.563,0,0,0,2.243,3.806c5.67,4.027,6.4,13.967.11,20.04a9.469,9.469,0,0,1-15.84-4.146,15.846,15.846,0,0,1,3.722-16.515c-1.675-10.271-5.835-19.878-9.587-30.08l-8.442,1.168c0,1.254-.032,2.332,0,3.407.164,4.752.475,9.5.482,14.254.006,3.794.421,7.04,3.119,10.3,3.936,4.758,2.1,12.381-3,15.9a9.706,9.706,0,0,1-14.946-5.169c-1.51-4.649-.423-8.785,3.555-13.458l-4-24.538-6.339-.458-9.092,23.889c.686,1.158,1.395,2.181,1.93,3.288,3.052,6.312-.083,14.393-6.473,16.774-5.878,2.191-11.266-1.286-11.577-7.521A12.316,12.316,0,0,1,3414,1833.35a5.393,5.393,0,0,0,2.246-4.132q1.106-12.1,2.443-24.188c.174-1.585-.564-1.966-2.154-2.095-1.609,4.251-4.321,7.708-8.967,8.965-4.489,1.215-8.647.687-11.929-3.885-1.94,2.983-3.746,5.552-5.285,8.271-.382.675.03,1.848.189,2.772a9.926,9.926,0,0,1-5.021,10.6c-3.892,2.086-9.31,1.74-12.124-1.246a10.758,10.758,0,0,1-2.716-5.435,12.207,12.207,0,0,1,8.445-13.343,4.17,4.17,0,0,0,2.938-3.088c.948-2.629,1.907-5.254,2.9-7.867s2.019-5.207,3.134-8.074l-5.8-4.589c-4.714,4.122-9.494,8.128-14.077,12.348q-10.8,9.942-21.339,20.16a7.535,7.535,0,0,0-1.6,3.6c-.957,4.026-2.248,7.762-5.931,10.234a13.965,13.965,0,0,1-8.678,2.531c-7.679-.356-12.012-7.268-8.786-14.29,2.55-5.553,7.112-8.464,13.134-9.066,1.4-.14,2.642-.094,3.7-1.406,10.059-12.519,20.235-24.946,29.408-38.412l-3.075-3.832c-3.9,2.24-7.691,4.3-11.328,6.6-.75.473-1.089,1.8-1.358,2.8a9.458,9.458,0,0,1-7.021,7.082,9.284,9.284,0,0,1-9.9-2.93,8.577,8.577,0,0,1-1.607-9.744c1.675-3.82,4.749-6.366,8.805-5.9,3.952.458,6.223-1.306,8.62-3.724,1.956-1.973,4.077-3.781,6.187-5.718l-3.481-7.166c-1.124.4-2.161.691-3.125,1.138-9.379,4.346-18.725,8.761-28.134,13.042-1.66.755-2.044,1.92-2.472,3.494-1.827,6.716-8.663,10.186-14.752,7.644a8.47,8.47,0,0,1-3.5-13.5,12.112,12.112,0,0,1,11.891-4.687,6.952,6.952,0,0,0,5.465-1.067c7.545-5.052,15.169-9.983,22.743-14.99,2.209-1.46,4.346-3.027,6.857-4.782-.506-1.674-1.055-3.493-1.708-5.651l-50.924,6.881a12.126,12.126,0,0,1-7.534,6.156,11.591,11.591,0,0,1-14.545-8.484c-1.288-5.956,2.059-10.613,8.136-11.216a14.963,14.963,0,0,1,11.871,3.934l49-16.182c-.437-3.881-.866-7.7-1.31-11.643-4.8-.636-9.355-1.206-13.9-1.848-9.27-1.309-18.545-2.588-27.791-4.046a5.837,5.837,0,0,0-4.545,1.2,20.418,20.418,0,0,1-7.165,3.107c-5.941,1.073-10.857-2.564-11.668-8.12a10.557,10.557,0,0,1,8.837-11.828c4.488-.709,8.458.251,10.813,4.51a3.8,3.8,0,0,0,3.739,2.043c8.943.3,17.885.684,26.83.921,4.887.129,9.781.023,14.974.023.265-1.353.522-2.657.8-4.1l-8.375-3.6a36.519,36.519,0,0,1-3.241,1.852c-4.646,2.077-9.289-.435-10.03-5.464a10.69,10.69,0,0,1,3.191-9.575c4.559-4.5,9.943-3.513,12.716,2.275a5.386,5.386,0,0,0,.586.771l7.637.647,1.59-3.88a53.17,53.17,0,0,0-14.339-9.285,5.4,5.4,0,0,0-3.152.043c-4.7,1.029-9.1.578-12.182-3.426a13.367,13.367,0,0,1-1.646-13.9,9.737,9.737,0,0,1,11.466-5.55c5.739,1.494,9.651,4.922,10.759,11.361l16.876,5.02,2.557-3.547c-10.858-11.732-20.714-24.254-33.036-34.76-.8.127-1.747.328-2.7.417-4.442.413-7.916-1.392-9.766-5.036-1.927-3.792-1.38-9.211,1.233-12.263a10.115,10.115,0,0,1,11.105-2.7c3.571,1.249,5.187,4.135,6.063,7.478a4.8,4.8,0,0,0,2.109,3.329c11.625,7.245,23.205,14.56,34.805,21.845.44.276.941.456,2.281,1.092-.879-1.516-1.262-2.313-1.766-3.027-3.465-4.909-6.983-9.783-10.423-14.71a6.66,6.66,0,0,0-4.734-2.908c-5.449-.96-8.869-4.522-10.6-9.646a8.958,8.958,0,0,1,2.333-10.011c2.7-2.545,6.915-2.872,10.591-1.026,4.974,2.5,7,6.3,5.839,11.591a3.292,3.292,0,0,0,.832,3.381c2.31,2.433,4.518,4.969,6.918,7.308,4.1,4,8.314,7.873,12.705,12.012l5.412-3.588c-2.777-5.972-5.471-11.764-8.14-17.5a9.255,9.255,0,0,0-1.291-.451c-5.052-.906-7.435-4.061-6.594-8.758s4.511-7.347,9.07-6.534a8.156,8.156,0,0,1,6.735,9.449,4.282,4.282,0,0,0,.183,2.7,121.649,121.649,0,0,0,10.193,13.906c-3.434-12.45-6.867-24.9-10.337-37.475a35.977,35.977,0,0,1-4.188-.887,33.644,33.644,0,0,1-6.565-2.606c-4.654-2.788-5.809-7.745-2.81-12.282a17.574,17.574,0,0,1,14.779-8.256,9.973,9.973,0,0,1,9.606,13.636c-.563,1.567-1.4,3.034-2.028,4.365l13.847,38.93,18.6-4.781c2.309-12.8,2.227-25.645,1.851-38.5a4.782,4.782,0,0,0-1.539-3.688,15.969,15.969,0,0,1-3.03-3.971,8.84,8.84,0,0,1,1.326-10.828,10.57,10.57,0,0,1,12-2.158c3.927,1.875,6.393,5.812,5.709,9.8-.292,1.7-1.4,3.266-2.158,4.882-.453.966-1.373,1.919-1.357,2.866.167,10.053-.236,20.151,1.886,30.08.308,1.437.793,2.836,1.195,4.252l.99.032c1.193-4.781,2.454-9.547,3.5-14.358.16-.73-.51-1.787-1.051-2.5-3.806-5.023-4.085-9.619-.742-13.735s10.622-5.683,15.314-3.273c5.643,2.9,6.919,11.176,2.394,15.828a32.821,32.821,0,0,1-3.076,2.481c.311,6.875-.177,13.928,1.787,21.1.781-1.565,1.613-3.107,2.335-4.7,5.021-11.077,9.795-22.246,12.892-34.058a6.875,6.875,0,0,0-.413-5.181,7.405,7.405,0,0,1,2.654-9.957,18.535,18.535,0,0,1,7.294-2.816,8.924,8.924,0,0,1,9.921,5.358c1.462,3.824.26,9.007-3.576,11.1-3.274,1.788-4.165,4.528-5.236,7.489a120.037,120.037,0,0,0-6.636,34.031c-.048.82-.005,1.645-.005,2.6l7.452,3.1,24.2-29.881c-3-5.226-6.088-10.292-1.091-15.542,3.644-3.829,10.861-4.52,15.622-1.841a11.433,11.433,0,0,1,5.359,12.216c-1.149,5.665-4.83,8.506-11.934,9.117l-3.181,6.194c1.18,0,2.061-.016,2.94,0,5.1.108,9.455,3.721,10.083,8.367.6,4.406-1.658,7.879-6.061,8.485a4.932,4.932,0,0,0-3.909,2.636c-2.894,4.771-5.753,9.563-8.823,14.673,2.391,2.066,4.557,3.939,6.894,5.961a25.705,25.705,0,0,0,3.387-1.59c8.631-5.691,17.223-11.442,25.84-17.154a5.354,5.354,0,0,0,2.634-4.376c.445-4.625,4.316-7.846,9.182-8.183,5.076-.351,10.186,2.678,11.411,6.827.831,2.814-.1,5.271-1.892,7.395a10.3,10.3,0,0,1-8.043,3.913,5.426,5.426,0,0,0-4.388,1.936,7.417,7.417,0,0,1-.95.824c-8.861,7.081-17.743,14.139-24.055,24.408l4.073,5.693c7.717-2.2,14.511-6.01,21.139-10.135.676-.42.964-1.548,1.308-2.4.832-2.056,1.3-4.323,2.445-6.177a7.629,7.629,0,0,1,9.933-2.924,14.9,14.9,0,0,1,9.029,12.257,9.267,9.267,0,0,1-4.06,9.123,9.049,9.049,0,0,1-10.266.5c-.851-.475-1.664-1.017-2.678-1.64l-19.112,12.527,5.457,13.888c5.205-.53,10.326-1.075,15.45-1.558a4.259,4.259,0,0,0,3.891-2.5,9.15,9.15,0,0,1,10.491-5.052c4.935.97,8.743,4.52,9.53,8.885.858,4.753-1.274,9.847-5.064,12a8.213,8.213,0,0,1-9.779-.893c-1.448-1.15-2.722-1.739-4.534-1.291-5.68,1.408-11.377,2.751-17.355,4.188.229,2.54.436,4.831.663,7.361H3563.2c.263-.346.514-.666.755-.994,3.135-4.269,7.027-4.83,11.106-1.522a16,16,0,0,1,5.644,10.05c5.956,0,11.82.1,17.675-.079,1.255-.038,2.49-1.066,3.719-1.671a10.578,10.578,0,0,1,15.4,7.146c1.561,6.391-2.692,11.58-9.269,11.208-3.008-.171-5.876-1.051-7.9-3.376a4.3,4.3,0,0,0-4.043-1.46C3581.767,1708.84,3567.35,1710.419,3553.065,1714.282Zm-154.808-103.35c-1.553.715-2.565,1.13-3.53,1.634a72.636,72.636,0,0,0-21.436,16.535c-10.782,12.321-19.923,25.563-24.776,41.4-.375,1.226-.592,2.5-1,4.243,5.711-2.258,9.73-.386,12.99,3.375a5.793,5.793,0,0,0,4.733,2.132,28.249,28.249,0,0,0,2.931.1c5.968-.588,11.939-1.171,17.892-1.89,2.342-.283,4.66-.423,5.977,1.828,1.92,3.286,1.574,6.694-.251,9.983-1.643,2.958-4.177,3.908-7.425,3.412-4.97-.759-9.951-1.447-14.921-2.205-2.578-.393-4.588-.164-6.694,2.043-4.263,4.464-10.4,4.452-15.175.633-.7-.561-1.394-1.134-2.308-1.878a8.551,8.551,0,0,0-.384,1.561c0,1.4,0,2.8.1,4.19a160.067,160.067,0,0,0,7.133,37.366,103.089,103.089,0,0,0,21.064,37.322c6.861,7.784,14.19,15.07,23.76,19.629,4.469,2.13,7.772.981,9.529-3.586a188.028,188.028,0,0,0,8.821-29.67c.689-3.365,3.289-5.473,6.694-4.826a18.526,18.526,0,0,1,6.809,2.9c4.526,3.1,4.817,5.121,2.1,9.791a21.112,21.112,0,0,1-1.333,2.132c-5.6,7.417-9.589,15.73-13.41,24.136-1.75,3.851-.492,6.762,3.479,7.953,12.525,3.755,25.211,4.032,38.176,2.655,27.041-2.872,48.826-15.855,67.839-34.307,7.187-6.975,11.66-15.811,15.641-25.159l-4.19-1.073a21.749,21.749,0,0,1-1.134,2.1,46.856,46.856,0,0,1-3.5,4.656,2.485,2.485,0,0,1-2.187.239c-.355-.126-.615-1.233-.5-1.809a11.859,11.859,0,0,1,1.137-2.686c.586-1.194,1.219-2.365,2.131-4.122-7.391-1.011-14.151-1.963-20.922-2.84a34.922,34.922,0,0,0-4.157-.093,8.786,8.786,0,0,1-8.233-5.44,10.539,10.539,0,0,1,2.442-11.6c3.147-3.071,5.382-3.284,9.46-1.582,7.854,3.277,15.868,6.169,23.832,9.18a24.278,24.278,0,0,0,3.13.741c1.667-3.8,1.164-8.218,4.879-11.666,1.769,5.024.556,8.859-1.693,12.783l4,1.091c.721-2.669,1.531-5.047,2-7.491a140.624,140.624,0,0,0-.242-52.51c-.957-5.171-3.081-10.128-4.707-15.172-.661-2.053-1.705-1.721-2.982-.408.994,1.491,2.033,2.813,2.817,4.271,2.079,3.869,1.852,7.933-.659,10.563-2.906,3.045-6.378,3.738-10.354,2.229a4.664,4.664,0,0,0-3.064-.221,133.018,133.018,0,0,0-27.613,14.845c-4.128,2.93-8.706,2.339-11.621-1.765-3.7-5.216-1.945-10.568,4.144-12.527,1.45-.467,3-.654,4.4-1.236,6.573-2.741,13.113-5.563,19.65-8.386.95-.41,1.831-.978,2.907-1.561a21.633,21.633,0,0,1-1.444-1.973c-3.784-6.829-3.192-10.907,4.308-13.186,3.425-1.041,6.7-2.574,10.654-4.123-9.6-12.588-20.082-23.337-33.42-31.5-.6,1-.968,1.738-1.451,2.38a22.458,22.458,0,0,1-2.656,3.225,7.028,7.028,0,0,1-9.232.291c-3.218-2.449-4.472-6.941-2.76-10.061.568-1.035,1.275-1.993,1.931-3.005-19.458-10.037-60.272-7.239-75.518.237.652,1.958,1.476,3.89,1.935,5.9a8.076,8.076,0,0,1-8.488,9.784,5.764,5.764,0,0,1-5.716-5.134C3398.387,1614.352,3398.394,1612.957,3398.258,1610.933Zm149.265,124.688c-16.352-3.42-17.717-3.932-33.6-11.859a14.83,14.83,0,0,0-5.14-1.573c-3.377-.3-6.339,2.891-6.594,6.726-.271,4.079,1.651,6.575,5.483,6.932,3.338.31,6.693.428,10.032.723a93.094,93.094,0,0,1,24.489,5.245,52.259,52.259,0,0,0,6.306,1.5c0,.307.011.991,0,1.674a6.69,6.69,0,0,0,4.3,6.593c2.658,1.164,5.218.288,7.4-1.534a9.806,9.806,0,0,0-.683-15.328,5.146,5.146,0,0,0-6.257-.032c-1.369.948-2.565,2.141-3.882,3.171a4.154,4.154,0,0,1-1.3.379C3547.891,1737.378,3547.73,1736.612,3547.523,1735.62Zm-204.635,82.112c1.237-.958,2.674-1.916,3.924-3.074,2.047-1.895,3.954-3.938,5.953-5.886,8.674-8.452,17.361-16.892,26.3-25.59-1.375-1.373-2.831-2.823-4.282-4.28-1.421-1.426-2.835-2.858-4.375-4.412-1.576,2-2.795,3.518-3.986,5.059q-12.03,15.558-24.018,31.149a18.2,18.2,0,0,0-1.675,3.764c-2.469.55-5.073,1.026-7.618,1.722-4.048,1.108-6.926,3.562-7.975,7.757-1.039,4.157,1.213,7.3,5.448,7.546,4.427.26,8.081-1.393,9.969-5.481C3341.748,1823.426,3342.145,1820.476,3342.887,1817.732Zm26.523-189.257c-1.542-.885-2.757-1.535-3.926-2.259q-15.816-9.8-31.611-19.641c-1.3-.81-2.38-2.234-3.763-2.588-2.664-.68-3.238-2.559-3.938-4.749a9.6,9.6,0,0,0-2.48-4.158,5.915,5.915,0,0,0-7.68.314,7.468,7.468,0,0,0-1.183,8.527,6.639,6.639,0,0,0,7.743,2.513c1.082-.413,2.088-1.028,3.659-1.818-.268,3.268,1.581,4.581,3.443,6.084a72.152,72.152,0,0,1,7.32,6.86c5.432,5.807,10.723,11.746,16.087,17.617,1.951,2.136,3.949,4.229,5.989,6.41Zm-25.624,85.855c-14.339,4.753-28.148,9.16-41.82,13.958-4.591,1.611-8.725,2.245-13.224-.112a11.4,11.4,0,0,0-5.678-.775,5.126,5.126,0,0,0-4.845,3.409c-.8,2.224.045,4.129,1.421,5.811a7.935,7.935,0,0,0,12.153.584c2.7-2.967,5.945-4.059,9.511-4.63,8.262-1.323,16.555-2.452,24.843-3.618,6.613-.93,13.235-1.8,20.058-2.719Zm42.356-165.037a13.453,13.453,0,0,0-9.925,5.84c-1.779,2.562-1.366,4.739,1.4,6.355a16.919,16.919,0,0,0,6.552,2.5c3.425.335,4.589,2,5.392,5.124,3.847,14.99,7.94,29.918,12,44.852a6.366,6.366,0,0,0,1.671,3.141c1.257,1.049,3.814.359,5.368-1.05,1.785-1.617,2.106-3.024,1.005-5.139-7.058-13.56-11.572-28.078-16.21-42.562-1.217-3.8-1.767-7.268-.32-11.258C3394.543,1553.063,3391.188,1549.335,3386.143,1549.293Zm134.54,7.531a17.619,17.619,0,0,0-2.142.271c-4.8,1.107-6.36,4.231-4.357,8.777a30.87,30.87,0,0,0,2.01,3.671,3.547,3.547,0,0,1-.416,4.583c-6.739,8.211-13.386,16.5-20.154,24.685-2.4,2.906-5.087,5.578-7.581,8.41-1.244,1.412-2.077,2.931-.985,4.932s2.613,3.344,4.875,3.474c2.125.121,3.566-.9,4.549-2.954,2.288-4.785,4.591-9.59,7.3-14.143,3.927-6.6,8.352-12.907,12.293-19.5a12.725,12.725,0,0,1,7.792-6.343c4.618-1.32,6.419-4.732,5.6-9.344C3528.738,1559.187,3525.627,1556.78,3520.684,1556.825Zm9.72,212.667,46.875,20.124a9.606,9.606,0,0,0,.9,2.475c1.557,2.1,2.912,4.571,4.962,6.033,3.451,2.463,7,.51,7.572-3.714.774-5.718-2.881-8.984-8.621-7.705-.542.121-1.088.229-1.631.343-15.7-6.895-29.005-17.584-43.153-27.153C3534.874,1763.277,3532.613,1766.421,3530.4,1769.492Zm-3.622-104.915a21.412,21.412,0,0,0-4.421.914c-4.174,1.93-8.161,4.295-12.412,6.018-4.634,1.878-9.468,3.276-14.244,4.788-3.875,1.227-5.4,3.784-4.145,7.225,1.459,3.992,5.428,5.061,9.153,2.4a122.6,122.6,0,0,1,25.4-14.452c1.136-.455,2.009-1.565,3.151-2.491a24,24,0,0,0,2.51,1.552,6.743,6.743,0,0,0,7.421-1.005c1.843-1.734,2.324-4.164.852-6.924a13.173,13.173,0,0,0-3.7-4.405c-3.549-2.563-7.218-1.208-8.6,2.927C3527.31,1662.429,3527,1663.773,3526.782,1664.578Zm-39.8-109.018a19.357,19.357,0,0,0,3.566-2.475,14.316,14.316,0,0,0,3.254-4.688,4.721,4.721,0,0,0-3.287-6.285,9.519,9.519,0,0,0-8.731,1.562c-2.552,2-3.13,4.418-1.782,7.383.457,1.006,1.048,1.951,1.487,2.757a28.58,28.58,0,0,0-1.472,3.547c-.322,1.2-.276,2.5-.533,3.721-2.368,11.265-6.916,21.748-11.6,32.18-.431.96-.856,1.923-1.429,3.213l11.093,1.769a13.319,13.319,0,0,0,.44-1.859c.9-12.741,3.171-25.15,8.621-36.836C3487.058,1558.576,3486.839,1557.292,3486.981,1555.56Zm50,99.2c8.2-5.386,15.916-10.4,23.562-15.5,2.213-1.479,3.983-1.738,6.352,0a5.836,5.836,0,0,0,8.265-.883c2.219-2.5,2.407-6.352.476-9.786-1.836-3.265-5.468-5.662-8.051-5.013-3.6.9-4.972,3.746-5.59,7.094a2.925,2.925,0,0,0-.057.414,5.536,5.536,0,0,1-2.955,4.765c-5.078,2.879-10.017,6.112-15.357,8.4-7.9,3.382-16.1,6.067-24.72,9.251l3.374,8.259c2.51.208,2.419-1.191,2.759-2.4a7.4,7.4,0,0,1,8.609-5.492A29.989,29.989,0,0,1,3536.978,1654.757Zm-106.54,108.113a10.966,10.966,0,0,0-7.677-5.411c-3.369-.694-4.819.318-5.031,3.668-.682,10.8-4.454,20.625-9.184,30.194a9.346,9.346,0,0,1-4.235,4.376,10.107,10.107,0,0,0-5.345,6.133c-1.338,4.432,1.37,7.906,6.015,7.545a8.706,8.706,0,0,0,7.575-5.137,6.417,6.417,0,0,0-1.38-8.029c1.048-2.1,2.032-3.879,2.843-5.731,3.411-7.8,6.648-15.681,12.078-22.384C3427.49,1766.373,3428.926,1764.687,3430.438,1762.87Zm122.963-62.821v9.877c3.368-.743,6.484-1.395,9.582-2.12,10.4-2.434,20.973-3.171,31.614-3.478,3.552-.1,6.81.06,9.784,2.349a7.412,7.412,0,0,0,3.936,1.2c3.862.215,5.949-2.665,4.778-6.344-1.271-3.99-5.809-6.3-9.427-4.031-2.811,1.762-5.572,1.984-8.55,2.048q-13.4.287-26.812.485C3563.443,1700.1,3558.579,1700.049,3553.4,1700.049Zm-211.688-10.676-45.6-2.452c-.531-1.037-.762-1.538-1.037-2.015a8.185,8.185,0,0,0-13.118-2.023,6.173,6.173,0,0,0-1.8,6.514,5.847,5.847,0,0,0,5.048,4.434c2.844.454,5.747.316,8.091-1.361,3.168-2.266,6.45-2.266,9.991-1.569,2.053.405,4.149.6,6.225.881l32.2,4.411ZM3467.633,1805.6a130.64,130.64,0,0,1,8.709,28.571,7.088,7.088,0,0,1-1.032,5.7,13.886,13.886,0,0,0-1.944,11.2c.607,2.55,2.095,4.707,4.825,5.268s4.838-.838,6.491-2.946c3.875-4.945,3.4-10.651-1.178-15.011-.863-.821-1.987-1.708-2.259-2.755-2.492-9.559-4.958-19.136-5.039-29.12a18.043,18.043,0,0,0-.416-2.568Zm-20.9-210.2h10.789c0-6.179-.057-12.142.027-18.1a7.253,7.253,0,0,1,3.114-6.315c4.462-3.372,3.089-10.994-1.911-12.73a9.084,9.084,0,0,0-10.263,3.649c-1.85,3.057-1.217,6.348,1.792,9.409,1.025,1.043,2.026,2.109,2.784,2.9-1.008,1.39-2.038,2.228-2.289,3.255C3449.337,1583.382,3448.08,1589.347,3446.738,1595.394Zm-100.4,89.443a17.54,17.54,0,0,0,1.074,3.539c2.757,5.558,9.4,6.828,13.991,2.291a9.192,9.192,0,0,1,8.272-2.7c4.976.573,10.051.669,14.721,2.8,2,.912,3.468.4,4.686-1.338,1.439-2.059,1.854-5.12.813-6.72-1.329-2.045-3.09-1.288-4.84-.741a45.681,45.681,0,0,1-16.555,1.741c-3.986-.243-8.089-.317-10.794-4.111a5.745,5.745,0,0,0-2.053-1.412C3350.695,1675.569,3346.3,1678.3,3346.334,1684.837Zm183.845-50.731c6.232-10.073,14.511-17.278,23.685-23.563.461-.315,1.295-.739,1.259-1.022-.409-3.136,1.97-2.569,3.723-3.03a24.369,24.369,0,0,0,6.275-2.165c4.192-2.491,3.971-6.953-.367-9.185a9.932,9.932,0,0,0-4.395-1.1,6.185,6.185,0,0,0-6.138,7.639c.229,1.184.581,2.345.812,3.266-1.7.611-3.46.756-4.5,1.694a147.725,147.725,0,0,1-25.7,18.037c-.685.393-1.3.911-2.105,1.484Zm-89.743-38.135a7.367,7.367,0,0,0-.01-1.427c-3.767-11.925-3.964-24.178-3.48-36.515.111-2.823.43-5.206,2.55-7.513,2.694-2.931,2.107-6.447-.7-8.9a7.292,7.292,0,0,0-9.592.024c-2.643,2.28-2.876,5.279-.579,8.625a14.979,14.979,0,0,0,2.227,2.487c1.016.936,2.139,1.756,2.968,2.426-.635,1.655-1.512,2.773-1.364,3.732,1.87,12.036.758,23.951-1.193,35.848a14.046,14.046,0,0,0-.01,1.894ZM3333.284,1647.4a6.868,6.868,0,0,1,.217-1.348c1.42-3.564.583-6.04-2.9-8.473-3.594-2.513-8.091-2.681-10.465-.35a5.5,5.5,0,0,0-1.229,1.677,9.653,9.653,0,0,0,1,9.951c2.13,2.915,5.212,3.393,8.663,2.57,1.421-.339,3.224-.669,4.417-.1,5.262,2.524,10.364,5.379,15.707,8.212l4.3-8.345c-3.951-1.171-7.682-2.3-11.428-3.377-2.221-.64-4.44-1.818-6.729-.045C3334.59,1647.973,3333.855,1647.551,3333.284,1647.4Zm204.763,168.009a179.161,179.161,0,0,1-23.289-31.914l-9.4,6.415c9.007,7.323,17.536,14.342,24.358,23.123,2,2.579,4.71,4.8,4.835,8.54a3.492,3.492,0,0,0,1.444,2.447c1.466.912,3.165,1.982,4.776,2,2.029.016,2.812-2.086,3.363-3.833,1.139-3.615-.718-6.32-4.559-6.763A9.919,9.919,0,0,0,3538.046,1815.41Zm-115.958-10.759c-.263,2.882-.448,5.239-.7,7.589-.623,5.823-1.508,11.632-1.8,17.471-.105,2.13-.478,3.61-2.044,4.991a8.883,8.883,0,0,0-2.556,3.268,17.357,17.357,0,0,0-1.4,6.375c.119,3.468,2.924,5.066,6.251,3.93,3.232-1.1,4.886-3.583,5.448-6.824a8.9,8.9,0,0,0-3.526-8.975l9.627-25.424Zm-72.04-65.743c-1.486.933-2.431,1.507-3.358,2.11q-12.437,8.106-24.878,16.21a10.8,10.8,0,0,1-7.065,1.9,11.12,11.12,0,0,0-9.408,3.7c-1.84,2.012-2.352,4.69-1.353,6.547,1.125,2.093,4.274,3.314,6.937,2.692,3.865-.9,6.613-4.824,6.429-9.148-.032-.741,0-1.485,0-2.8,2.462,1.7,4.175.62,6.087-.326,8.615-4.263,17.3-8.374,25.966-12.541.96-.461,1.92-.925,3.076-1.482Zm101.674,69.456h-6.853c1.046,6.766,1.919,13.121,3.048,19.43.6,3.342.609,6.274-1.486,9.292a7.966,7.966,0,0,0,.024,9.128c2.191,3.459,5.995,3.81,8.9.949a8.081,8.081,0,0,0-.77-12.47c-.741-.569-1.531-1.074-1.752-1.228C3452.443,1824.721,3452.083,1816.56,3451.722,1808.364Zm-65.6,8.512c3.742-7.386,9.344-13.12,11.029-21.264l-5.81-2.982-7.843,19.318c-.932.27-1.74.49-2.537.737a9.468,9.468,0,0,0-6.761,9.007,5.281,5.281,0,0,0,2.942,5.137c2.648,1.369,6.781.844,8.617-1.072,2.032-2.119,2.313-5.031.774-8.118C3386.3,1817.161,3386.028,1816.7,3386.123,1816.876Zm165.592-139.39c5.894-1.338,11.193-2.537,16.491-3.744,1.554-.354,3.1-.73,4.714-1.109a27.085,27.085,0,0,0,3.3,2.9,5.551,5.551,0,0,0,6.965-.54c1.988-1.841,3.023-5.68,2.016-8.13a7.693,7.693,0,0,0-6.764-4.906c-2.966-.306-5.079,1.039-6.632,4.069-.573,1.118-1.074,2.276-1.685,3.373-.181.325-.626.5-1.111.868l-1.435-1.994-17.33,2.582C3550.744,1673.106,3551.247,1675.374,3551.715,1677.486Zm-173.354-57.932c-6.251-6.3-12.125-12.21-17.993-18.128-2.154-2.171-3.435-4.639-3.061-7.85.448-3.835-1.862-5.94-5.059-7.255-4.306-1.772-7.953.889-7.708,5.539.228,4.358,4.444,8.439,9.166,8.809,1.23.1,2.475.014,3.116.014l16.976,23.088Zm135.218-22.077c-2.192,2.307-4.067,4.375-6.049,6.337-2.005,1.987-5.145,2.971-5.618,6.493l7.847,4.542c2.887-4.7,5.681-9.168,8.376-13.691,1.012-1.7,1.8-3.533,2.74-5.419a3.249,3.249,0,0,1,1.021.115,3.822,3.822,0,0,0,5.086-1.582,4.423,4.423,0,0,0-.963-5.706,8.828,8.828,0,0,0-3.94-2.119c-4.793-1-6.93.3-9.486,5.458l5.6,5.916Zm-164.221,176.165,13.4-8.959-3.492-5.164c-3.547,3.89-8.3,5.973-10.851,10.536-2.161,0-4.437-.33-6.571.077a5.842,5.842,0,0,0-4.341,7.06,6.134,6.134,0,0,0,7.683,4C3348.476,1780.179,3349.738,1777.91,3349.359,1773.642Zm146.72,21.969c5.465,6.143,10.654,11.939,15.794,17.779,1.393,1.583,2.4,3.258,1.972,5.655a6.859,6.859,0,0,0,.92,3.963c.737,1.435,2.276,2.47,3.817,1.665a5.19,5.19,0,0,0,2.255-3.155c.478-2.085-.823-3.656-2.377-5.007-1.448-1.259-3.157-2.43-4.093-4.026-2.953-5.03-5.774-10.158-8.273-15.425a11.806,11.806,0,0,0-4.012-5.169Zm60.885-39.391c1.969.627,3.292,1.034,4.605,1.47,1.45.482,2.864,1.088,4.339,1.466a8.4,8.4,0,0,1,5.343,3.583,7.185,7.185,0,0,0,6.82,3.269,5.621,5.621,0,0,0,3.5-1.736c1.756-2.063,1.451-6.191-.253-8.188-1.725-2.021-4.3-2.481-7.166-.791a4.967,4.967,0,0,1-4.639.452c-1.3-.466-2.834-.406-4.016-1.043C3562.461,1753.068,3560.042,1754.264,3556.963,1756.22Zm-213.619-78.544c.424-2.525.752-4.482,1.081-6.44l-9.107-1.144c-.27-.864-.441-1.517-.675-2.146-1.085-2.9-3.052-3.806-5.853-2.635a6.866,6.866,0,0,0-4.015,4.539c-.579,1.928-.6,3.91.938,5.483,1.619,1.661,3.595,1.513,5.365.421,2.718-1.677,5.268-1.21,7.9.066C3340.207,1676.412,3341.49,1676.892,3343.344,1677.676Zm37.743-85.324c.015,2.627,4.966,14.217,8.215,19.534l4.617-2.5c-1.428-1.985-2.765-3.729-3.98-5.553-3.13-4.7-7.113-8.938-7.21-15.17-.033-2.081-1.864-3.359-3.9-3.877a3.7,3.7,0,0,0-4.665,3.01,3.544,3.544,0,0,0,2.96,4.3A32.809,32.809,0,0,0,3381.087,1592.352Zm184.364,100.132h-12.458c.163,1.2.3,2.217.475,3.5h23.975a29.608,29.608,0,0,0-2.348-4.827c-3.589-4.767-6.884-4.358-9.42,1.033A1.51,1.51,0,0,1,3565.451,1692.483Zm-15.981,61.6-5.154-9.215-3.048,7.4Z" transform="translate(-3273.933 -1536.973)"/><path class="b" d="M3880.042,2227.129c9.312.694,12.1,3.908,12.263,14a46.874,46.874,0,0,1,4.781-2.632c.742-.311,1.754.024,2.644.066-.062.894.186,2-.253,2.635a10.5,10.5,0,0,1-3.222,3.229,85.244,85.244,0,0,1-9.037,4.3,4.568,4.568,0,0,1-4.792-.317,4.859,4.859,0,0,0-2.369-.542c-3.91-.356-6.742-2.468-9.05-5.457-1.878-2.432-2.459-5.115-.8-7.792.983-1.584.666-2.785-.026-4.254-4.161-8.849-8.248-17.733-12.391-26.591-2.222-4.749.583-8.917,5.805-8.434,3.92.363,6.232,2.684,7.486,6.356,2.482,7.269,5.089,14.5,7.645,21.74C3879.146,2224.623,3879.568,2225.8,3880.042,2227.129Zm-4.78,5.275c-.438.464-1.048,1.035-1.572,1.677-2.448,3-2.294,5.364.493,8.071a9.325,9.325,0,0,0,11.582,1.115c3.387-2.116,4.122-4.975,2.451-8.642-1.354-2.972-3.94-3.881-6.773-4.193a5.544,5.544,0,0,1-4.99-3.8c-.306-.779-.7-1.525-1.046-2.287a66.456,66.456,0,0,1-5.915-18.708c-.432-3.168-1.865-5.582-5.133-6.424-1.518-.39-3.09-.394-4.2,1.062-1.056,1.385-.3,2.6.333,3.879,4.015,8.133,7.968,16.3,12.015,24.415A31.779,31.779,0,0,0,3875.262,2232.4Z" transform="translate(-3676.246 -1991.201)"/><path class="b" d="M3828.488,1796.536c-3-2.635-4.516-5.626-4.459-9.37a6.288,6.288,0,0,1,3.315-5.887c5.5-2.913,11.179-3.48,16.766-.307,5.908,3.358,6.484,9.444,1.207,13.656-2.009,1.6-4.572,2.517-7.585,4.117-.347,5.232-.631,11.18-1.181,17.1a40.9,40.9,0,0,1-1.68,9.356c-1.5,4.395-5.746,5.551-10.766,3.571a7.243,7.243,0,0,1-4.255-9.8c3-6.578,5.4-13.433,8.028-20.18A22.807,22.807,0,0,0,3828.488,1796.536Zm8.266-14.729c-1.732.2-2.578.218-3.387.4-2.172.5-4.756.738-5.586,3.131a6.472,6.472,0,0,0,2.119,7.24c2.486,2,1.973,3.809.979,6.214-2.826,6.84-5.442,13.767-8.179,20.644-.806,2.027-.717,3.82,1.008,5.325,1.7,1.479,5.42,2.11,7.126,1.118,1.942-1.129,2.06-2.862,2.06-5.022,0-6.833.323-13.67.674-20.5.131-2.555,1.5-4.223,4.074-5.258a19.913,19.913,0,0,0,5.862-3.923c2.254-2.085,2.185-4.691-.335-6.437C3841.066,1783.285,3838.456,1782.557,3836.754,1781.807Z" transform="translate(-3650.151 -1703.846)"/><path class="b" d="M3681.286,1860.374c-.93,2.585.246,4.894,2.124,6.936,3.018,3.281,6.027,6.578,9.188,9.719,2.276,2.262,4.284,4.475,3.019,8.005-1.082,3.021-4.984,5.515-8.665,5.537-3.351.02-6.447-1.762-7.41-5.087-1.224-4.229-3.74-7.738-5.577-11.616a6.111,6.111,0,0,0-3.86-3.4,15.378,15.378,0,0,1-10.26-11.732,10.655,10.655,0,0,1,6.067-12.07c4.561-2.184,8.973-1.175,12.386,2.831C3680.63,1852.232,3681.62,1855.708,3681.286,1860.374Zm-3.428,1.864c.155-4.146-.474-7.929-3.435-10.944a6.332,6.332,0,0,0-8.03-.909c-2.74,1.567-3.925,3.994-3.208,7.022a12.971,12.971,0,0,0,8.732,9.854,6.294,6.294,0,0,1,4.072,3.181c2.159,4.348,4.4,8.656,6.492,13.039,1.226,2.574,2.513,3.526,5.114,3.282,2.338-.22,4.346-1.676,4.711-3.508.488-2.449-.845-3.944-2.79-5.085a7.17,7.17,0,0,1-1.414-.886c-2.787-2.7-5.664-5.312-8.261-8.181A7.516,7.516,0,0,1,3677.858,1862.238Z" transform="translate(-3540.012 -1749.869)"/><path class="b" d="M3654.986,2058.3c-.388.46-.69.755-.92,1.1-3.878,5.8-10.658,6.67-15.711,1.887a12.75,12.75,0,0,1-3.694-12.684c1.076-4.831,5.865-7.3,10.824-5.747a16.981,16.981,0,0,1,4.1,2.051,32.108,32.108,0,0,1,3.246,2.769c5.171-1.194,10.351-2.311,15.486-3.6,3.648-.917,5.913-.081,7.572,3.17a12.538,12.538,0,0,1,.766,1.945c1.538,4.892.033,7.67-5.072,8.322-4.551.581-9.181.559-13.778.783C3656.832,2058.339,3655.86,2058.3,3654.986,2058.3Zm7.59-3.424c1.977.172,4.617.453,7.266.616,2.567.158,4.335-.687,4.2-2.37a13.041,13.041,0,0,0-1.789-5.8c-1.1-1.721-2.966-.6-4.581-.139-4.153,1.2-8.347,2.25-12.524,3.364a4.423,4.423,0,0,1-5.154-1.508,9.016,9.016,0,0,0-7.059-3.166,5.014,5.014,0,0,0-4.93,3.21c-1.411,3.582.337,8.63,3.708,10.715,3.524,2.179,6.969,1.635,9.913-2.045a6.736,6.736,0,0,1,6.076-2.89C3659.1,2054.94,3660.5,2054.875,3662.575,2054.875Z" transform="translate(-3522.552 -1885.692)"/><path class="b" d="M3590.853,2142.155c4.027-4.632,7.91-9.361,12.122-13.778a9.4,9.4,0,0,1,5.1-2.326c3.824-.6,7.115.877,9.766,3.679,2.844,3.007,2.748,5.629-.558,8.1-4.459,3.333-9.018,6.541-13.634,9.652-1.733,1.167-2.8,2.235-2.735,4.6a8.4,8.4,0,0,1-5.819,8.743c-4.365,1.606-8.578,1.4-12.124-1.844-3.24-2.969-3.481-6.867-2.351-10.833,1.057-3.706,4.166-5.865,8.13-5.994C3589.435,2142.136,3590.122,2142.155,3590.853,2142.155Zm1.547,3.231c-.031-.008-.557-.136-1.079-.279-4.106-1.119-7.3.323-8.463,3.824a7.183,7.183,0,0,0,4.393,9.2c5.968,2.293,10.847-.824,10.826-7.216a5.868,5.868,0,0,1,2.629-5.309c3.78-2.616,7.641-5.117,11.49-7.632,1.809-1.183,4.751-1.656,4.522-4.334-.227-2.658-3.1-3.274-5.177-4.334a4.053,4.053,0,0,0-1.184-.409c-2.044-.33-3.752-.053-5.152,1.838-1.569,2.12-3.526,3.951-5.274,5.944C3597.477,2139.479,3595.059,2142.31,3592.4,2145.386Z" transform="translate(-3485.113 -1943.323)"/><path class="b" d="M3887.68,2124.377a9.193,9.193,0,0,1-6.781,9.166c-4.424,1.4-9.791.144-11.515-3.456-1.926-4.021-5.188-6.009-8.871-7.751-4.579-2.166-5.769-5.82-3.316-10.233,1.982-3.564,4.614-4.334,8.34-2.446,1.117.566,2.286,1.044,3.355,1.688,2.19,1.321,4.2,2.374,6.936.91,1.967-1.053,4.148,0,5.864,1.263A14.607,14.607,0,0,1,3887.68,2124.377Zm-17.205-8.414c-.95-.61-1.794-1.1-2.583-1.673a15.566,15.566,0,0,0-2.312-1.784,6.751,6.751,0,0,0-3.413-.854c-1.715.237-3.314,2.825-3.357,4.867-.045,2.168,1.294,3.066,3.172,3.837a32.145,32.145,0,0,1,6.471,3.59c1.063.761,1.623,2.221,2.423,3.356a7.882,7.882,0,0,0,10.446,2.139c2.872-1.728,3.447-5.037,1.48-8.874a11.331,11.331,0,0,0-1.636-2.423c-2.593-2.864-4.8-2.83-7.393.079-.948,1.066-1.821,2.2-3.3,4Z" transform="translate(-3675.502 -1931.413)"/><path class="b" d="M3865.321,1955.818c-.116-2.249-.583-4.1-.219-5.759.814-3.711,4.437-5.61,8.9-5.049a12.04,12.04,0,0,1,9.693,9.711c.469,3.654-1.641,7.615-5.486,8.295-4.408.78-6.622,3.83-8.969,6.807-3.622,4.594-9.073,4.521-12.233-.418-1.694-2.648-1.377-4.731,1.019-6.907C3860.494,1960.254,3862.948,1957.991,3865.321,1955.818Zm6.046,4.987a38.1,38.1,0,0,0,5.69-.879,4.278,4.278,0,0,0,3.325-4.689,7.964,7.964,0,0,0-6.953-6.734c-3.155-.151-4.94,1.692-4.61,4.861.2,1.9.532,3.788.861,6.073-.938-.208-1.42-.349-1.911-.413s-1.2-.286-1.494-.049c-2.577,2.046-5.083,4.181-7.6,6.284a9.219,9.219,0,0,0,.7,1.811c2.479,3.555,5.7,3.58,8.24.121.658-.895,1.512-1.66,2.076-2.6A35.821,35.821,0,0,0,3871.367,1960.805Z" transform="translate(-3675.496 -1818.436)"/><path class="b" d="M3816.175,2046.635c.092,5.779-4.292,10.017-10.442,10.1-5.136.067-9.239-2.781-9.213-6.513.057-8.395,2.715-11.89,10.48-12.744C3812.108,2036.915,3816.088,2041.221,3816.175,2046.635Zm-15.636.912c-.214,4.855,1.126,6.231,5.312,5.759a11.135,11.135,0,0,0,3.952-1.24,5.948,5.948,0,0,0,2.272-8.321c-1.386-2.619-3.98-3.366-7.244-2.088C3801.889,2042.808,3800.367,2044.906,3800.538,2047.547Z" transform="translate(-3634.498 -1882.267)"/><path class="b" d="M4042.04,2244c-2.9,8.883-9.232,15.019-16.257,20.575-1.36,1.075-2.829,2.383-4.872,1.376.906-3.244,1.877-4.454,9.854-11.536C4034.579,2251.031,4037.141,2246.333,4042.04,2244Z" transform="translate(-3789.32 -2024.798)"/><path class="b" d="M4039.868,2211.2c.881,6.532-7.244,15.138-15.028,16.743.6-.876.952-1.5,1.409-2.031,3.169-3.677,6.327-7.363,9.563-10.98C4036.865,2213.758,4038.14,2212.779,4039.868,2211.2Z" transform="translate(-3792.031 -2002.166)"/><path class="b" d="M3580.683,1857.663c-.261-4.411,1.719-7.91,4.945-10.8,1.085-.973,2.565-1.386,3.79-.151s.852,2.681-.163,3.767c-2.452,2.623-5.044,5.116-7.578,7.661Z" transform="translate(-3485.563 -1750.153)"/><path class="b" d="M3857.3,2370.6c2.47-1.487,4.89-3.07,7.443-4.394a2.8,2.8,0,0,1,2.525.352c1.108.961.358,2.137-.5,2.833A8.62,8.62,0,0,1,3857.3,2370.6Z" transform="translate(-3676.436 -2108.998)"/><path class="b" d="M4118.69,2106.69c.34-2.11.57-4.25,1.1-6.31a2.181,2.181,0,0,1,1.937-.94,2.22,2.22,0,0,1,1.186,1.821c-.335,2.255-.695,4.621-3.028,5.784Z" transform="translate(-3856.784 -1925.037)"/><path class="b" d="M3975.037,2285.5a50.081,50.081,0,0,1,3.008-4.127c.237-.273,1.3-.063,1.809.232.267.156.351,1.073.161,1.481a5.392,5.392,0,0,1-4.037,3.161Z" transform="translate(-3757.669 -2050.495)"/><path class="b" d="M3541.256,2135.681c1.958,2.166,2.031,2.443,1.456,5.506C3539.807,2139.229,3539.578,2138.363,3541.256,2135.681Z" transform="translate(-3457.652 -1950.059)"/><path class="b" d="M3828.793,1751.944c-.09-.723-.327-1.273-.154-1.484a14.823,14.823,0,0,1,2.419-2.4,2.327,2.327,0,0,1,1.393,1.12c.305,1.617-.589,2.613-2.16,2.945A5.563,5.563,0,0,1,3828.793,1751.944Z" transform="translate(-3656.616 -1682.609)"/><path class="b" d="M3561.46,1913.289c-1.642-1.778-1.61-3.252-.2-4.589a1.453,1.453,0,0,1,1.408.185C3563.934,1910.637,3562.951,1911.876,3561.46,1913.289Z" transform="translate(-3471.457 -1793.374)"/><path class="b" d="M3760.764,2179.489a12.992,12.992,0,0,1-1.476-3.133c-.058-.36,1-.9,1.555-1.357a14.047,14.047,0,0,1,1.532,2.6C3762.475,2177.882,3761.64,2178.495,3760.764,2179.489Z" transform="translate(-3608.809 -1977.187)"/><path class="b" d="M4018.9,2212.976c1.041,2.92-.742,3.906-3.037,5.411C4015.957,2215.69,4016.657,2214.117,4018.9,2212.976Z" transform="translate(-3785.838 -2003.39)"/><path class="b" d="M4141.492,2031.088c-2.238-3.382-2.238-3.382-.543-5.258C4142.5,2027.22,4141.809,2028.823,4141.492,2031.088Z" transform="translate(-3871.307 -1874.266)"/><path class="b" d="M3545.7,2107.748c-.388.241-.5.375-.613.373-1.631-.036-2.708-.716-2.5-2.5a1.468,1.468,0,0,1,1.206-.772C3545.51,2105.175,3545.8,2106.4,3545.7,2107.748Z" transform="translate(-3459.273 -1928.781)"/><path class="b" d="M3763.193,2148.912c.921-.792,1.582-1.628,1.827-1.521a9.217,9.217,0,0,1,1.993,1.578c-.4.458-.894,1.351-1.193,1.292A11.23,11.23,0,0,1,3763.193,2148.912Z" transform="translate(-3611.504 -1958.132)"/><path class="b" d="M3801.884,1755.659c-.133-1.126-.194-2.209,2.307-2.259-.485,1.14-.837,1.968-1.189,2.795Z" transform="translate(-3638.164 -1686.299)"/></g></g></svg>