<svg xmlns="http://www.w3.org/2000/svg" width="295.94" height="222.878" viewBox="0 0 295.94 222.878"><defs><style>.a,.b{fill:#0050ff;}.a{opacity:0.246;}</style></defs><g transform="translate(0)"><g transform="translate(0)"><g transform="translate(222.766)"><ellipse class="a" cx="36.587" cy="36.587" rx="36.587" ry="36.587" transform="translate(0)"/></g><g transform="translate(240.93 187.865)"><ellipse class="a" cx="9.082" cy="9.082" rx="9.082" ry="9.082" transform="translate(0)"/></g><g transform="translate(2.789 64.352)"><ellipse class="a" cx="9.082" cy="9.082" rx="9.082" ry="9.082" transform="translate(0)"/></g><g transform="translate(0 169.702)"><ellipse class="a" cx="9.082" cy="9.082" rx="9.082" ry="9.082"/></g><g transform="translate(20.953 12.974)"><ellipse class="a" cx="18.423" cy="18.164" rx="18.423" ry="18.164" transform="translate(0)"/></g></g><g transform="translate(30.254 38.682)"><g transform="translate(0 0)"><path class="b" d="M3433.226,1638.158l-1.914,10.032c.073.022.234.122.288.081,4.521-3.456,9.365,1.213,9.6,5.268a31.609,31.609,0,0,1-.711,5.657l3.112,1.113c.253-.106.4-.154.541-.229,2.754-1.493,4.872-1.391,6.578.319a6.723,6.723,0,0,1,.718,7.593,4.511,4.511,0,0,1-4.444,2.273,6,6,0,0,1-5.151-3.009,2.86,2.86,0,0,0-1.966-1.53c-4.677-1.281-9.347-2.592-14.2-3.569.365.306.71.643,1.1.915,3.009,2.1,5.973,4.274,9.055,6.262,4.22,2.721,8.521,5.316,12.824,7.907a3.036,3.036,0,0,0,1.783.251c5.588-.628,7.607,5.005,6.134,8.449-1.321,3.085-4.4,4.209-7.284,2.491a6.734,6.734,0,0,1-3.537-5.634,184.126,184.126,0,0,0-27.262-11.2l-5.692,5.1c3.847,5.5,7.642,10.91,11.418,16.335a2.269,2.269,0,0,0,1.744,1.029,4.576,4.576,0,0,1,4.1,3.788,6.372,6.372,0,0,1-2.55,5.851c-2.744,1.712-7-.575-6.959-3.949a4.256,4.256,0,0,0-1.427-3.313c-3.07-3.112-6.17-6.195-9.258-9.288l-.538.4c1.233,2.294,2.437,4.6,3.726,6.865.2.35.786.48,1.194.71a4.874,4.874,0,0,1,2.4,3.416,4.58,4.58,0,0,1-1.869,4.388,3.238,3.238,0,0,1-3.819-.05,4.472,4.472,0,0,1-2.2-4.234,8.238,8.238,0,0,1,.505-1.676l-10.438-11.329-7.615,3.168a99.518,99.518,0,0,0,2.242,17.152,3.175,3.175,0,0,0,1.28,2.172c3.236,2.3,3.651,7.97.062,11.436a5.4,5.4,0,0,1-9.039-2.366,9.043,9.043,0,0,1,2.124-9.424c-.956-5.861-3.33-11.344-5.471-17.166l-4.818.667c0,.716-.019,1.331,0,1.944.094,2.712.271,5.423.275,8.134a8.356,8.356,0,0,0,1.78,5.878c2.246,2.715,1.2,7.065-1.711,9.075a5.539,5.539,0,0,1-8.529-2.95c-.862-2.653-.241-5.013,2.029-7.68l-2.281-14-3.617-.261-5.188,13.633c.392.661.8,1.245,1.1,1.876a7.108,7.108,0,0,1-3.694,9.573,4.671,4.671,0,0,1-6.607-4.292,7.028,7.028,0,0,1,2.7-6.1,3.079,3.079,0,0,0,1.282-2.358q.631-6.908,1.394-13.8c.1-.9-.322-1.122-1.229-1.2a7.628,7.628,0,0,1-5.117,5.116c-2.562.694-4.934.392-6.808-2.217-1.107,1.7-2.138,3.168-3.016,4.72-.218.385.017,1.055.108,1.582a5.665,5.665,0,0,1-2.865,6.05c-2.221,1.19-5.313.993-6.919-.711a6.138,6.138,0,0,1-1.55-3.1,6.966,6.966,0,0,1,4.819-7.615,2.38,2.38,0,0,0,1.677-1.762c.541-1.5,1.088-3,1.652-4.49s1.152-2.971,1.789-4.608l-3.311-2.618c-2.69,2.352-5.418,4.638-8.033,7.046q-6.161,5.674-12.177,11.5a4.3,4.3,0,0,0-.916,2.057c-.546,2.3-1.283,4.43-3.385,5.84a7.97,7.97,0,0,1-4.952,1.444,5.556,5.556,0,0,1-5.014-8.155,8.659,8.659,0,0,1,7.5-5.174,2.569,2.569,0,0,0,2.109-.8c5.74-7.144,11.547-14.236,16.782-21.921l-1.755-2.187c-2.227,1.278-4.389,2.453-6.464,3.764-.428.27-.621,1.025-.775,1.6a5.4,5.4,0,0,1-4.007,4.041,5.3,5.3,0,0,1-5.652-1.672,4.895,4.895,0,0,1-.917-5.561c.956-2.18,2.71-3.633,5.025-3.365,2.255.261,3.551-.745,4.919-2.125,1.116-1.126,2.326-2.158,3.53-3.263l-1.986-4.09c-.641.23-1.234.394-1.783.649-5.352,2.48-10.686,5-16.055,7.443a2.515,2.515,0,0,0-1.411,1.994,6.246,6.246,0,0,1-8.419,4.362,4.833,4.833,0,0,1-2-7.7,6.912,6.912,0,0,1,6.786-2.675,3.969,3.969,0,0,0,3.118-.609c4.306-2.883,8.657-5.7,12.979-8.554,1.26-.833,2.48-1.727,3.913-2.729-.289-.955-.6-1.994-.975-3.225l-29.061,3.927a6.919,6.919,0,0,1-4.3,3.513,6.614,6.614,0,0,1-8.3-4.842,4.985,4.985,0,0,1,4.643-6.4,8.539,8.539,0,0,1,6.774,2.245l27.962-9.235c-.25-2.215-.494-4.391-.748-6.644-2.74-.363-5.339-.688-7.931-1.054-5.29-.747-10.583-1.477-15.859-2.309a3.331,3.331,0,0,0-2.594.685,11.653,11.653,0,0,1-4.089,1.773,5.486,5.486,0,0,1-6.658-4.634,6.025,6.025,0,0,1,5.043-6.75c2.561-.4,4.827.143,6.171,2.573a2.166,2.166,0,0,0,2.134,1.166c5.1.17,10.206.39,15.311.525,2.789.074,5.582.013,8.545.013l.459-2.337-4.78-2.056a20.85,20.85,0,0,1-1.849,1.057,3.928,3.928,0,0,1-5.724-3.118,6.1,6.1,0,0,1,1.821-5.464c2.6-2.57,5.674-2,7.257,1.3a3.08,3.08,0,0,0,.334.44l4.358.369.907-2.214a30.34,30.34,0,0,0-8.183-5.3,3.079,3.079,0,0,0-1.8.024c-2.681.587-5.193.33-6.952-1.955a7.629,7.629,0,0,1-.939-7.932,5.557,5.557,0,0,1,6.543-3.167c3.275.853,5.508,2.809,6.139,6.483l9.631,2.865,1.459-2.024c-6.2-6.7-11.821-13.841-18.853-19.836-.459.073-1,.188-1.54.238a5.3,5.3,0,0,1-5.573-2.874,6.783,6.783,0,0,1,.7-7,5.773,5.773,0,0,1,6.338-1.538c2.038.713,2.96,2.359,3.46,4.267a2.74,2.74,0,0,0,1.2,1.9c6.634,4.135,13.242,8.309,19.862,12.466.251.158.537.26,1.3.623-.5-.865-.72-1.32-1.008-1.727-1.978-2.8-3.985-5.583-5.948-8.4a3.8,3.8,0,0,0-2.7-1.66,7.6,7.6,0,0,1-6.05-5.5A5.112,5.112,0,0,1,3314,1563.8a5.3,5.3,0,0,1,6.044-.586c2.838,1.425,3.994,3.594,3.332,6.615a1.879,1.879,0,0,0,.475,1.93c1.318,1.388,2.578,2.835,3.948,4.17,2.339,2.28,4.745,4.493,7.25,6.855l3.089-2.048-4.646-9.989a5.284,5.284,0,0,0-.737-.258c-2.883-.517-4.243-2.318-3.763-5a4.286,4.286,0,0,1,5.176-3.729,4.655,4.655,0,0,1,3.843,5.393,2.443,2.443,0,0,0,.1,1.543,69.41,69.41,0,0,0,5.817,7.936c-1.959-7.1-3.919-14.209-5.9-21.386a20.562,20.562,0,0,1-2.39-.506,19.2,19.2,0,0,1-3.747-1.487,4.687,4.687,0,0,1-1.6-7.009,10.029,10.029,0,0,1,8.434-4.712,5.692,5.692,0,0,1,5.482,7.782c-.321.894-.8,1.732-1.157,2.491l7.9,22.216,10.613-2.728c1.318-7.307,1.271-14.635,1.056-21.973a2.728,2.728,0,0,0-.878-2.1,9.123,9.123,0,0,1-1.729-2.266,5.045,5.045,0,0,1,.757-6.179,6.032,6.032,0,0,1,6.848-1.232,5.382,5.382,0,0,1,3.258,5.59,11.779,11.779,0,0,1-1.232,2.786c-.259.551-.783,1.1-.775,1.636.1,5.737-.134,11.5,1.077,17.166.176.82.453,1.618.682,2.427l.565.018c.681-2.728,1.4-5.448,2-8.193.091-.417-.292-1.02-.6-1.427-2.172-2.867-2.331-5.49-.424-7.838a7.7,7.7,0,0,1,8.739-1.868,5.829,5.829,0,0,1,1.366,9.033,18.747,18.747,0,0,1-1.755,1.416c.177,3.923-.1,7.948,1.02,12.04.446-.893.921-1.773,1.333-2.682a122.751,122.751,0,0,0,7.357-19.436,3.923,3.923,0,0,0-.236-2.957,4.226,4.226,0,0,1,1.514-5.682,10.575,10.575,0,0,1,4.163-1.607,5.092,5.092,0,0,1,5.662,3.058,5.24,5.24,0,0,1-2.041,6.335c-1.869,1.021-2.377,2.584-2.988,4.274a68.5,68.5,0,0,0-3.787,19.42c-.027.468,0,.939,0,1.481l4.253,1.77,13.81-17.052c-1.713-2.982-3.474-5.874-.623-8.87,2.079-2.185,6.2-2.579,8.915-1.051a6.524,6.524,0,0,1,3.059,6.971c-.656,3.233-2.756,4.854-6.81,5.2l-1.815,3.534c.674,0,1.176-.009,1.678,0a5.818,5.818,0,0,1,5.754,4.775c.34,2.515-.946,4.5-3.459,4.842a2.814,2.814,0,0,0-2.231,1.5c-1.651,2.722-3.283,5.457-5.035,8.374l3.934,3.4a14.67,14.67,0,0,0,1.933-.907c4.926-3.248,9.829-6.53,14.746-9.789a3.055,3.055,0,0,0,1.5-2.5,5.338,5.338,0,0,1,5.24-4.67c2.9-.2,5.813,1.528,6.512,3.9a4.379,4.379,0,0,1-1.08,4.22,5.88,5.88,0,0,1-4.59,2.233,3.1,3.1,0,0,0-2.5,1.1,4.236,4.236,0,0,1-.542.47c-5.057,4.041-10.125,8.069-13.728,13.929l2.324,3.249a47.606,47.606,0,0,0,12.063-5.784c.386-.24.55-.884.747-1.369a23.058,23.058,0,0,1,1.4-3.525,4.353,4.353,0,0,1,5.668-1.668,8.5,8.5,0,0,1,5.153,6.995,5.288,5.288,0,0,1-2.317,5.206,5.164,5.164,0,0,1-5.858.283c-.486-.271-.95-.58-1.528-.936l-10.906,7.149,3.114,7.926c2.97-.3,5.893-.613,8.817-.889a2.43,2.43,0,0,0,2.22-1.424,5.222,5.222,0,0,1,5.987-2.883,6.491,6.491,0,0,1,2.548,11.92,4.687,4.687,0,0,1-5.581-.51,2.757,2.757,0,0,0-2.587-.736c-3.241.8-6.493,1.57-9.9,2.39.131,1.45.249,2.757.379,4.2h5.837c.15-.2.293-.38.431-.568,1.789-2.436,4.01-2.756,6.338-.869a9.131,9.131,0,0,1,3.221,5.735c3.4,0,6.745.057,10.087-.045a6.034,6.034,0,0,0,2.122-.954,6.036,6.036,0,0,1,8.787,4.078,4.935,4.935,0,0,1-5.29,6.4,6.172,6.172,0,0,1-4.506-1.927,2.451,2.451,0,0,0-2.307-.833A123.074,123.074,0,0,0,3433.226,1638.158Zm-88.344-58.979c-.886.408-1.464.645-2.014.932a41.45,41.45,0,0,0-12.233,9.436c-6.153,7.031-11.37,14.588-14.139,23.625-.214.7-.337,1.427-.569,2.421,3.26-1.288,5.553-.22,7.413,1.926a3.306,3.306,0,0,0,2.7,1.217,16.093,16.093,0,0,0,1.673.055c3.406-.336,6.813-.668,10.21-1.078,1.336-.162,2.659-.242,3.411,1.043a5.467,5.467,0,0,1-.143,5.7,3.742,3.742,0,0,1-4.237,1.947c-2.836-.433-5.678-.825-8.515-1.259a3.829,3.829,0,0,0-3.82,1.166c-2.433,2.547-5.933,2.541-8.66.361-.4-.32-.8-.647-1.317-1.072a4.873,4.873,0,0,0-.219.891c0,.8,0,1.6.057,2.391a91.347,91.347,0,0,0,4.071,21.324,58.826,58.826,0,0,0,12.021,21.3c3.915,4.442,8.1,8.6,13.559,11.2,2.551,1.216,4.435.56,5.438-2.046a107.273,107.273,0,0,0,5.034-16.932,3.193,3.193,0,0,1,3.82-2.754,10.574,10.574,0,0,1,3.885,1.656c2.583,1.772,2.749,2.923,1.2,5.587a12.071,12.071,0,0,1-.761,1.217,71.352,71.352,0,0,0-7.653,13.774c-1,2.2-.281,3.859,1.985,4.539,7.148,2.143,14.387,2.3,21.786,1.515,15.431-1.639,27.863-9.048,38.714-19.578,4.1-3.981,6.654-9.023,8.926-14.357l-2.391-.612a12.39,12.39,0,0,1-.647,1.2,26.762,26.762,0,0,1-2,2.657,1.418,1.418,0,0,1-1.248.136c-.2-.072-.351-.7-.283-1.032a6.747,6.747,0,0,1,.648-1.533c.334-.681.7-1.349,1.216-2.352-4.218-.577-8.075-1.12-11.939-1.621a19.939,19.939,0,0,0-2.372-.053,5.014,5.014,0,0,1-4.7-3.1,6.014,6.014,0,0,1,1.394-6.619c1.8-1.753,3.071-1.874,5.4-.9,4.482,1.87,9.056,3.52,13.6,5.239a13.855,13.855,0,0,0,1.786.423c.952-2.17.664-4.69,2.784-6.657,1.009,2.867.317,5.056-.966,7.295l2.283.623c.412-1.523.874-2.881,1.141-4.275a80.253,80.253,0,0,0-.138-29.966,71.093,71.093,0,0,0-2.686-8.658c-.377-1.172-.973-.982-1.7-.233.567.851,1.16,1.605,1.607,2.438,1.187,2.208,1.057,4.527-.376,6.028a5.063,5.063,0,0,1-5.909,1.272,2.662,2.662,0,0,0-1.749-.126,75.916,75.916,0,0,0-15.758,8.472c-2.355,1.672-4.968,1.335-6.632-1.007-2.114-2.977-1.11-6.031,2.365-7.149.828-.266,1.715-.373,2.512-.706,3.751-1.564,7.483-3.175,11.214-4.786.542-.234,1.045-.558,1.659-.891a12.342,12.342,0,0,1-.824-1.126c-2.159-3.9-1.822-6.224,2.459-7.525,1.954-.594,3.824-1.469,6.08-2.353-5.476-7.184-11.46-13.317-19.072-17.978-.345.573-.552.991-.828,1.358a12.83,12.83,0,0,1-1.516,1.84,4.011,4.011,0,0,1-5.269.166,4.719,4.719,0,0,1-1.575-5.741c.324-.59.728-1.137,1.1-1.715-11.1-5.728-34.4-4.131-43.1.135.372,1.117.842,2.22,1.1,3.369a4.609,4.609,0,0,1-4.844,5.584,3.289,3.289,0,0,1-3.262-2.93C3344.955,1581.131,3344.959,1580.334,3344.882,1579.179Zm85.181,71.156c-9.331-1.952-10.111-2.244-19.176-6.768a8.466,8.466,0,0,0-2.933-.9c-1.927-.173-3.617,1.65-3.763,3.839-.155,2.328.942,3.752,3.129,3.956,1.905.177,3.82.244,5.725.413a53.122,53.122,0,0,1,13.975,2.993,29.825,29.825,0,0,0,3.6.854c0,.175.006.565,0,.955a3.818,3.818,0,0,0,2.454,3.763,3.918,3.918,0,0,0,4.222-.875,5.6,5.6,0,0,0-.39-8.747,2.936,2.936,0,0,0-3.571-.018c-.781.541-1.464,1.222-2.215,1.809a2.376,2.376,0,0,1-.744.217C3430.273,1651.338,3430.181,1650.9,3430.063,1650.335Zm-116.78,46.859c.706-.547,1.526-1.094,2.24-1.754,1.168-1.081,2.257-2.247,3.4-3.359,4.95-4.823,9.907-9.64,15.011-14.6-.784-.783-1.615-1.611-2.444-2.442-.811-.814-1.618-1.631-2.5-2.518-.9,1.14-1.595,2.008-2.275,2.887q-6.865,8.878-13.707,17.776a10.4,10.4,0,0,0-.955,2.148c-1.409.314-2.9.585-4.348.983a5.932,5.932,0,0,0-4.551,4.427,3.213,3.213,0,0,0,3.109,4.307,5.43,5.43,0,0,0,5.689-3.128A29.464,29.464,0,0,0,3313.283,1697.194Zm15.136-108c-.88-.505-1.573-.876-2.24-1.289q-9.026-5.594-18.039-11.208c-.741-.462-1.358-1.275-2.147-1.477-1.52-.388-1.848-1.46-2.248-2.71a5.478,5.478,0,0,0-1.415-2.373,3.376,3.376,0,0,0-4.383.179,4.262,4.262,0,0,0-.675,4.866,3.789,3.789,0,0,0,4.419,1.434c.617-.236,1.192-.587,2.088-1.037-.153,1.865.9,2.614,1.965,3.472a41.166,41.166,0,0,1,4.177,3.915c3.1,3.314,6.119,6.7,9.18,10.054,1.113,1.219,2.254,2.414,3.417,3.658Zm-14.623,49c-8.183,2.712-16.063,5.227-23.865,7.965-2.62.919-4.979,1.281-7.547-.064a6.506,6.506,0,0,0-3.24-.442,2.925,2.925,0,0,0-2.765,1.945,3.279,3.279,0,0,0,.811,3.316,4.528,4.528,0,0,0,6.935.333,8.673,8.673,0,0,1,5.427-2.642c4.715-.755,9.448-1.4,14.177-2.064,3.774-.531,7.553-1.025,11.447-1.552ZM3337.969,1544a7.676,7.676,0,0,0-5.664,3.333c-1.015,1.462-.78,2.7.8,3.626a9.655,9.655,0,0,0,3.739,1.425c1.955.191,2.619,1.139,3.077,2.924,2.2,8.555,4.531,17.073,6.851,25.6a3.633,3.633,0,0,0,.954,1.792c.717.6,2.176.205,3.063-.6a2.1,2.1,0,0,0,.573-2.933c-4.028-7.739-6.6-16.024-9.25-24.289a9.323,9.323,0,0,1-.183-6.424C3342.762,1546.155,3340.847,1544.027,3337.969,1544Zm76.778,4.3a10.065,10.065,0,0,0-1.222.155c-2.738.632-3.63,2.415-2.487,5.009a17.661,17.661,0,0,0,1.147,2.095,2.024,2.024,0,0,1-.238,2.616c-3.846,4.686-7.639,9.415-11.5,14.087-1.371,1.658-2.9,3.183-4.326,4.8a2.256,2.256,0,0,0-.562,2.815,3.331,3.331,0,0,0,2.782,1.982,2.547,2.547,0,0,0,2.6-1.686c1.306-2.731,2.62-5.473,4.166-8.071,2.241-3.768,4.766-7.366,7.015-11.129a7.262,7.262,0,0,1,4.446-3.62c2.636-.753,3.663-2.7,3.2-5.332C3419.343,1549.65,3417.568,1548.276,3414.747,1548.3Zm5.547,121.363,26.75,11.484a5.476,5.476,0,0,0,.513,1.412,14.866,14.866,0,0,0,2.832,3.443c1.969,1.406,4,.291,4.321-2.119.441-3.263-1.644-5.127-4.92-4.4-.31.069-.621.131-.931.2-8.962-3.935-16.552-10.034-24.626-15.5C3422.845,1666.118,3421.554,1667.912,3420.294,1669.665Zm-2.067-59.872a12.238,12.238,0,0,0-2.523.521c-2.382,1.1-4.657,2.451-7.083,3.434-2.645,1.072-5.4,1.869-8.129,2.732-2.211.7-3.083,2.16-2.365,4.123.833,2.278,3.1,2.888,5.223,1.372a69.965,69.965,0,0,1,14.494-8.247,8.408,8.408,0,0,0,1.8-1.422,13.708,13.708,0,0,0,1.433.885,3.848,3.848,0,0,0,4.235-.574,3.067,3.067,0,0,0,.486-3.951,7.512,7.512,0,0,0-2.113-2.514c-2.025-1.463-4.119-.689-4.907,1.67C3418.528,1608.567,3418.353,1609.334,3418.227,1609.793Zm-22.713-62.213a11.044,11.044,0,0,0,2.035-1.413,8.168,8.168,0,0,0,1.857-2.675,2.694,2.694,0,0,0-1.876-3.586,5.433,5.433,0,0,0-4.983.891,3.162,3.162,0,0,0-1.017,4.213c.261.574.6,1.114.848,1.573a16.357,16.357,0,0,0-.84,2.024c-.184.686-.157,1.425-.3,2.123-1.351,6.429-3.947,12.411-6.622,18.364-.246.548-.489,1.1-.816,1.834l6.331,1.009a7.589,7.589,0,0,0,.251-1.061c.514-7.271,1.81-14.352,4.92-21.021A7.924,7.924,0,0,0,3395.513,1547.58Zm28.532,56.609c4.681-3.074,9.083-5.932,13.446-8.848a2.727,2.727,0,0,1,3.625,0,3.33,3.33,0,0,0,4.717-.5,4.794,4.794,0,0,0,.271-5.584c-1.047-1.863-3.12-3.231-4.594-2.861-2.054.516-2.837,2.137-3.19,4.049a1.661,1.661,0,0,0-.032.236,3.16,3.16,0,0,1-1.687,2.719,90.248,90.248,0,0,1-8.764,4.792c-4.509,1.93-9.189,3.462-14.107,5.279l1.925,4.713c1.432.119,1.38-.68,1.574-1.367a4.22,4.22,0,0,1,4.913-3.134A17.126,17.126,0,0,1,3424.045,1604.189Zm-60.8,61.7a6.258,6.258,0,0,0-4.381-3.088c-1.923-.4-2.75.181-2.871,2.094-.389,6.164-2.542,11.77-5.241,17.231a5.334,5.334,0,0,1-2.417,2.5,5.767,5.767,0,0,0-3.051,3.5c-.764,2.53.782,4.511,3.433,4.305a4.969,4.969,0,0,0,4.323-2.932,3.662,3.662,0,0,0-.788-4.582c.6-1.2,1.159-2.213,1.622-3.271,1.947-4.449,3.794-8.949,6.893-12.774C3361.564,1667.885,3362.383,1666.922,3363.246,1665.886Zm70.171-35.85v5.637c1.922-.424,3.7-.8,5.468-1.21a90.1,90.1,0,0,1,18.041-1.985c2.027-.058,3.886.034,5.583,1.34a4.23,4.23,0,0,0,2.246.686c2.2.123,3.4-1.521,2.726-3.62a3.708,3.708,0,0,0-5.379-2.3,8.878,8.878,0,0,1-4.879,1.169q-7.649.164-15.3.277C3439.148,1630.067,3436.373,1630.036,3433.417,1630.036Zm-120.8-6.093-26.022-1.4c-.3-.592-.435-.878-.592-1.15a4.671,4.671,0,0,0-7.486-1.155,3.522,3.522,0,0,0-1.026,3.717,3.336,3.336,0,0,0,2.88,2.531,6.1,6.1,0,0,0,4.617-.777,6.833,6.833,0,0,1,5.7-.9c1.172.231,2.368.34,3.552.5l18.374,2.518Zm71.859,66.326a74.546,74.546,0,0,1,4.97,16.3,4.045,4.045,0,0,1-.589,3.254,7.925,7.925,0,0,0-1.109,6.393,3.467,3.467,0,0,0,6.458,1.325,5.994,5.994,0,0,0-.672-8.566,4.079,4.079,0,0,1-1.289-1.572c-1.422-5.455-2.83-10.92-2.876-16.618a10.336,10.336,0,0,0-.237-1.466Zm-11.924-119.958h6.157c0-3.526-.032-6.929.015-10.331a4.14,4.14,0,0,1,1.777-3.6,4.31,4.31,0,0,0-1.091-7.264,5.184,5.184,0,0,0-5.857,2.082c-1.056,1.744-.695,3.622,1.022,5.369.585.6,1.156,1.2,1.589,1.656-.575.793-1.163,1.271-1.306,1.858C3374.031,1563.457,3373.314,1566.861,3372.548,1570.312Zm-57.3,51.043a10.008,10.008,0,0,0,.613,2.02,4.824,4.824,0,0,0,7.984,1.307,5.247,5.247,0,0,1,4.721-1.541c2.84.327,5.735.382,8.4,1.6a1.93,1.93,0,0,0,2.674-.763,3.857,3.857,0,0,0,.464-3.835c-.759-1.167-1.763-.735-2.762-.423a26.072,26.072,0,0,1-9.447.993c-2.275-.139-4.616-.181-6.16-2.346a3.278,3.278,0,0,0-1.171-.806C3317.739,1616.066,3315.234,1617.624,3315.25,1621.354Zm104.915-28.951c3.557-5.748,8.281-9.86,13.517-13.447.263-.179.739-.422.718-.583-.234-1.79,1.124-1.466,2.125-1.729a13.907,13.907,0,0,0,3.581-1.235c2.392-1.422,2.266-3.968-.209-5.242a5.671,5.671,0,0,0-2.508-.628,3.53,3.53,0,0,0-3.5,4.36c.131.676.332,1.338.464,1.864a8.2,8.2,0,0,0-2.571.967,84.305,84.305,0,0,1-14.664,10.293c-.391.224-.741.52-1.2.846Zm-51.213-21.762a4.193,4.193,0,0,0-.006-.814c-2.149-6.805-2.262-13.8-1.986-20.838a6.009,6.009,0,0,1,1.455-4.287,3.339,3.339,0,0,0-.4-5.081,4.161,4.161,0,0,0-5.474.014c-1.508,1.3-1.641,3.013-.33,4.922a8.553,8.553,0,0,0,1.271,1.419c.58.534,1.221,1,1.694,1.384-.362.944-.863,1.582-.778,2.13,1.067,6.869.433,13.668-.681,20.457a8.023,8.023,0,0,0-.006,1.081Zm-61.149,29.35a3.952,3.952,0,0,1,.124-.769c.811-2.034.333-3.447-1.653-4.835-2.051-1.434-4.617-1.53-5.972-.2a3.148,3.148,0,0,0-.7.957,5.508,5.508,0,0,0,.572,5.678c1.215,1.664,2.974,1.936,4.943,1.467a4.187,4.187,0,0,1,2.521-.055c3,1.44,5.914,3.07,8.963,4.686l2.455-4.762c-2.255-.668-4.384-1.311-6.522-1.927-1.268-.365-2.534-1.038-3.84-.026C3308.548,1600.317,3308.129,1600.077,3307.8,1599.991Zm116.852,95.878a102.241,102.241,0,0,1-13.29-18.212l-5.362,3.661c5.14,4.179,10.007,8.185,13.9,13.2,1.144,1.472,2.688,2.739,2.76,4.874a1.994,1.994,0,0,0,.824,1.4,5.848,5.848,0,0,0,2.726,1.139c1.158.009,1.6-1.19,1.919-2.188.65-2.063-.409-3.607-2.6-3.859A5.67,5.67,0,0,0,3424.655,1695.869Zm-66.174-6.14c-.15,1.645-.255,2.99-.4,4.331-.356,3.323-.861,6.638-1.025,9.97a3.555,3.555,0,0,1-1.167,2.848,5.07,5.07,0,0,0-1.459,1.865,9.9,9.9,0,0,0-.8,3.638c.068,1.979,1.668,2.891,3.567,2.242a4.606,4.606,0,0,0,3.109-3.895,5.076,5.076,0,0,0-2.012-5.122l5.494-14.509Zm-41.111-37.518c-.848.532-1.387.86-1.916,1.2q-7.1,4.626-14.2,9.25a6.163,6.163,0,0,1-4.031,1.084,6.346,6.346,0,0,0-5.369,2.113,3.371,3.371,0,0,0-.772,3.736,3.736,3.736,0,0,0,3.959,1.536,5.066,5.066,0,0,0,3.669-5.22c-.018-.423,0-.848,0-1.6,1.405.972,2.383.354,3.474-.186,4.916-2.433,9.875-4.779,14.818-7.157l1.756-.846Zm58.022,39.636h-3.91c.6,3.861,1.1,7.488,1.739,11.088a6.5,6.5,0,0,1-.848,5.3,4.546,4.546,0,0,0,.014,5.209,3.074,3.074,0,0,0,5.076.542,4.612,4.612,0,0,0-.439-7.116c-.423-.325-.874-.613-1-.7C3375.8,1701.182,3375.6,1696.525,3375.392,1691.847Zm-37.436,4.858c2.136-4.215,5.333-7.487,6.294-12.135l-3.316-1.7-4.476,11.024c-.532.154-.993.28-1.448.42a5.4,5.4,0,0,0-3.859,5.14,3.013,3.013,0,0,0,1.679,2.931,4.624,4.624,0,0,0,4.917-.612,3.851,3.851,0,0,0,.442-4.633A4.905,4.905,0,0,0,3337.957,1696.705Zm94.5-79.546c3.363-.763,6.388-1.448,9.411-2.136.887-.2,1.771-.417,2.69-.633a15.481,15.481,0,0,0,1.883,1.656,3.167,3.167,0,0,0,3.975-.309,4.7,4.7,0,0,0,1.15-4.64,4.39,4.39,0,0,0-3.86-2.8c-1.693-.175-2.9.593-3.785,2.322-.327.638-.613,1.3-.962,1.925-.1.185-.357.287-.634.5l-.819-1.138-9.89,1.473Zm-98.928-33.06c-3.567-3.594-6.919-6.968-10.268-10.345a5.232,5.232,0,0,1-1.746-4.48c.255-2.188-1.062-3.39-2.887-4.141-2.458-1.011-4.538.507-4.4,3.161a5.77,5.77,0,0,0,5.231,5.027c.7.055,1.413.008,1.779.008l9.688,13.175Zm77.165-12.6c-1.251,1.316-2.321,2.5-3.452,3.616s-2.936,1.7-3.206,3.706l4.478,2.592c1.647-2.684,3.242-5.232,4.78-7.813.578-.969,1.025-2.016,1.563-3.093a1.856,1.856,0,0,1,.583.066,2.181,2.181,0,0,0,2.9-.9,2.524,2.524,0,0,0-.55-3.256,5.039,5.039,0,0,0-2.249-1.209c-2.735-.573-3.954.173-5.413,3.115l3.194,3.376Zm-93.716,100.532,7.647-5.113-1.993-2.947c-2.024,2.22-4.735,3.409-6.192,6.012a20.2,20.2,0,0,0-3.75.044,3.334,3.334,0,0,0-2.477,4.029,3.5,3.5,0,0,0,4.384,2.284C3316.473,1675.764,3317.193,1674.468,3316.977,1672.033Zm83.729,12.537c3.119,3.506,6.08,6.813,9.013,10.146a3.638,3.638,0,0,1,1.125,3.227,3.916,3.916,0,0,0,.525,2.262,1.643,1.643,0,0,0,2.178.95,2.964,2.964,0,0,0,1.287-1.8c.272-1.19-.469-2.086-1.356-2.857a10.537,10.537,0,0,1-2.336-2.3c-1.685-2.871-3.295-5.8-4.721-8.8a6.736,6.736,0,0,0-2.29-2.95Zm34.745-22.479c1.124.357,1.879.59,2.628.839.827.275,1.635.621,2.476.837a4.791,4.791,0,0,1,3.049,2.045,4.1,4.1,0,0,0,3.892,1.866,3.206,3.206,0,0,0,2-.99,4.059,4.059,0,0,0-.144-4.673,2.99,2.99,0,0,0-4.089-.452,2.834,2.834,0,0,1-2.647.258,16.788,16.788,0,0,1-2.292-.595C3438.588,1660.292,3437.207,1660.974,3435.45,1662.091Zm-121.906-44.823c.242-1.441.429-2.558.617-3.675l-5.2-.653c-.154-.493-.252-.866-.385-1.225-.619-1.657-1.741-2.172-3.34-1.5a3.918,3.918,0,0,0-2.292,2.59,2.976,2.976,0,0,0,.535,3.129,2.294,2.294,0,0,0,3.062.24,4.34,4.34,0,0,1,4.51.038C3311.754,1616.547,3312.486,1616.82,3313.544,1617.268Zm21.539-48.692c.009,1.5,2.834,8.113,4.688,11.147l2.635-1.428c-.815-1.133-1.578-2.128-2.271-3.169-1.786-2.681-4.059-5.1-4.115-8.657-.019-1.188-1.064-1.917-2.227-2.212a2.114,2.114,0,0,0-2.662,1.718,2.022,2.022,0,0,0,1.689,2.452A18.687,18.687,0,0,0,3335.083,1568.576Zm105.211,57.142h-7.11c.093.687.172,1.265.271,2h13.682a16.892,16.892,0,0,0-1.34-2.754c-2.048-2.72-3.929-2.487-5.376.59A.855.855,0,0,1,3440.294,1625.718Zm-9.12,35.154-2.941-5.259-1.739,4.221Z" transform="translate(-3273.933 -1536.973)"/><path class="b" d="M3870.16,2213.469c5.314.4,6.907,2.23,7,7.992a26.7,26.7,0,0,1,2.728-1.5,3.852,3.852,0,0,1,1.509.037c-.036.51.106,1.144-.145,1.5a5.987,5.987,0,0,1-1.838,1.842,48.639,48.639,0,0,1-5.157,2.457,2.607,2.607,0,0,1-2.735-.181,2.772,2.772,0,0,0-1.352-.309,7.222,7.222,0,0,1-5.164-3.114,3.67,3.67,0,0,1-.454-4.447,2.235,2.235,0,0,0-.014-2.428c-2.374-5.05-4.707-10.12-7.072-15.175-1.268-2.71.333-5.089,3.313-4.813a4.771,4.771,0,0,1,4.271,3.627c1.417,4.148,2.9,8.272,4.363,12.406C3869.65,2212.038,3869.89,2212.709,3870.16,2213.469Zm-2.727,3.01c-.25.265-.6.591-.9.957-1.4,1.714-1.309,3.061.281,4.606a5.322,5.322,0,0,0,6.609.636c1.933-1.208,2.353-2.839,1.4-4.932-.773-1.7-2.248-2.215-3.865-2.393a3.164,3.164,0,0,1-2.848-2.169c-.175-.445-.4-.87-.6-1.3a37.925,37.925,0,0,1-3.375-10.676,3.9,3.9,0,0,0-2.929-3.666,2.09,2.09,0,0,0-2.4.606c-.6.79-.17,1.483.19,2.214,2.291,4.641,4.547,9.3,6.857,13.933A18.09,18.09,0,0,0,3867.433,2216.479Z" transform="translate(-3753.861 -2078.832)"/><path class="b" d="M3824.5,1788.935a6.678,6.678,0,0,1-2.545-5.347,3.589,3.589,0,0,1,1.892-3.359c3.14-1.663,6.379-1.986,9.568-.175,3.372,1.916,3.7,5.389.689,7.793a29.326,29.326,0,0,1-4.329,2.35c-.2,2.986-.36,6.38-.674,9.761a23.351,23.351,0,0,1-.959,5.339c-.854,2.508-3.279,3.168-6.144,2.037a4.133,4.133,0,0,1-2.428-5.59c1.712-3.754,3.08-7.666,4.581-11.516A12.963,12.963,0,0,0,3824.5,1788.935Zm4.717-8.405c-.988.113-1.471.124-1.933.23-1.24.284-2.714.422-3.188,1.787a3.694,3.694,0,0,0,1.209,4.132c1.418,1.141,1.126,2.173.558,3.546-1.613,3.9-3.106,7.856-4.667,11.781a2.439,2.439,0,0,0,.576,3.039,4.309,4.309,0,0,0,4.067.638c1.108-.644,1.175-1.633,1.175-2.866,0-3.9.184-7.8.385-11.7a3.245,3.245,0,0,1,2.325-3,11.37,11.37,0,0,0,3.345-2.239,2.164,2.164,0,0,0-.191-3.673A19.816,19.816,0,0,0,3829.22,1780.53Z" transform="translate(-3722.731 -1736.039)"/><path class="b" d="M3671.965,1854c-.531,1.475.141,2.793,1.212,3.958,1.722,1.873,3.439,3.754,5.243,5.547,1.3,1.291,2.445,2.554,1.723,4.568a5.536,5.536,0,0,1-4.945,3.16,4.179,4.179,0,0,1-4.229-2.9c-.7-2.413-2.134-4.416-3.183-6.629a3.487,3.487,0,0,0-2.2-1.942,8.776,8.776,0,0,1-5.855-6.7,6.08,6.08,0,0,1,3.462-6.888,5.553,5.553,0,0,1,7.068,1.615A8.144,8.144,0,0,1,3671.965,1854Zm-1.956,1.064c.088-2.366-.271-4.525-1.96-6.245a3.614,3.614,0,0,0-4.583-.519,3.422,3.422,0,0,0-1.831,4.007,7.4,7.4,0,0,0,4.983,5.624,3.591,3.591,0,0,1,2.323,1.816c1.233,2.481,2.514,4.94,3.7,7.441.7,1.469,1.434,2.012,2.918,1.873a2.906,2.906,0,0,0,2.688-2c.278-1.4-.482-2.251-1.592-2.9a4.1,4.1,0,0,1-.807-.505c-1.59-1.538-3.233-3.031-4.715-4.668A4.289,4.289,0,0,1,3670.009,1855.067Z" transform="translate(-3591.344 -1790.942)"/><path class="b" d="M3646.093,2051.469c-.222.262-.394.431-.525.627-2.213,3.309-6.082,3.806-8.966,1.077a7.276,7.276,0,0,1-2.108-7.239,4.625,4.625,0,0,1,6.177-3.28,9.683,9.683,0,0,1,2.338,1.17,18.359,18.359,0,0,1,1.852,1.58c2.951-.681,5.907-1.319,8.837-2.055,2.082-.523,3.375-.046,4.321,1.809a7.122,7.122,0,0,1,.437,1.11c.878,2.792.019,4.377-2.895,4.749-2.6.332-5.239.319-7.863.447C3647.146,2051.492,3646.591,2051.469,3646.093,2051.469Zm4.331-1.954c1.128.1,2.635.258,4.146.352,1.465.09,2.474-.392,2.4-1.352a7.44,7.44,0,0,0-1.021-3.312c-.625-.982-1.693-.345-2.614-.079-2.37.683-4.764,1.284-7.147,1.92a2.524,2.524,0,0,1-2.941-.86,5.145,5.145,0,0,0-4.028-1.807,2.862,2.862,0,0,0-2.813,1.832,5.419,5.419,0,0,0,2.116,6.115c2.011,1.244,3.977.933,5.657-1.167a3.844,3.844,0,0,1,3.468-1.649C3648.439,2049.552,3649.239,2049.515,3650.424,2049.515Z" transform="translate(-3570.517 -1952.968)"/><path class="b" d="M3586.2,2135.184c2.3-2.644,4.514-5.342,6.918-7.863a5.366,5.366,0,0,1,2.912-1.328,6.141,6.141,0,0,1,5.573,2.1c1.623,1.716,1.568,3.212-.319,4.624-2.544,1.9-5.146,3.732-7.78,5.508a2.753,2.753,0,0,0-1.561,2.627,4.793,4.793,0,0,1-3.321,4.989c-2.491.916-4.9.8-6.919-1.053-1.849-1.694-1.986-3.919-1.341-6.182a4.707,4.707,0,0,1,4.639-3.421C3585.387,2135.173,3585.779,2135.184,3586.2,2135.184Zm.883,1.844c-.018,0-.318-.078-.616-.159-2.343-.639-4.167.185-4.83,2.183a4.1,4.1,0,0,0,2.507,5.252c3.405,1.309,6.19-.47,6.178-4.118a3.347,3.347,0,0,1,1.5-3.03c2.157-1.493,4.36-2.92,6.557-4.355,1.032-.675,2.711-.945,2.581-2.473s-1.771-1.868-2.955-2.474a2.323,2.323,0,0,0-.675-.234,2.713,2.713,0,0,0-2.94,1.049c-.9,1.21-2.012,2.255-3.01,3.392C3589.977,2133.657,3588.6,2135.272,3587.08,2137.028Z" transform="translate(-3525.854 -2021.716)"/><path class="b" d="M3874.057,2117.628a5.246,5.246,0,0,1-3.87,5.23c-2.524.8-5.587.082-6.571-1.972-1.1-2.3-2.961-3.429-5.062-4.424-2.613-1.236-3.292-3.321-1.892-5.84,1.131-2.034,2.633-2.473,4.759-1.4.638.323,1.3.6,1.914.964,1.25.754,2.4,1.355,3.958.519,1.122-.6,2.367,0,3.347.721A8.338,8.338,0,0,1,3874.057,2117.628Zm-9.819-4.8c-.542-.348-1.024-.63-1.474-.955a8.876,8.876,0,0,0-1.319-1.018,3.852,3.852,0,0,0-1.948-.488c-.979.135-1.891,1.612-1.916,2.778-.026,1.238.739,1.75,1.81,2.189a18.349,18.349,0,0,1,3.693,2.049,7.574,7.574,0,0,1,1.383,1.915,4.5,4.5,0,0,0,5.961,1.22c1.639-.986,1.968-2.874.845-5.064a6.466,6.466,0,0,0-.933-1.383c-1.48-1.634-2.741-1.615-4.219.045-.541.608-1.039,1.256-1.883,2.281Z" transform="translate(-3752.973 -2007.509)"/><path class="b" d="M3861.293,1951.136a13.762,13.762,0,0,1-.125-3.286c.465-2.118,2.532-3.2,5.077-2.881a6.871,6.871,0,0,1,5.532,5.542,4.151,4.151,0,0,1-3.131,4.733c-2.516.445-3.779,2.186-5.118,3.885-2.067,2.621-5.178,2.58-6.981-.239-.967-1.511-.786-2.7.581-3.942C3858.539,1953.668,3859.939,1952.376,3861.293,1951.136Zm3.45,2.846a21.737,21.737,0,0,0,3.247-.5,2.441,2.441,0,0,0,1.9-2.676,4.546,4.546,0,0,0-3.968-3.843,2.289,2.289,0,0,0-2.631,2.774c.113,1.085.3,2.162.491,3.465-.536-.119-.81-.2-1.091-.236s-.682-.163-.853-.028c-1.471,1.168-2.9,2.386-4.34,3.586a5.252,5.252,0,0,0,.4,1.033c1.415,2.029,3.252,2.043,4.7.069.375-.51.863-.947,1.185-1.486A20.41,20.41,0,0,0,3864.743,1953.982Z" transform="translate(-3752.965 -1872.737)"/><path class="b" d="M3807.736,2042.682c.052,3.3-2.449,5.717-5.959,5.763-2.931.038-5.272-1.587-5.258-3.717.032-4.791,1.55-6.785,5.981-7.272C3805.416,2037.135,3807.687,2039.592,3807.736,2042.682Zm-8.923.521c-.122,2.771.643,3.556,3.031,3.287a6.352,6.352,0,0,0,2.255-.708,3.394,3.394,0,0,0,1.3-4.748c-.791-1.494-2.271-1.921-4.134-1.192A3.331,3.331,0,0,0,3798.813,2043.2Z" transform="translate(-3704.059 -1948.882)"/><path class="b" d="M4032.969,2244c-1.654,5.069-5.268,8.571-9.277,11.742-.776.614-1.614,1.36-2.78.785.517-1.851,1.071-2.542,5.623-6.583C4028.711,2248.014,4030.173,2245.333,4032.969,2244Z" transform="translate(-3888.749 -2118.909)"/><path class="b" d="M4033.416,2211.2c.5,3.728-4.134,8.639-8.576,9.555.344-.5.543-.856.8-1.159,1.808-2.1,3.61-4.2,5.457-6.266C4031.7,2212.661,4032.43,2212.1,4033.416,2211.2Z" transform="translate(-3891.983 -2091.912)"/><path class="b" d="M3580.673,1852.633a7.463,7.463,0,0,1,2.822-6.164,1.474,1.474,0,0,1,2.163-.086,1.453,1.453,0,0,1-.093,2.15c-1.4,1.5-2.878,2.92-4.325,4.372Z" transform="translate(-3526.391 -1791.28)"/><path class="b" d="M3857.3,2368.64c1.41-.849,2.791-1.752,4.248-2.507a1.6,1.6,0,0,1,1.441.2c.633.549.2,1.22-.285,1.617A4.919,4.919,0,0,1,3857.3,2368.64Z" transform="translate(-3754.087 -2219.353)"/><path class="b" d="M4118.69,2103.567c.194-1.2.325-2.426.63-3.6a1.244,1.244,0,0,1,1.105-.536,1.268,1.268,0,0,1,.676,1.039c-.191,1.287-.4,2.637-1.728,3.3Z" transform="translate(-3969.228 -1999.903)"/><path class="b" d="M3975.037,2283.675a28.584,28.584,0,0,1,1.717-2.355c.135-.156.745-.036,1.032.132.153.089.2.613.092.845a3.076,3.076,0,0,1-2.3,1.8Z" transform="translate(-3850.992 -2149.564)"/><path class="b" d="M3540.805,2135.681c1.117,1.236,1.159,1.394.831,3.142C3539.979,2137.706,3539.848,2137.211,3540.805,2135.681Z" transform="translate(-3493.095 -2029.752)"/><path class="b" d="M3828.7,1750.273c-.052-.413-.187-.727-.088-.847a8.436,8.436,0,0,1,1.38-1.37,1.329,1.329,0,0,1,.8.639,1.36,1.36,0,0,1-1.233,1.681A3.186,3.186,0,0,1,3828.7,1750.273Z" transform="translate(-3730.444 -1710.705)"/><path class="b" d="M3560.926,1911.271c-.937-1.015-.918-1.856-.113-2.619a.829.829,0,0,1,.8.105C3562.338,1909.758,3561.776,1910.465,3560.926,1911.271Z" transform="translate(-3509.564 -1842.839)"/><path class="b" d="M3760.129,2177.561a7.406,7.406,0,0,1-.842-1.788c-.033-.205.572-.513.887-.774a8.009,8.009,0,0,1,.875,1.484C3761.105,2176.644,3760.629,2176.994,3760.129,2177.561Z" transform="translate(-3673.413 -2062.113)"/><path class="b" d="M4017.6,2212.976c.594,1.666-.424,2.229-1.734,3.088A3.055,3.055,0,0,1,4017.6,2212.976Z" transform="translate(-3884.595 -2093.371)"/><path class="b" d="M4140.739,2028.83c-1.277-1.93-1.277-1.93-.31-3C4141.315,2026.623,4140.92,2027.538,4140.739,2028.83Z" transform="translate(-3986.553 -1939.336)"/><path class="b" d="M3544.348,2106.5c-.222.138-.287.214-.35.213-.93-.021-1.546-.408-1.427-1.427a.839.839,0,0,1,.688-.441C3544.242,2105.032,3544.407,2105.731,3544.348,2106.5Z" transform="translate(-3495.029 -2004.369)"/><path class="b" d="M3763.193,2148.255c.525-.452.9-.929,1.042-.868a5.279,5.279,0,0,1,1.138.9c-.23.262-.51.771-.681.738A6.418,6.418,0,0,1,3763.193,2148.255Z" transform="translate(-3676.629 -2039.382)"/><path class="b" d="M3801.863,1754.689c-.075-.642-.111-1.261,1.317-1.289l-.679,1.595Z" transform="translate(-3708.432 -1715.108)"/></g></g></g></svg>