<svg xmlns="http://www.w3.org/2000/svg" width="58.1" height="41.912" viewBox="0 0 58.1 41.912"><defs><style>.a{fill:#0050ff;}.b{fill:#170f49;}</style></defs><g transform="translate(0 0)"><g transform="translate(20.699 13.193)"><path class="a" d="M2124.839,3479.883c-1.952-1.014-3.945.983-5.319-1.806-.356-.487.193-.985.12-1.535a2.255,2.255,0,0,1,.855-2.353c.737-1.533,1.384-1.583,2.921-1.89l.085-.032.3-.01h.085c.664-.155,2.071-.239,1.274.71.24.191,1.784.954,2.036.745.268-.608.562-.733,1.064-.254,0,0,1.32-.608,1.762.52a19.508,19.508,0,0,0,1.635,2.953l.021.043a1.78,1.78,0,0,0,2.551.692c.267,1.044-.909,2.178-1.774,2.7-.914,1-.56,2.152-.268,3.3.045.6-.716.685-1.039,1.052-.263.583.021,1.154-.574,1.646l-.021.042-.021.171-.021.042a2.092,2.092,0,0,1-2,1.753l-.01.021a1.7,1.7,0,0,1-.371.105l-.011.022c-.972.164-1.381-1.931-1.7-2.794l-.021-.01a2.764,2.764,0,0,1-.131-2.559,15.479,15.479,0,0,1-1.133-3.2l-.063-.043-.127-.01" transform="translate(-2119.399 -3472.161)"/></g><g transform="translate(0 0)"><path class="b" d="M2127.964,3461.7a.584.584,0,0,0-.172-.134.419.419,0,0,0-.186-.042h0c-2.02.015-4.04.019-6.061.052-2.429.04-4.855.1-7.281.158h-.02c-.032,0-.068,0-.108-.005a11.782,11.782,0,0,1-.2-1.173c-.018-.2-.026-.411-.026-.619,0-.24.011-.483.022-.725a1.9,1.9,0,0,1,.7-1.288l.005,0,.094-.014.049,0c.256.055.525.17.832.237a2.831,2.831,0,0,0,.606.073,1.1,1.1,0,0,0,.889-.354,1.5,1.5,0,0,0,.286-.993q0-.123-.01-.256v-.032h.029c.217.013.445.039.683.043h.02a.937.937,0,0,0,.636-.206.96.96,0,0,0,.292-.606,2.358,2.358,0,0,0,.021-.307,2.141,2.141,0,0,0-.493-1.352,1.131,1.131,0,0,0-.877-.482,1.285,1.285,0,0,0-.816.343,2.2,2.2,0,0,1-.4.269h-.01l-.033-.005h-.006a1.312,1.312,0,0,0-.824-.307,1.474,1.474,0,0,0-1.224.752c-.026.044-.052.087-.07.112l-.01.01a4.157,4.157,0,0,1-.939.182,1.042,1.042,0,0,1-.6-.176,6.59,6.59,0,0,1-1.951-2.179,1.544,1.544,0,0,1-.238-.836c0-.055,0-.111.008-.169a5.125,5.125,0,0,1,1.209-2.653,2.564,2.564,0,0,1,1.323-.956,3.411,3.411,0,0,0,1.012-.554,1.04,1.04,0,0,0,.45-.837,1.09,1.09,0,0,0-.335-.762,2.157,2.157,0,0,0-1.48-.666h-.055a.823.823,0,0,0-.5.145.771.771,0,0,0-.282.483,5.461,5.461,0,0,1-.219.64,2.536,2.536,0,0,1-1.368,1.635,1.7,1.7,0,0,0-.594.421,1.767,1.767,0,0,1-1.429.6q-.138,0-.284-.013a5,5,0,0,1-1.333-.281,1.734,1.734,0,0,1,.186-.133c.21-.128.458-.234.7-.379a1.233,1.233,0,0,0,.668-1.049,1.3,1.3,0,0,0-.339-.839,2.652,2.652,0,0,0-1.98-.939h-.069a.94.94,0,0,0-.706.249,1.057,1.057,0,0,0-.25.719c0,.08,0,.161,0,.242,0,.222.009.439.009.651,0,.067,0,.133,0,.2,0,.16-.025.329-.046.5-.253-.173-.5-.342-.725-.526a.641.641,0,0,1-.245-.524,1.111,1.111,0,0,1,.021-.2,2.634,2.634,0,0,0,.042-.476,3.314,3.314,0,0,0-.031-.449,4.537,4.537,0,0,1-.044-.617,2.383,2.383,0,0,1,1.063-2.111,2.218,2.218,0,0,0,.393-.357,1.049,1.049,0,0,0,.293-.687.764.764,0,0,0-.138-.439,1.013,1.013,0,0,0-.384-.321,8.59,8.59,0,0,0-1.583-.618,1.247,1.247,0,0,0-.329-.047.806.806,0,0,0-.633.28,1.114,1.114,0,0,0-.237.689h0v0h0v.056c0,.164.023.313.034.447.045.578.136,1.141.135,1.684,0,.048,0,.1,0,.143a2.261,2.261,0,0,1-.52,1.371,6.776,6.776,0,0,1-1.138,1.065,1.179,1.179,0,0,1-.572.2c-1.059.109-2.123.193-3.188.282-.116.009-.221.015-.314.015a.837.837,0,0,1-.558-.132.358.358,0,0,1-.1-.162,1.024,1.024,0,0,1-.04-.315,3.12,3.12,0,0,1,.035-.432c.072-.5.23-1.009.357-1.536a1.819,1.819,0,0,0,.054-.417.857.857,0,0,0-.306-.7,1.283,1.283,0,0,0-.81-.229h-1.213c0-.036,0-.071,0-.11a2.275,2.275,0,0,0-.01-.229,1.015,1.015,0,0,0-.214-.587.779.779,0,0,0-.558-.247c-.087-.007-.174-.01-.261-.01a2.95,2.95,0,0,0-1.7.508,1.1,1.1,0,0,0-.527.895,1.2,1.2,0,0,0,.5.916q.206.166.422.316a2.41,2.41,0,0,1,.559.513,1.364,1.364,0,0,1,.27.666c.028.218.09.405.116.573a3.741,3.741,0,0,1,.049.573,1.8,1.8,0,0,1-.748,1.547c-.593.452-1.153.943-1.7,1.439a2.359,2.359,0,0,1-1.581.749,2.523,2.523,0,0,1-1.216-.369,8.045,8.045,0,0,1-1.322-.981,2.587,2.587,0,0,1-.5-.542,1.2,1.2,0,0,1-.194-.66,1.438,1.438,0,0,1,.007-.146h0l0-.094a.791.791,0,0,0-.292-.626,1.022,1.022,0,0,0-.654-.217,1.342,1.342,0,0,0-.193.014,2.537,2.537,0,0,0-1.863,1.756,1.076,1.076,0,0,0-.019.155c0,.041,0,.081,0,.121a.949.949,0,0,0,.228.671.875.875,0,0,0,.652.245,1.67,1.67,0,0,0,.21-.014,2,2,0,0,1,.272-.018,1.63,1.63,0,0,1,1.331.622h0a3.074,3.074,0,0,0-1.39,1.728,2.025,2.025,0,0,0-.1.6,1.366,1.366,0,0,0,.349.924.942.942,0,0,0,.742.349,2.255,2.255,0,0,0,.588-.1,1.05,1.05,0,0,1,.276-.037,1.863,1.863,0,0,1,.658.15,1.87,1.87,0,0,0-.155.5,1.936,1.936,0,0,1-.65,1.163,1.641,1.641,0,0,0-.434.786,1.058,1.058,0,0,1-.789.874,9.169,9.169,0,0,1-1.01.205c-.543.1-1.114.155-1.678.3a1.725,1.725,0,0,1-.445.067.682.682,0,0,1-.455-.146,1.32,1.32,0,0,1-.353-.528,2.1,2.1,0,0,0-.476-.649.758.758,0,0,0-.524-.224.668.668,0,0,0-.4.135,2.207,2.207,0,0,0-.947,1.739,2.03,2.03,0,0,0,.681,1.479.854.854,0,0,0,.588.234.828.828,0,0,0,.612-.267.856.856,0,0,1,.675-.3,1.442,1.442,0,0,1,.216.018,4.327,4.327,0,0,1,2.588,1.387.681.681,0,0,1,.139.381l-.008.061-.029.038a.179.179,0,0,1-.083.016,1.013,1.013,0,0,1-.281-.058c-.494-.165-.986-.377-1.5-.546a2.208,2.208,0,0,0-.68-.127c-.039,0-.078,0-.117.005a1.02,1.02,0,0,0-.651.313,2.336,2.336,0,0,0-.367.539l-.076.088-.04.028,0,0c-1.3.059-2.6.139-3.9.139h-.122c-1.66-.006-3.326-.092-5-.139h-.027a3.15,3.15,0,0,0-.371.042l-.2.022.01.2c0,.046.006.092.008.135l.011.193.192.006c1.971.06,3.948.176,5.915.176,1.137,0,2.271-.041,3.4-.153a6.057,6.057,0,0,0,.356,1.084,1.161,1.161,0,0,0,.352.428.822.822,0,0,0,.482.155,1.206,1.206,0,0,0,.676-.24c.257-.178.506-.357.76-.516a.711.711,0,0,1,.381-.122.724.724,0,0,1,.347.1,7.7,7.7,0,0,0,.725.311,1.378,1.378,0,0,1,.857,1.063,3.955,3.955,0,0,1,.073.778,9.079,9.079,0,0,1-.2,1.655,1.059,1.059,0,0,1-.308.566c-.63.526-1.3,1.014-1.969,1.5a.373.373,0,0,1-.225.077.614.614,0,0,1-.281-.081,2.688,2.688,0,0,0-.748-.267,1.316,1.316,0,0,0-.24-.023.848.848,0,0,0-.624.244.99.99,0,0,0-.257.649c0,.063-.006.129-.006.194a2.406,2.406,0,0,0,.1.733,3.152,3.152,0,0,0,.43.906,1.807,1.807,0,0,0,.839.646,1.209,1.209,0,0,0,.425.08,1.019,1.019,0,0,0,.715-.282,1.034,1.034,0,0,0,.306-.74.846.846,0,0,1,.142-.493,1.074,1.074,0,0,1,.407-.324,4.147,4.147,0,0,1,1.927-.416h.118a1.687,1.687,0,0,1,1.313.6c.788.916,1.586,1.822,2.372,2.736l.022.039.007.019a.747.747,0,0,1-.14.25.4.4,0,0,1-.254.115,5.844,5.844,0,0,0-1.192.281,1,1,0,0,0-.519.388,1.084,1.084,0,0,0-.165.6l0,.064a2.505,2.505,0,0,0,1.74,1.943,1.526,1.526,0,0,0,.231.018,1.068,1.068,0,0,0,.619-.182,1.146,1.146,0,0,0,.4-.536,6.414,6.414,0,0,0,.25-.923,1.377,1.377,0,0,1,.21-.466.582.582,0,0,1,.009.073c0,.069,0,.136,0,.2a2.682,2.682,0,0,1-.219,1.176,1.854,1.854,0,0,1-.885.846,1.782,1.782,0,0,0-.627.492,1.033,1.033,0,0,0-.225.632,1.109,1.109,0,0,0,.243.671,2.011,2.011,0,0,0,.66.536c.058.031.1.046.13.058h0a1.4,1.4,0,0,0,.585.136,1.056,1.056,0,0,0,.667-.228,1.255,1.255,0,0,0,.41-.632c.11-.365.134-.728.205-1.051a8.332,8.332,0,0,1,.206-.9,1.265,1.265,0,0,1,.479-.671,3.28,3.28,0,0,0,.524-.487,1.752,1.752,0,0,1,.359-.317.507.507,0,0,1,.276-.086,1.106,1.106,0,0,1,.627.3,2.037,2.037,0,0,0,.721.44.874.874,0,0,1,.46.255.839.839,0,0,1,.2.451,13,13,0,0,1,.139,1.843v.069a1.806,1.806,0,0,1-.809,1.489,2.145,2.145,0,0,0-.552.682.912.912,0,0,0-.122.45.808.808,0,0,0,.311.64,2.977,2.977,0,0,0,1.84.74,2.431,2.431,0,0,0,.635-.087,1.237,1.237,0,0,0,.659-.423,1.157,1.157,0,0,0,.241-.723,1.42,1.42,0,0,0-.022-.248,9.937,9.937,0,0,0-.274-1.009c-.008-.029-.017-.059-.026-.087a1.728,1.728,0,0,0,.235.155,1.863,1.863,0,0,0,.879.2,2.976,2.976,0,0,0,.561-.057,1.047,1.047,0,0,0,.888-1.028,1.167,1.167,0,0,0-.08-.417,8.8,8.8,0,0,0-.387-.795,2.54,2.54,0,0,1-.292-1.151,2.325,2.325,0,0,1,.025-.338.2.2,0,0,1,.037-.11c.009-.007.024-.022.1-.031a6.924,6.924,0,0,0,.783-.121c.706-.147,1.4-.322,2.093-.444a2.089,2.089,0,0,1,.371-.035,1.2,1.2,0,0,1,.883.339c.443.428.9.827,1.292,1.266a1.67,1.67,0,0,1,.387.725,12.5,12.5,0,0,1,.081,1.284,11.183,11.183,0,0,0,.184,1.284.78.78,0,0,0,.295.476.85.85,0,0,0,.51.156l.1,0a2.491,2.491,0,0,0,1.446-.553,1.178,1.178,0,0,0,.432-.9,1.2,1.2,0,0,0-.487-.949,7.1,7.1,0,0,1-.566-.487,1.85,1.85,0,0,1-.665-1.365,1.914,1.914,0,0,1,.038-.369,1.654,1.654,0,0,0,.026-.3,3.213,3.213,0,0,0-.131-.825,1.576,1.576,0,0,1-.06-.406.989.989,0,0,1,.307-.723,2.679,2.679,0,0,1,1.578-.762l.1-.008a.906.906,0,0,1,.318.061c.512.205,1.019.465,1.562.671a1.358,1.358,0,0,1,.79.705c.243.5.483,1,.726,1.5a1.451,1.451,0,0,0,.326.463.7.7,0,0,0,.468.187,1.12,1.12,0,0,0,.691-.307,5.651,5.651,0,0,0,.817-.868,1.511,1.511,0,0,0,.391-.917,1.049,1.049,0,0,0-.105-.455.9.9,0,0,0-.545-.491,1.963,1.963,0,0,0-.633-.074h-.07a1.538,1.538,0,0,1-.854-.22,1.194,1.194,0,0,1-.485-.684,14.566,14.566,0,0,1-.34-1.427c.095.275.188.554.3.833a.766.766,0,0,0,.748.5,1.251,1.251,0,0,0,.153-.01,2.438,2.438,0,0,0,1.344-.7,2.5,2.5,0,0,0,.729-1.335,2.285,2.285,0,0,0,.032-.377,1.779,1.779,0,0,0-.349-1.1,1.361,1.361,0,0,0-1.108-.51,2.146,2.146,0,0,0-.468.055,1.775,1.775,0,0,1-.379.044,1.5,1.5,0,0,1-.413-.06c.41-.587.8-1.15,1.2-1.69a2,2,0,0,1,1.454-.923c.712-.06,1.414-.145,2.1-.145l.108,0a3.148,3.148,0,0,1,1.146.19,1.767,1.767,0,0,1,.863.737.822.822,0,0,0,.7.415.961.961,0,0,0,.7-.337,2.436,2.436,0,0,0,.677-1.669,2.736,2.736,0,0,0-.1-.73,1.192,1.192,0,0,0-.363-.6.947.947,0,0,0-.619-.221,1.356,1.356,0,0,0-.531.118c-.287.123-.554.271-.817.405a1.148,1.148,0,0,1-.53.152.8.8,0,0,1-.378-.1,2.233,2.233,0,0,0-.539-.161c-.56-.129-1.116-.222-1.64-.379a1.126,1.126,0,0,1-.6-.379,1.086,1.086,0,0,1-.206-.646c0-.063,0-.125,0-.19,0-.135,0-.272,0-.414,0-.076,0-.152,0-.23v-.026l.006-.059a.357.357,0,0,1,.1-.011c2.652-.054,5.3-.126,7.953-.185,1.387-.031,2.776-.045,4.166-.06h.077c.36,0,.728.026,1.106.026a.568.568,0,0,0,.21-.045c.053-.021.095-.04.123-.049l.31-.1Zm-13.1,3.245c.426.12.853.187,1.259.281a4.365,4.365,0,0,1,.767.2,1.585,1.585,0,0,0,.632.135,1.752,1.752,0,0,0,.839-.23c.215-.116.428-.228.645-.326a.917.917,0,0,1,.369-.1.327.327,0,0,1,.248.1.73.73,0,0,1,.169.368,2.216,2.216,0,0,1,.048.449,1.769,1.769,0,0,1-.5,1.238.392.392,0,0,1-.258.154c-.047,0-.093-.013-.167-.127a2.24,2.24,0,0,0-1.1-.946,4.491,4.491,0,0,0-1.343-.269c-.21-.018-.419-.026-.629-.026a9.122,9.122,0,0,0-2.171.275,2.257,2.257,0,0,0-1.291.863c-.491.652-.951,1.325-1.393,2.008a.534.534,0,0,1-.066.086l-.026-.021c-.187-.183-.355-.414-.561-.636a5.954,5.954,0,0,0-.737-.741.606.606,0,0,1-.281-.464.5.5,0,0,1,.159-.346,2.887,2.887,0,0,0,.46-.6,1.609,1.609,0,0,0,.2-.79v-.021a1.756,1.756,0,0,1,.1-.491,3.134,3.134,0,0,0,.144-.6c.06-.613.079-1.229.079-1.84v-.058h0c0-.049,0-.093,0-.133a1.883,1.883,0,0,1,.007-.211l0-.021a.7.7,0,0,1,.161-.011c.059,0,.133,0,.219,0,.865.086,1.775.179,2.686.267a.862.862,0,0,0-.007.1c0,.205-.015.421-.015.641a3.216,3.216,0,0,0,.042.566,1.446,1.446,0,0,0,.47.85A2.1,2.1,0,0,0,2114.864,3464.949Zm-2.674,4.92c.112,0,.225,0,.339-.008.044,0,.087,0,.126,0a.948.948,0,0,1,.719.229,1.081,1.081,0,0,1,.223.771v.036a1.591,1.591,0,0,1-.469,1.109,2.3,2.3,0,0,1-1.06.619l-.078.01a.194.194,0,0,1-.134-.051.437.437,0,0,1-.113-.177c-.137-.359-.25-.735-.383-1.114-.067-.189-.145-.369-.218-.543a2.342,2.342,0,0,0-.115-.219l-.034-.071,0-.016a2.372,2.372,0,0,1,.247-.577l.073-.007h.033C2111.617,3469.855,2111.9,3469.869,2112.19,3469.869Zm-.672,4.771a2.212,2.212,0,0,0,.973.218,3.026,3.026,0,0,1,.506.029.443.443,0,0,1,.251.129.306.306,0,0,1,.08.211.448.448,0,0,1-.036.169,2.838,2.838,0,0,1-1.093,1.273.3.3,0,0,1-.143.061l-.049-.021a.483.483,0,0,1-.1-.146c-.279-.537-.543-1.083-.807-1.632a1.891,1.891,0,0,0-1.107-1,15.328,15.328,0,0,1-1.474-.645,1.309,1.309,0,0,0-.584-.132,2.413,2.413,0,0,0-.557.078,3.014,3.014,0,0,0-1.773,1.036,1.574,1.574,0,0,0-.344,1,2.21,2.21,0,0,0,.065.513,3.547,3.547,0,0,1,.124.779,1.183,1.183,0,0,1-.016.2,2.576,2.576,0,0,0-.039.442,2.2,2.2,0,0,0,.346,1.192,3.841,3.841,0,0,0,.836.906c.092.075.18.136.253.2a.663.663,0,0,1,.285.491.552.552,0,0,1-.293.45,3.2,3.2,0,0,1-.941.362.4.4,0,0,1-.1.014.232.232,0,0,1-.163-.058.353.353,0,0,1-.1-.194,8.164,8.164,0,0,1-.122-1.05c-.03-.4-.043-.8-.059-1.209a1.823,1.823,0,0,0-.666-1.342q-.619-.542-1.192-1.135a1.676,1.676,0,0,0-1.237-.528,1.968,1.968,0,0,0-.292.021c-.812.118-1.606.3-2.4.452-.191.037-.387.07-.612.108.127-.364.237-.685.357-1a3.055,3.055,0,0,1,.246-.479.691.691,0,0,1,.261-.262.863.863,0,0,1,.389-.09,7.342,7.342,0,0,0,1.1-.177,18.568,18.568,0,0,0,1.994-.4,5.43,5.43,0,0,0,3.039-2.4,1.224,1.224,0,0,0,.2-.622h0v-.005a1.022,1.022,0,0,1,.047-.336.4.4,0,0,1,.2-.237,1.1,1.1,0,0,1,.458-.095c.065,0,.13,0,.195,0a5.164,5.164,0,0,1,2.781.874l.022.1v.01c-.015.162-.022.324-.022.484a6.519,6.519,0,0,0,.622,2.662A1.492,1.492,0,0,0,2111.518,3474.64Zm-13.045,5.121a1.343,1.343,0,0,1-.4.062,1.189,1.189,0,0,1-1.156-.795.671.671,0,0,1-.032-.2.245.245,0,0,1,.013-.092c.249-.594.521-1.179.8-1.766a.892.892,0,0,1,.239-.328.391.391,0,0,1,.138-.067,12.094,12.094,0,0,0,.221,1.434,6.71,6.71,0,0,0,.487,1.079.607.607,0,0,1,.058.246.391.391,0,0,1-.086.25A.577.577,0,0,1,2098.472,3479.761Zm-2.044,2.056a.765.765,0,0,1-.516.208c-.043,0-.085,0-.127,0a2.406,2.406,0,0,1-1.481-.563.284.284,0,0,1-.127-.227.342.342,0,0,1,.061-.185,1.862,1.862,0,0,1,.417-.464,2.288,2.288,0,0,0,.977-1.794c0-.046,0-.093,0-.14a16.242,16.242,0,0,0-.168-2.148,1.166,1.166,0,0,0-.354-.7,1.718,1.718,0,0,0-.68-.376,1.854,1.854,0,0,1-.572-.365,1.569,1.569,0,0,0-.969-.437,1.058,1.058,0,0,0-.522.145,2.228,2.228,0,0,0-.49.392,8.431,8.431,0,0,0-.76.717,2.928,2.928,0,0,0-.5.96,12.851,12.851,0,0,0-.3,1.531.927.927,0,0,1-.225.51.478.478,0,0,1-.359.155.876.876,0,0,1-.507-.2,1.814,1.814,0,0,1-.37-.339.372.372,0,0,1-.095-.224.377.377,0,0,1,.094-.225,1.84,1.84,0,0,1,.367-.339,1.936,1.936,0,0,1,.182-.132,3.707,3.707,0,0,0,.576-.345,1.348,1.348,0,0,0,.45-.6,4.164,4.164,0,0,0,.3-1.447,2.893,2.893,0,0,0-.045-.513l0-.051a.355.355,0,0,0-.044-.143.4.4,0,0,1-.063-.2.364.364,0,0,1,.059-.185,1.349,1.349,0,0,1,.186-.229,4.184,4.184,0,0,1,1.9-1.277,4.992,4.992,0,0,1,.506-.093c.385.052.738.113,1.1.144.262.022.529.037.8.037.083,0,.167,0,.251,0h0l.074,0a1.047,1.047,0,0,1,.52.114.729.729,0,0,1,.318.385,13.187,13.187,0,0,1,.68,1.925,1.443,1.443,0,0,1,.033.315,2.245,2.245,0,0,1-.147.776,10.722,10.722,0,0,0-.7,2.721l-.022-.014.016.056c0,.013,0,.025,0,.038a1.455,1.455,0,0,0-.007.155,6.31,6.31,0,0,0,.243,1.279c.06.271.166.5.209.706a1.068,1.068,0,0,1,.024.219A.649.649,0,0,1,2096.428,3481.817Zm-7.417-5.782a.678.678,0,0,1-.192.243.307.307,0,0,1-.192.063.7.7,0,0,1-.321-.1,1.972,1.972,0,0,1-1.041-1.193.614.614,0,0,1-.032-.184.319.319,0,0,1,.054-.186.438.438,0,0,1,.192-.141,3.942,3.942,0,0,1,.84-.252,2.223,2.223,0,0,0,.688-.186,1.006,1.006,0,0,0,.244-.2c.035-.036.069-.077.107-.122a4.36,4.36,0,0,1,.346.387l.007.05,0,.033a2.526,2.526,0,0,0-.49,1.193A1.8,1.8,0,0,1,2089.011,3476.035Zm.51-3.055c-.16-.187-.444-.511-.542-.621q-1.029-1.166-2.057-2.331a2.2,2.2,0,0,0-1.688-.744l-.172,0a4.639,4.639,0,0,0-2.29.513,1.618,1.618,0,0,0-.56.474,1.329,1.329,0,0,0-.233.736.612.612,0,0,1-.139.4.361.361,0,0,1-.279.123.636.636,0,0,1-.376-.146,1.869,1.869,0,0,1-.8-1.55c0-.071,0-.145.011-.22a.394.394,0,0,1,.091-.246.234.234,0,0,1,.182-.065.589.589,0,0,1,.163.025c.182.047.388.187.664.255a2.131,2.131,0,0,0,.482.075.7.7,0,0,0,.3-.058,7.419,7.419,0,0,0,2.346-1.727,1.939,1.939,0,0,0,.459-.926,5.861,5.861,0,0,0,.1-.96c.005-.134.007-.267.007-.4,0-.463-.031-.922-.06-1.375a1.273,1.273,0,0,0-.386-.853,2.62,2.62,0,0,0-.724-.468c-.275-.13-.547-.223-.777-.348a1.259,1.259,0,0,0-.606-.16,1.567,1.567,0,0,0-.845.283c-.242.156-.467.327-.689.49a.454.454,0,0,1-.262.109c-.08,0-.164-.037-.277-.182a1.2,1.2,0,0,1-.148-.26,1.454,1.454,0,0,1-.138-.478.128.128,0,0,1,.012-.064c.005-.008.025-.033.116-.058a1.95,1.95,0,0,1,.419-.044c.818-.019,1.65-.013,2.482-.1a4.714,4.714,0,0,0,2.406-.936,2.154,2.154,0,0,1,.361-.242,3.583,3.583,0,0,0,1.805-1.859,15.385,15.385,0,0,0,.872-2.294,2.4,2.4,0,0,0,.077-.606,2.586,2.586,0,0,0-1.255-2.159,3.746,3.746,0,0,1-.359-.221l-.025-.035-.008-.015a2.693,2.693,0,0,0,.043-.476,2.853,2.853,0,0,0-.028-.372,4.356,4.356,0,0,0,2.462.836,3.924,3.924,0,0,0,1.369-.254,2.261,2.261,0,0,0,.679-.37c.821-.694,1.66-1.381,2.442-2.136a4.331,4.331,0,0,0,1.227-2.206,2.873,2.873,0,0,0,.068-.613,2.732,2.732,0,0,0-.179-.957c.021.012.04.027.063.038a2.077,2.077,0,0,1,.975,1.153,3.136,3.136,0,0,0,1.1,1.364,4.45,4.45,0,0,0,1.577.65,7.19,7.19,0,0,1,2.218.883,1.2,1.2,0,0,0,.63.2,1.011,1.011,0,0,0,.56-.175c.759-.5,1.517-1,2.255-1.539a2.271,2.271,0,0,0,.55-.682.407.407,0,0,1,.038-.055l.033.015c.1.057.2.1.295.143a12.681,12.681,0,0,0-.432,1.413,10.478,10.478,0,0,0-.182,1.654h0l0,.062a1.537,1.537,0,0,0,.18.7,4.235,4.235,0,0,0,.361.563,7.7,7.7,0,0,0,3.1,2.68,4.329,4.329,0,0,0,1.3.293c.875.09,1.754.157,2.634.191l.12,0a2.364,2.364,0,0,0,1.177-.286,2.3,2.3,0,0,0,.867-.891.261.261,0,0,1,.088-.074.732.732,0,0,1,.17-.073c.385-.115.8-.188,1.21-.31a.294.294,0,0,1,.084-.016h.015l.01.013.028.059c.111.3.228.6.311.887l-.021.043-.006.007a5.434,5.434,0,0,0-2.069,1.084.463.463,0,0,1-.228.05,4.684,4.684,0,0,0-2.568.937,4.536,4.536,0,0,0-1.679,2.148,9.783,9.783,0,0,0-.252,1.27l-.009.042.059.271c0,.393.012.763.012,1.117,0,.235,0,.464-.022.69-.033.482-.2.99-.242,1.541a2.012,2.012,0,0,1-.6,1.3.99.99,0,0,0-.274.681,1.24,1.24,0,0,0,.522.971,5.784,5.784,0,0,1,.668.668c.24.251.477.5.7.759l.039.1a2.312,2.312,0,0,1-.145.323,11.651,11.651,0,0,0-1.644-.637,6.546,6.546,0,0,0-1.6-.182l-.22,0a1.03,1.03,0,0,0-.8.334,1.511,1.511,0,0,0-.3.806,1.565,1.565,0,0,1-.32.727,5,5,0,0,1-2.523,1.83,7.036,7.036,0,0,1-.856.133,3.328,3.328,0,0,0-.57.1,5.455,5.455,0,0,1-1.718.325.977.977,0,0,0-.9.607c-.25.56-.475,1.129-.691,1.7a.4.4,0,0,1-.068.134c-.012.009-.018.02-.1.027a1.121,1.121,0,0,0-.619.229,2.418,2.418,0,0,0,.114-.715,2.1,2.1,0,0,0-.118-.7c-.21-.6-.424-1.213-.673-1.811a1.368,1.368,0,0,0-.563-.674,1.631,1.631,0,0,0-.843-.205h-.05c-.138,0-.277.006-.414.006a5.012,5.012,0,0,1-1.035-.088,3.176,3.176,0,0,0-.671-.072,3.731,3.731,0,0,0-2.463,1.085,8.951,8.951,0,0,0-.694.717,6.792,6.792,0,0,1-.5-.577l-.17.124.17-.124C2089.612,3473.086,2089.576,3473.044,2089.522,3472.98Zm-8.5-11.755a.445.445,0,0,1,.146.023c.251.086.5.183.754.283h-1.415a.623.623,0,0,1,.128-.157A.6.6,0,0,1,2081.021,3461.225Zm-.268-2.383c-.052,0-.1-.006-.157-.006a1.473,1.473,0,0,0-1.064.414.847.847,0,0,1-.156.123.128.128,0,0,1-.152,0,.848.848,0,0,1-.16-.13,1.3,1.3,0,0,1-.4-.926,1.315,1.315,0,0,1,.265-.785c.02-.029.06-.07.1-.138a.941.941,0,0,1,.227-.26.245.245,0,0,1,.147-.058.252.252,0,0,1,.177.093.961.961,0,0,1,.2.326,1.942,1.942,0,0,0,.574.862,1.224,1.224,0,0,0,.783.26,2.874,2.874,0,0,0,.9-.181,7.894,7.894,0,0,1,1.133-.189,12.82,12.82,0,0,0,1.464-.29,1.462,1.462,0,0,0,.705-.443,1.673,1.673,0,0,0,.359-.767,1.191,1.191,0,0,1,.305-.552,2.745,2.745,0,0,0,.792-1.415,2.044,2.044,0,0,1,.114-.423l.014-.025.014,0a1.967,1.967,0,0,1,.4.243,1.931,1.931,0,0,1,.874,1.621,2.586,2.586,0,0,1-.162.872,12.853,12.853,0,0,1-1.066,2.24,4.592,4.592,0,0,1-1.662,1.321c-.272.171-.558.326-.849.475a1.411,1.411,0,0,1-.22.086,2.2,2.2,0,0,0-.967-1.307A5.119,5.119,0,0,0,2080.753,3458.842Zm4.934-5.521a2.29,2.29,0,0,0-.637.094.754.754,0,0,1-.206.032.358.358,0,0,1-.237-.077.636.636,0,0,1-.181-.276.916.916,0,0,1-.063-.335,1.237,1.237,0,0,1,.107-.475,2.55,2.55,0,0,1,1.118-1.291l.041,0,.037,0a4.827,4.827,0,0,1,.926,2c.009.054.012.117.017.182s-.008.127-.015.176-.014.109-.021.146c-.036-.01-.081-.025-.14-.045A2.306,2.306,0,0,0,2085.688,3453.322Zm-2.194-4.067-.1.008a.2.2,0,0,1-.165-.056.338.338,0,0,1-.059-.226v-.011a.861.861,0,0,1,.077-.346,1.988,1.988,0,0,1,1.118-1.046.705.705,0,0,1,.254-.054.311.311,0,0,1,.239.092.426.426,0,0,1,.094.3l0,.078h0c-.006.057-.008.113-.008.167a1.367,1.367,0,0,0,.326.908,6.063,6.063,0,0,0,2.48,1.886,2.931,2.931,0,0,0,1.043.2,2.852,2.852,0,0,0,1.927-.813q.852-.763,1.745-1.486a2.9,2.9,0,0,0,.742-.859,2.362,2.362,0,0,0,.282-1.13v-.021l0-.021c-.105-.54-.2-1.088-.322-1.635a1.951,1.951,0,0,0-.818-1.1,6.083,6.083,0,0,1-.693-.567.39.39,0,0,1-.136-.267.383.383,0,0,1,.154-.277,2.172,2.172,0,0,1,1.549-.507l.111,0a.343.343,0,0,1,.112.087.358.358,0,0,1,.078.117,1.261,1.261,0,0,1,.046.305.451.451,0,0,1-.049.222.518.518,0,0,1-.2.194.884.884,0,0,0-.4.774,1.285,1.285,0,0,0,.162.609,12.3,12.3,0,0,0,1.061,1.672,2.826,2.826,0,0,1,.677,1.73,2.759,2.759,0,0,1-.508,1.515,6.59,6.59,0,0,1-1.815,1.895,4.25,4.25,0,0,0-.677.556,2.851,2.851,0,0,1-2.1.918,3.9,3.9,0,0,1-1.751-.456,1.3,1.3,0,0,1-.487-.386,1.037,1.037,0,0,1-.182-.574,2.446,2.446,0,0,0-.25-.833.973.973,0,0,0-.4-.46,1.215,1.215,0,0,0-.581-.151.481.481,0,0,1-.285-.122,2.436,2.436,0,0,0-1.84-.874A2.708,2.708,0,0,0,2083.494,3449.255Zm12.311-5.521a.244.244,0,0,1,.054.152l0,.1a1.467,1.467,0,0,1-.043.372,7.346,7.346,0,0,0-.37,1.912c0,.058.005.115.009.173-.183-.21-.364-.42-.53-.634-.239-.308-.454-.648-.691-.985a1.081,1.081,0,0,1-.185-.649,2.927,2.927,0,0,1,.036-.4l.042-.036.037-.019.008,0c.388-.022.779-.034,1.168-.034.114,0,.229,0,.343,0A.159.159,0,0,1,2095.8,3443.733Zm4.239,3.58a2.228,2.228,0,0,0,1.653-.736,10.886,10.886,0,0,0,1.062-1.273,2.682,2.682,0,0,0,.379-1.475,8.118,8.118,0,0,0-.069-.938c-.046-.391-.114-.767-.132-1.132v0l0-.051a.469.469,0,0,1,.067-.278.171.171,0,0,1,.152-.065.522.522,0,0,1,.132.02,9.43,9.43,0,0,1,1.642.657.126.126,0,0,1,.083.123.288.288,0,0,1-.069.171,1.21,1.21,0,0,1-.323.32,2.239,2.239,0,0,0-.865.843,3.9,3.9,0,0,0-.409,1.083,3.392,3.392,0,0,0-.1.811,3.052,3.052,0,0,0,.068.644,1.766,1.766,0,0,1,.036.363,1.922,1.922,0,0,1-.044.407h0a1.349,1.349,0,0,0-.034.3,1.292,1.292,0,0,0,.493.985,5.382,5.382,0,0,0,.849.583.332.332,0,0,1,.057.04l-.018.026a3.27,3.27,0,0,1-.505.585c-.619.459-1.269.887-1.914,1.329a.723.723,0,0,1-.409.149.67.67,0,0,1-.369-.126,8.5,8.5,0,0,0-2.628-1,2.61,2.61,0,0,1-1.891-1.495,4.678,4.678,0,0,0-.349-.61C2097.762,3447.477,2098.9,3447.38,2100.043,3447.313Zm7.6.028a.415.415,0,0,1-.179.316,5.933,5.933,0,0,1-.59.385,5.957,5.957,0,0,0-.763.514c-.078.065-.1.066-.13.069a.384.384,0,0,1-.132-.036,1.715,1.715,0,0,1-.338-.161l-.012-.017a.291.291,0,0,1-.008-.088c0-.064.007-.159.018-.288.008-.1.01-.207.01-.307s0-.217,0-.323v-.155c0-.15,0-.3,0-.441,0-.085,0-.171,0-.254a.434.434,0,0,1,.093-.3.346.346,0,0,1,.265-.085h.026a1.88,1.88,0,0,1,1.665.924A.481.481,0,0,1,2107.64,3447.342Zm1.281,2.377a3.732,3.732,0,0,0,.99-.472,2.744,2.744,0,0,0,.382-.3,1.334,1.334,0,0,1,.309-.222,3.188,3.188,0,0,0,1.7-2.037c.067-.2.138-.407.194-.624a.3.3,0,0,1,.083-.161.183.183,0,0,1,.13-.037l.073.005a1.637,1.637,0,0,1,1.021.514.477.477,0,0,1,.15.3.344.344,0,0,1-.156.264,2.561,2.561,0,0,1-.85.509,3.539,3.539,0,0,0-1.946,1.558,5.358,5.358,0,0,0-1.057,2.756h0v0h0l0,.089a2.449,2.449,0,0,0,.418,1.289,6.761,6.761,0,0,0,1.845,2.09,2.016,2.016,0,0,0,1.165.428,1.6,1.6,0,0,0,.469-.078,1.393,1.393,0,0,1-.3.254,1.36,1.36,0,0,1-.72.2h-.129c-.728,0-1.469-.08-2.219-.126-.062,0-.16-.032-.294-.034l-.058,0a2.369,2.369,0,0,1-.237.011,3.381,3.381,0,0,1-1.985-.791,8.517,8.517,0,0,1-1.964-2,1.848,1.848,0,0,1-.373-1.1,2.02,2.02,0,0,1,.024-.31,6.563,6.563,0,0,1,.5-2.131.47.47,0,0,1,.1-.137.08.08,0,0,1,.063-.021.474.474,0,0,1,.139.028,5.9,5.9,0,0,0,1.807.363A3.02,3.02,0,0,0,2108.921,3449.719Zm9.313,5.093a2.157,2.157,0,0,1,.133.347c.03.1.053.187.076.263a1.076,1.076,0,0,1-.041.327.293.293,0,0,1-.159.2,1.03,1.03,0,0,1-.4.078l-.091,0a.634.634,0,0,1-.514-.182,1.239,1.239,0,0,1-.24-.561,1.554,1.554,0,0,0-.119-.3.508.508,0,0,1-.054-.154.757.757,0,0,1,.133-.088,1.73,1.73,0,0,0,.224-.143.938.938,0,0,1,.537-.259.354.354,0,0,1,.239.1A1.218,1.218,0,0,1,2118.234,3454.812Zm-4.315,2.6h0Zm-.549,3.614c.032.209.052.428.08.68l-.217,0c-.079,0-.155,0-.229-.008-.814-.069-1.63-.154-2.448-.224a.515.515,0,0,1-.067-.009.438.438,0,0,1,0-.07v-.037a2.667,2.667,0,0,1,.52-1.642,4.775,4.775,0,0,1,2.843-1.86,3.164,3.164,0,0,0-.592,1.938A8.282,8.282,0,0,0,2113.369,3461.024Zm2.8-3.408a1.679,1.679,0,0,1-.25-.02,3.071,3.071,0,0,1-.438-.1c-.081-.025-.164-.054-.256-.088a4.232,4.232,0,0,1,1.377-.711c.062-.02.115-.034.152-.043.005.041.01.1.014.165,0,.043,0,.082,0,.119a.76.76,0,0,1-.147.525A.58.58,0,0,1,2116.167,3457.615Zm-29.677-6.514c-.015-.025-.031-.051-.046-.075a.582.582,0,0,1,.051.084Z" transform="translate(-2070.087 -3440.731)"/><path class="b" d="M2155.471,3452.2Z" transform="translate(-2119.631 -3447.383)"/><path class="b" d="M2132.139,3531.875h0Z" transform="translate(-2106.093 -3493.616)"/><g transform="translate(13.63 20.602)"><path class="b" d="M2107.972,3502.59l-.531-.338a10.269,10.269,0,0,0,.769-1.39,10.529,10.529,0,0,0,.32-2.051c.054-.562.116-1.2.221-1.842a3.981,3.981,0,0,0-1.533-3.469,4.794,4.794,0,0,0-1.023-.379,5.515,5.515,0,0,1-.987-.355,25.907,25.907,0,0,1-2.413-1.807l-.094-.077-.142-.978.623-.091.107.738a23.661,23.661,0,0,0,2.22,1.662,5.555,5.555,0,0,0,.866.305,4.927,4.927,0,0,1,1.189.457,4.556,4.556,0,0,1,1.808,4.1c-.1.623-.16,1.221-.217,1.8a10.881,10.881,0,0,1-.346,2.185A11.127,11.127,0,0,1,2107.972,3502.59Z" transform="translate(-2102.559 -3489.813)"/></g></g></g></svg>