<svg xmlns="http://www.w3.org/2000/svg" width="119.216" height="86" viewBox="0 0 119.216 86"><defs><style>.a{fill:#0050ff;}.b{fill:#170f49;}</style></defs><g transform="translate(-2070.087 -3440.731)"><g transform="translate(2112.56 3467.801)"><path class="a" d="M2130.562,3488c-4.007-2.08-8.094,2.018-10.913-3.706-.731-1,.4-2.02.246-3.147a4.627,4.627,0,0,1,1.753-4.831c1.512-3.144,2.839-3.249,5.995-3.876l.174-.066.609-.022h.175c1.363-.317,4.25-.49,2.614,1.458.493.391,3.661,1.956,4.179,1.527.55-1.247,1.152-1.5,2.182-.522,0,0,2.708-1.248,3.617,1.068a40.145,40.145,0,0,0,3.355,6.059l.043.087a3.652,3.652,0,0,0,5.233,1.421c.548,2.143-1.865,4.469-3.64,5.533-1.875,2.062-1.149,4.415-.549,6.776.093,1.227-1.469,1.4-2.132,2.158-.538,1.2.044,2.368-1.177,3.377l-.044.087-.044.349-.043.087a4.294,4.294,0,0,1-4.1,3.6l-.021.044a3.5,3.5,0,0,1-.762.217l-.022.043c-2,.336-2.835-3.962-3.486-5.732l-.043-.021a5.675,5.675,0,0,1-.269-5.25c-.906-2.3-2.07-4.577-2.325-6.562l-.13-.087-.262-.021" transform="translate(-2119.4 -3472.161)"/></g><g transform="translate(2070.087 3440.731)"><path class="b" d="M2188.846,3483.765a1.208,1.208,0,0,0-.354-.273.874.874,0,0,0-.382-.087h0c-4.144.031-8.29.038-12.437.1-4.983.082-9.962.216-14.94.325h-.04c-.067,0-.141,0-.223-.01a24.161,24.161,0,0,1-.418-2.407c-.037-.418-.052-.844-.052-1.271,0-.492.02-.99.046-1.486a3.9,3.9,0,0,1,1.428-2.643l.01,0,.192-.03.1.009c.524.113,1.077.348,1.706.487a5.894,5.894,0,0,0,1.244.151,2.273,2.273,0,0,0,1.824-.726,3.079,3.079,0,0,0,.586-2.038q0-.252-.02-.525v-.008l0-.056.059,0c.445.028.912.082,1.4.089h.043a1.925,1.925,0,0,0,1.3-.423,1.958,1.958,0,0,0,.6-1.243,4.562,4.562,0,0,0,.044-.63,4.382,4.382,0,0,0-1.013-2.774,2.318,2.318,0,0,0-1.8-.99,2.634,2.634,0,0,0-1.674.7,4.419,4.419,0,0,1-.818.552l-.019,0-.069-.01-.011,0a2.691,2.691,0,0,0-1.692-.629,3.024,3.024,0,0,0-2.512,1.542c-.054.091-.1.178-.144.23l-.02.021a8.491,8.491,0,0,1-1.929.373,2.135,2.135,0,0,1-1.223-.361,13.523,13.523,0,0,1-4-4.472,3.168,3.168,0,0,1-.488-1.714q0-.17.017-.348a10.517,10.517,0,0,1,2.481-5.442,5.259,5.259,0,0,1,2.716-1.961,7,7,0,0,0,2.077-1.136,2.139,2.139,0,0,0,.923-1.717,2.238,2.238,0,0,0-.686-1.566,4.431,4.431,0,0,0-3.038-1.365h0l-.109,0a1.691,1.691,0,0,0-1.029.3,1.587,1.587,0,0,0-.58.992,11.131,11.131,0,0,1-.449,1.313,5.2,5.2,0,0,1-2.807,3.355,3.492,3.492,0,0,0-1.219.865,3.621,3.621,0,0,1-2.931,1.231q-.285,0-.583-.025a10.359,10.359,0,0,1-2.735-.577,3.721,3.721,0,0,1,.381-.272c.432-.263.94-.481,1.444-.778a2.532,2.532,0,0,0,1.372-2.153,2.665,2.665,0,0,0-.7-1.722,5.439,5.439,0,0,0-4.064-1.927l-.142,0a1.927,1.927,0,0,0-1.447.511,2.167,2.167,0,0,0-.513,1.476c-.007.165-.01.332-.01.5,0,.456.017.9.017,1.335,0,.138,0,.273-.005.408-.01.33-.052.676-.094,1.031-.519-.356-1.032-.7-1.486-1.079a1.311,1.311,0,0,1-.5-1.075,2.252,2.252,0,0,1,.042-.412,5.325,5.325,0,0,0,.085-.976,6.806,6.806,0,0,0-.063-.921,9.492,9.492,0,0,1-.091-1.267,4.889,4.889,0,0,1,2.182-4.333,4.623,4.623,0,0,0,.806-.731,2.16,2.16,0,0,0,.6-1.41,1.569,1.569,0,0,0-.283-.9,2.094,2.094,0,0,0-.788-.658,17.724,17.724,0,0,0-3.248-1.268,2.552,2.552,0,0,0-.676-.1,1.656,1.656,0,0,0-1.3.575,2.288,2.288,0,0,0-.486,1.413h0v.009h0l0,.116c0,.336.047.641.069.917.093,1.186.28,2.342.279,3.455,0,.1,0,.2,0,.294a4.643,4.643,0,0,1-1.065,2.813,13.992,13.992,0,0,1-2.335,2.184,2.4,2.4,0,0,1-1.175.4c-2.173.224-4.356.4-6.542.58-.238.019-.452.029-.643.029a1.721,1.721,0,0,1-1.146-.271.734.734,0,0,1-.206-.333,2.113,2.113,0,0,1-.083-.645,6.5,6.5,0,0,1,.073-.887c.146-1.031.472-2.071.732-3.153a3.74,3.74,0,0,0,.111-.854,1.759,1.759,0,0,0-.629-1.441,2.637,2.637,0,0,0-1.661-.47c-.327,0-.653,0-.978,0h-1.512c0-.074,0-.146,0-.225,0-.149,0-.307-.02-.47a2.088,2.088,0,0,0-.439-1.206,1.6,1.6,0,0,0-1.146-.507c-.179-.013-.357-.02-.535-.02a6.057,6.057,0,0,0-3.5,1.042,2.252,2.252,0,0,0-1.082,1.837,2.456,2.456,0,0,0,1.021,1.878q.424.34.866.649a4.931,4.931,0,0,1,1.146,1.053,2.8,2.8,0,0,1,.554,1.366c.058.447.186.831.239,1.174a7.69,7.69,0,0,1,.1,1.178,3.687,3.687,0,0,1-1.534,3.174c-1.218.927-2.364,1.936-3.485,2.952a4.843,4.843,0,0,1-3.243,1.538,5.176,5.176,0,0,1-2.5-.758,16.529,16.529,0,0,1-2.713-2.013,5.283,5.283,0,0,1-1.027-1.113,2.445,2.445,0,0,1-.4-1.354,2.959,2.959,0,0,1,.015-.3v0l.009-.192a1.625,1.625,0,0,0-.6-1.285,2.1,2.1,0,0,0-1.342-.445,2.747,2.747,0,0,0-.4.029,5.2,5.2,0,0,0-3.822,3.6,2.2,2.2,0,0,0-.04.317c-.006.084-.01.167-.01.249a1.947,1.947,0,0,0,.469,1.377,1.786,1.786,0,0,0,1.336.5,3.3,3.3,0,0,0,.433-.029,4.189,4.189,0,0,1,.558-.038,3.346,3.346,0,0,1,2.731,1.277l0,0a6.3,6.3,0,0,0-2.852,3.545,4.1,4.1,0,0,0-.21,1.239,2.811,2.811,0,0,0,.717,1.9,1.935,1.935,0,0,0,1.522.716,4.66,4.66,0,0,0,1.206-.212,2.127,2.127,0,0,1,.566-.075,3.838,3.838,0,0,1,1.351.306,3.851,3.851,0,0,0-.318,1.035,3.974,3.974,0,0,1-1.334,2.385,3.362,3.362,0,0,0-.891,1.612,2.174,2.174,0,0,1-1.62,1.794,18.5,18.5,0,0,1-2.071.42c-1.115.2-2.286.319-3.443.624a3.586,3.586,0,0,1-.914.137,1.4,1.4,0,0,1-.934-.3,2.7,2.7,0,0,1-.723-1.083,4.274,4.274,0,0,0-.976-1.331,1.548,1.548,0,0,0-1.075-.46,1.369,1.369,0,0,0-.823.277,4.525,4.525,0,0,0-1.943,3.568,4.156,4.156,0,0,0,1.4,3.033,1.749,1.749,0,0,0,1.207.481,1.7,1.7,0,0,0,1.256-.549,1.757,1.757,0,0,1,1.384-.613,2.9,2.9,0,0,1,.444.038,8.875,8.875,0,0,1,5.31,2.847,1.4,1.4,0,0,1,.285.78l-.016.126-.06.077a.364.364,0,0,1-.17.031,2.049,2.049,0,0,1-.576-.119c-1.014-.338-2.023-.772-3.086-1.121a4.513,4.513,0,0,0-1.4-.26q-.12,0-.24.01a2.087,2.087,0,0,0-1.335.643,4.806,4.806,0,0,0-.755,1.106l-.156.182-.082.056-.007,0c-2.676.122-5.342.287-7.994.287h-.251c-3.407-.013-6.825-.189-10.252-.286h-.057a6.24,6.24,0,0,0-.761.085l-.4.045.021.406c0,.095.011.188.017.277l.021.4.4.012c4.045.122,8.1.361,12.136.361,2.333,0,4.659-.084,6.972-.312a12.358,12.358,0,0,0,.729,2.223,2.376,2.376,0,0,0,.722.878,1.689,1.689,0,0,0,.99.317,2.469,2.469,0,0,0,1.387-.492c.527-.365,1.038-.733,1.56-1.06a1.451,1.451,0,0,1,.782-.25,1.479,1.479,0,0,1,.713.2,15.715,15.715,0,0,0,1.488.637,2.83,2.83,0,0,1,1.758,2.181,8.182,8.182,0,0,1,.149,1.6,18.59,18.59,0,0,1-.407,3.395,2.165,2.165,0,0,1-.631,1.16c-1.292,1.079-2.663,2.082-4.04,3.085a.76.76,0,0,1-.462.157,1.255,1.255,0,0,1-.576-.166,5.527,5.527,0,0,0-1.534-.549,2.656,2.656,0,0,0-.493-.048,1.742,1.742,0,0,0-1.281.5,2.033,2.033,0,0,0-.527,1.332c-.009.131-.012.265-.012.4a4.963,4.963,0,0,0,.213,1.5,6.506,6.506,0,0,0,.882,1.859,3.712,3.712,0,0,0,1.723,1.325,2.477,2.477,0,0,0,.872.164,2.093,2.093,0,0,0,1.466-.579,2.121,2.121,0,0,0,.626-1.519,1.726,1.726,0,0,1,.293-1.012,2.2,2.2,0,0,1,.833-.667,8.526,8.526,0,0,1,3.954-.854c.081,0,.161,0,.241,0a3.461,3.461,0,0,1,2.7,1.236c1.616,1.879,3.253,3.738,4.866,5.613l.046.081.013.039a1.5,1.5,0,0,1-.288.513.807.807,0,0,1-.521.236,12.027,12.027,0,0,0-2.445.578,2.053,2.053,0,0,0-1.065.8,2.225,2.225,0,0,0-.338,1.242l0,.132A5.134,5.134,0,0,0,2107.6,3515a3.151,3.151,0,0,0,.474.037,2.181,2.181,0,0,0,1.269-.374,2.347,2.347,0,0,0,.828-1.1,13.237,13.237,0,0,0,.512-1.895,2.817,2.817,0,0,1,.43-.955,1.1,1.1,0,0,1,.017.15c0,.141.007.279.007.413a5.478,5.478,0,0,1-.45,2.412,3.8,3.8,0,0,1-1.815,1.737,3.668,3.668,0,0,0-1.285,1.01,2.124,2.124,0,0,0-.461,1.3,2.275,2.275,0,0,0,.5,1.377,4.12,4.12,0,0,0,1.354,1.1c.119.062.211.093.266.119l0,0a2.869,2.869,0,0,0,1.2.28,2.171,2.171,0,0,0,1.369-.468,2.582,2.582,0,0,0,.842-1.3c.225-.749.275-1.493.421-2.156a17.2,17.2,0,0,1,.422-1.851,2.6,2.6,0,0,1,.985-1.375,6.7,6.7,0,0,0,1.075-1,3.569,3.569,0,0,1,.737-.651,1.049,1.049,0,0,1,.565-.177,2.259,2.259,0,0,1,1.286.614,4.2,4.2,0,0,0,1.48.9,1.791,1.791,0,0,1,.946.523,1.714,1.714,0,0,1,.4.926,26.477,26.477,0,0,1,.287,3.781v.143a3.7,3.7,0,0,1-1.661,3.055,4.411,4.411,0,0,0-1.133,1.4,1.864,1.864,0,0,0-.25.923,1.66,1.66,0,0,0,.637,1.313,6.109,6.109,0,0,0,3.775,1.518,4.959,4.959,0,0,0,1.3-.178,2.546,2.546,0,0,0,1.353-.868,2.379,2.379,0,0,0,.495-1.485,2.974,2.974,0,0,0-.045-.508,20.491,20.491,0,0,0-.562-2.07c-.016-.058-.035-.12-.052-.18a3.372,3.372,0,0,0,.482.318,3.809,3.809,0,0,0,1.8.414,6.141,6.141,0,0,0,1.151-.116,2.147,2.147,0,0,0,1.822-2.11,2.386,2.386,0,0,0-.163-.855c-.23-.593-.537-1.119-.794-1.631a5.22,5.22,0,0,1-.6-2.362,4.831,4.831,0,0,1,.052-.693.414.414,0,0,1,.077-.226c.016-.015.05-.046.205-.062a14.209,14.209,0,0,0,1.608-.25c1.449-.3,2.87-.66,4.294-.911a4.364,4.364,0,0,1,.762-.072,2.473,2.473,0,0,1,1.811.7c.908.879,1.846,1.7,2.653,2.6a3.429,3.429,0,0,1,.794,1.487,25.753,25.753,0,0,1,.166,2.635,22.822,22.822,0,0,0,.377,2.635,1.6,1.6,0,0,0,.6.976,1.741,1.741,0,0,0,1.047.318l.2-.008a5.1,5.1,0,0,0,2.966-1.134,2.418,2.418,0,0,0,.888-1.843,2.473,2.473,0,0,0-1-1.947,14.315,14.315,0,0,1-1.161-1,3.791,3.791,0,0,1-1.364-2.8,3.985,3.985,0,0,1,.076-.758,3.373,3.373,0,0,0,.055-.623,6.6,6.6,0,0,0-.268-1.694,3.211,3.211,0,0,1-.124-.834,2.029,2.029,0,0,1,.631-1.483,5.491,5.491,0,0,1,3.237-1.563l.2-.014a1.812,1.812,0,0,1,.653.125c1.052.421,2.092.953,3.2,1.376a2.782,2.782,0,0,1,1.621,1.446q.747,1.536,1.489,3.076a2.994,2.994,0,0,0,.67.95,1.431,1.431,0,0,0,.959.384,2.3,2.3,0,0,0,1.418-.629,11.639,11.639,0,0,0,1.675-1.782,3.1,3.1,0,0,0,.8-1.881,2.16,2.16,0,0,0-.217-.934,1.867,1.867,0,0,0-1.117-1.008,4.042,4.042,0,0,0-1.3-.152h-.143a3.146,3.146,0,0,1-1.751-.451,2.451,2.451,0,0,1-1-1.4,29.952,29.952,0,0,1-.7-2.928c.194.564.384,1.138.617,1.711a1.633,1.633,0,0,0,.615.777,1.659,1.659,0,0,0,.919.256,2.334,2.334,0,0,0,.314-.021A5.008,5.008,0,0,0,2159.1,3506a5.138,5.138,0,0,0,1.5-2.74,4.682,4.682,0,0,0,.065-.776,3.651,3.651,0,0,0-.717-2.266,2.791,2.791,0,0,0-2.273-1.045,4.4,4.4,0,0,0-.96.113,3.625,3.625,0,0,1-.777.09,3.093,3.093,0,0,1-.847-.123c.843-1.206,1.633-2.36,2.454-3.469a4.1,4.1,0,0,1,2.983-1.895c1.459-.123,2.9-.3,4.316-.3l.223,0a6.5,6.5,0,0,1,2.352.391,3.629,3.629,0,0,1,1.771,1.512,1.687,1.687,0,0,0,1.44.85,1.966,1.966,0,0,0,1.438-.69,5,5,0,0,0,1.39-3.426,5.627,5.627,0,0,0-.211-1.5,2.448,2.448,0,0,0-.745-1.239,1.942,1.942,0,0,0-1.269-.453,2.771,2.771,0,0,0-1.091.243c-.588.253-1.137.555-1.675.831a2.38,2.38,0,0,1-1.088.311,1.645,1.645,0,0,1-.775-.2,4.55,4.55,0,0,0-1.105-.331c-1.149-.265-2.29-.456-3.366-.777a2.315,2.315,0,0,1-1.226-.777,2.236,2.236,0,0,1-.423-1.325c0-.129-.006-.258-.006-.389,0-.276.007-.56.007-.849,0-.156,0-.313-.008-.472v-.012l0-.041.012-.122a.715.715,0,0,1,.206-.024c5.442-.111,10.88-.259,16.318-.379,2.847-.062,5.7-.092,8.549-.122h.157c.738,0,1.493.052,2.27.052a1.177,1.177,0,0,0,.43-.092c.109-.043.195-.083.252-.1l.635-.21Zm-26.881,6.66c.874.245,1.75.383,2.585.575a9.205,9.205,0,0,1,1.573.4,3.249,3.249,0,0,0,1.3.278,3.62,3.62,0,0,0,1.722-.472c.441-.238.879-.468,1.323-.67a1.888,1.888,0,0,1,.759-.2.669.669,0,0,1,.508.2,1.49,1.49,0,0,1,.347.755,4.5,4.5,0,0,1,.1.92,3.63,3.63,0,0,1-1.023,2.54.811.811,0,0,1-.528.317c-.094-.005-.189-.028-.34-.261a4.6,4.6,0,0,0-2.265-1.942,9.244,9.244,0,0,0-2.754-.553q-.647-.052-1.29-.052a18.715,18.715,0,0,0-4.455.564,4.633,4.633,0,0,0-2.648,1.771c-1.007,1.337-1.951,2.72-2.858,4.119a1.079,1.079,0,0,1-.136.177l-.053-.042c-.384-.375-.729-.849-1.151-1.305a12.291,12.291,0,0,0-1.513-1.519,1.241,1.241,0,0,1-.576-.953,1.02,1.02,0,0,1,.326-.71,5.918,5.918,0,0,0,.945-1.222,3.31,3.31,0,0,0,.413-1.62v-.042a3.587,3.587,0,0,1,.2-1.009,6.433,6.433,0,0,0,.295-1.231c.122-1.257.162-2.521.162-3.774v-.121c0-.1,0-.189,0-.272a3.9,3.9,0,0,1,.015-.433l.009-.044a1.467,1.467,0,0,1,.331-.022c.122,0,.273,0,.449.009,1.776.177,3.642.367,5.51.547-.006.052-.012.119-.014.2,0,.42-.029.863-.029,1.316a6.653,6.653,0,0,0,.087,1.162,2.965,2.965,0,0,0,.964,1.744A4.31,4.31,0,0,0,2161.965,3490.425Zm-5.486,10.1c.23,0,.462,0,.7-.016.091-.005.177-.008.259-.008a1.942,1.942,0,0,1,1.474.469,2.208,2.208,0,0,1,.458,1.58v.074a3.269,3.269,0,0,1-.962,2.275,4.713,4.713,0,0,1-2.174,1.27l-.16.022a.4.4,0,0,1-.275-.1.9.9,0,0,1-.233-.363c-.281-.735-.511-1.508-.785-2.284-.137-.389-.3-.758-.448-1.115a4.833,4.833,0,0,0-.238-.451l-.069-.144-.01-.033a4.831,4.831,0,0,1,.505-1.184l.15-.015h0l.065,0C2155.3,3500.492,2155.885,3500.52,2156.479,3500.52Zm-1.38,9.789a4.547,4.547,0,0,0,2,.448,6.216,6.216,0,0,1,1.039.059.914.914,0,0,1,.514.265.626.626,0,0,1,.164.434.9.9,0,0,1-.074.346,5.82,5.82,0,0,1-2.243,2.612.583.583,0,0,1-.293.124l-.1-.043a.987.987,0,0,1-.214-.3c-.572-1.1-1.115-2.222-1.656-3.348a3.883,3.883,0,0,0-2.272-2.055,31.544,31.544,0,0,1-3.025-1.324,2.681,2.681,0,0,0-1.2-.27,4.96,4.96,0,0,0-1.143.16,6.181,6.181,0,0,0-3.638,2.126,3.223,3.223,0,0,0-.706,2.046,4.58,4.58,0,0,0,.132,1.052,7.263,7.263,0,0,1,.255,1.6,2.426,2.426,0,0,1-.033.412,5.286,5.286,0,0,0-.081.908,4.521,4.521,0,0,0,.712,2.446,7.877,7.877,0,0,0,1.716,1.858c.189.155.37.28.52.4a1.361,1.361,0,0,1,.584,1.007,1.13,1.13,0,0,1-.6.924,6.587,6.587,0,0,1-1.93.744.833.833,0,0,1-.213.029.478.478,0,0,1-.334-.119.725.725,0,0,1-.2-.4,16.951,16.951,0,0,1-.25-2.154c-.062-.818-.088-1.646-.121-2.481a3.733,3.733,0,0,0-1.366-2.752q-1.269-1.112-2.446-2.331a3.444,3.444,0,0,0-2.538-1.084,4.124,4.124,0,0,0-.6.044c-1.667.244-3.3.619-4.92.928-.392.075-.794.143-1.255.222.26-.747.487-1.406.733-2.048a6.265,6.265,0,0,1,.506-.982,1.4,1.4,0,0,1,.536-.537,1.754,1.754,0,0,1,.8-.186,14.96,14.96,0,0,0,2.258-.363,37.894,37.894,0,0,0,4.092-.817,11.139,11.139,0,0,0,6.235-4.925,2.509,2.509,0,0,0,.4-1.276h0v-.013a2.1,2.1,0,0,1,.1-.69.816.816,0,0,1,.415-.487,2.276,2.276,0,0,1,.939-.194c.134-.006.266-.009.4-.009a10.587,10.587,0,0,1,5.7,1.792l.047.208v.021c-.032.334-.046.665-.046.993a13.389,13.389,0,0,0,1.276,5.464A3.06,3.06,0,0,0,2155.1,3510.309Zm-26.768,10.507a2.722,2.722,0,0,1-.821.127,2.438,2.438,0,0,1-2.372-1.631,1.4,1.4,0,0,1-.066-.4.5.5,0,0,1,.028-.188c.51-1.218,1.069-2.42,1.635-3.623a1.828,1.828,0,0,1,.49-.674.817.817,0,0,1,.282-.139,24.78,24.78,0,0,0,.454,2.942,13.777,13.777,0,0,0,1,2.214,1.246,1.246,0,0,1,.119.5.791.791,0,0,1-.177.512A1.165,1.165,0,0,1,2128.331,3520.816Zm-4.195,4.22a1.568,1.568,0,0,1-1.059.426q-.132.008-.26.008a4.93,4.93,0,0,1-3.04-1.157.581.581,0,0,1-.261-.466.7.7,0,0,1,.125-.38,3.8,3.8,0,0,1,.856-.952,4.693,4.693,0,0,0,2-3.681c0-.1,0-.191,0-.287a33.26,33.26,0,0,0-.345-4.409,2.386,2.386,0,0,0-.728-1.441,3.534,3.534,0,0,0-1.395-.772,3.815,3.815,0,0,1-1.173-.747,3.213,3.213,0,0,0-1.989-.9,2.174,2.174,0,0,0-1.071.3,4.572,4.572,0,0,0-1.007.8,17.143,17.143,0,0,0-1.559,1.471,6.023,6.023,0,0,0-1.024,1.969,26.442,26.442,0,0,0-.619,3.143,1.912,1.912,0,0,1-.46,1.045.992.992,0,0,1-.738.318,1.8,1.8,0,0,1-1.041-.4,3.767,3.767,0,0,1-.759-.7.644.644,0,0,1,0-.921,3.757,3.757,0,0,1,.754-.7,3.529,3.529,0,0,1,.372-.27,7.673,7.673,0,0,0,1.182-.708,2.761,2.761,0,0,0,.924-1.233,8.548,8.548,0,0,0,.611-2.968,5.909,5.909,0,0,0-.092-1.052l-.01-.1a.726.726,0,0,0-.09-.294.808.808,0,0,1-.13-.412.732.732,0,0,1,.121-.379,2.753,2.753,0,0,1,.381-.47,8.593,8.593,0,0,1,3.9-2.621,10.137,10.137,0,0,1,1.038-.189c.791.107,1.515.231,2.261.3.538.046,1.084.077,1.634.077.171,0,.344,0,.516-.009h0l.152,0a2.148,2.148,0,0,1,1.066.234,1.491,1.491,0,0,1,.651.789,27.039,27.039,0,0,1,1.4,3.949,2.974,2.974,0,0,1,.067.646,4.618,4.618,0,0,1-.3,1.592,22.016,22.016,0,0,0-1.444,5.583l-.046-.028.034.116c0,.025-.008.052-.011.078-.01.108-.014.213-.014.317a12.874,12.874,0,0,0,.5,2.625c.122.555.341,1.021.429,1.447a2.185,2.185,0,0,1,.05.451A1.332,1.332,0,0,1,2124.136,3525.036Zm-15.218-11.865a1.409,1.409,0,0,1-.395.5.63.63,0,0,1-.4.129,1.453,1.453,0,0,1-.658-.2,4.058,4.058,0,0,1-2.136-2.448,1.254,1.254,0,0,1-.064-.377.644.644,0,0,1,.111-.381.907.907,0,0,1,.395-.291,8.135,8.135,0,0,1,1.723-.517,4.589,4.589,0,0,0,1.412-.381,2.073,2.073,0,0,0,.5-.407c.071-.073.143-.158.219-.249a8.653,8.653,0,0,1,.712.794l.014.1-.007.067a5.2,5.2,0,0,0-1.006,2.448A3.677,3.677,0,0,1,2108.918,3513.171Zm1.048-6.267c-.328-.383-.911-1.048-1.112-1.275q-2.111-2.391-4.221-4.781a4.513,4.513,0,0,0-3.463-1.528c-.118,0-.236,0-.354,0a9.525,9.525,0,0,0-4.7,1.052,3.308,3.308,0,0,0-1.148.972,2.732,2.732,0,0,0-.48,1.51,1.256,1.256,0,0,1-.284.812.746.746,0,0,1-.573.252,1.3,1.3,0,0,1-.771-.3,3.834,3.834,0,0,1-1.635-3.18c0-.147.007-.3.022-.453a.81.81,0,0,1,.187-.5.482.482,0,0,1,.373-.134,1.244,1.244,0,0,1,.334.051c.373.1.8.383,1.361.524a4.415,4.415,0,0,0,.99.154,1.433,1.433,0,0,0,.607-.119,15.2,15.2,0,0,0,4.813-3.543,3.97,3.97,0,0,0,.943-1.9,11.864,11.864,0,0,0,.2-1.971c.012-.274.017-.547.017-.82,0-.95-.065-1.893-.124-2.82a2.609,2.609,0,0,0-.793-1.75,5.342,5.342,0,0,0-1.485-.961c-.564-.266-1.123-.457-1.6-.714a2.582,2.582,0,0,0-1.244-.33,3.229,3.229,0,0,0-1.734.581c-.5.32-.96.672-1.414,1.006a.941.941,0,0,1-.538.223c-.164,0-.337-.074-.568-.374a2.5,2.5,0,0,1-.3-.535,2.961,2.961,0,0,1-.282-.979.256.256,0,0,1,.024-.131c.011-.017.052-.069.239-.12a3.948,3.948,0,0,1,.86-.09c1.678-.039,3.386-.027,5.094-.208a9.683,9.683,0,0,0,4.936-1.921,4.364,4.364,0,0,1,.741-.5,7.352,7.352,0,0,0,3.7-3.813,31.654,31.654,0,0,0,1.79-4.708,4.935,4.935,0,0,0,.159-1.244,5.3,5.3,0,0,0-2.574-4.43,7.681,7.681,0,0,1-.738-.455l-.053-.072-.015-.032a5.475,5.475,0,0,0,.087-.975,5.68,5.68,0,0,0-.058-.764,8.938,8.938,0,0,0,5.052,1.715,8.041,8.041,0,0,0,2.81-.521,4.646,4.646,0,0,0,1.394-.758c1.685-1.424,3.4-2.834,5.01-4.383a8.886,8.886,0,0,0,2.518-4.527,5.877,5.877,0,0,0,.14-1.257,5.6,5.6,0,0,0-.368-1.964,1.418,1.418,0,0,0,.129.079,4.262,4.262,0,0,1,2,2.365,6.45,6.45,0,0,0,2.259,2.8,9.139,9.139,0,0,0,3.236,1.334,14.742,14.742,0,0,1,4.551,1.812,2.468,2.468,0,0,0,1.293.407,2.073,2.073,0,0,0,1.148-.36c1.556-1.024,3.113-2.059,4.627-3.158a4.667,4.667,0,0,0,1.128-1.4.939.939,0,0,1,.078-.113l.068.03c.212.119.415.212.6.3a26.218,26.218,0,0,0-.886,2.9,21.509,21.509,0,0,0-.374,3.4h0l0,.127a3.162,3.162,0,0,0,.369,1.433,8.616,8.616,0,0,0,.741,1.154,15.793,15.793,0,0,0,6.363,5.5,8.886,8.886,0,0,0,2.663.6c1.8.185,3.6.322,5.4.391.082,0,.164,0,.248,0a4.866,4.866,0,0,0,2.414-.586,4.718,4.718,0,0,0,1.779-1.829.539.539,0,0,1,.181-.152,1.541,1.541,0,0,1,.349-.149c.789-.234,1.634-.386,2.482-.636a.645.645,0,0,1,.172-.032l.031,0,.021.027.058.121c.227.625.467,1.224.637,1.821l-.044.089-.012.014a11.17,11.17,0,0,0-4.246,2.225.953.953,0,0,1-.469.1,9.6,9.6,0,0,0-5.268,1.923,9.312,9.312,0,0,0-3.447,4.406,20.134,20.134,0,0,0-.518,2.606l-.017.086.12.556c0,.806.025,1.565.025,2.291,0,.484-.01.953-.046,1.416-.07.991-.412,2.032-.5,3.163a4.128,4.128,0,0,1-1.239,2.677,2.023,2.023,0,0,0-.562,1.4,2.542,2.542,0,0,0,1.072,1.991,11.988,11.988,0,0,1,1.37,1.371c.492.515.98,1.027,1.432,1.557l.081.2a4.814,4.814,0,0,1-.3.665,23.812,23.812,0,0,0-3.374-1.308,13.449,13.449,0,0,0-3.293-.374c-.152,0-.3,0-.452.006a2.118,2.118,0,0,0-1.637.684,3.1,3.1,0,0,0-.625,1.655,3.213,3.213,0,0,1-.656,1.49,10.27,10.27,0,0,1-5.177,3.756,14.766,14.766,0,0,1-1.758.271,6.9,6.9,0,0,0-1.17.2,11.178,11.178,0,0,1-3.526.668,2,2,0,0,0-1.841,1.245c-.513,1.149-.975,2.316-1.418,3.485a.8.8,0,0,1-.14.275c-.024.018-.036.042-.2.056a2.3,2.3,0,0,0-1.271.47,4.943,4.943,0,0,0,.235-1.468,4.305,4.305,0,0,0-.243-1.43c-.432-1.241-.871-2.49-1.381-3.716a2.8,2.8,0,0,0-1.154-1.382,3.35,3.35,0,0,0-1.729-.421l-.1,0c-.283.005-.567.011-.849.011a10.227,10.227,0,0,1-2.123-.179,6.529,6.529,0,0,0-1.377-.149,7.656,7.656,0,0,0-5.054,2.227,17.981,17.981,0,0,0-1.425,1.472,14.027,14.027,0,0,1-1.017-1.185l-.348.254.348-.255C2110.15,3507.121,2110.077,3507.034,2109.966,3506.9Zm-17.443-24.12a.92.92,0,0,1,.3.048c.517.176,1.032.375,1.548.581h-2.9a1.243,1.243,0,0,1,1.059-.629Zm-.55-4.89c-.108-.009-.215-.012-.322-.012a3.026,3.026,0,0,0-2.184.848,1.67,1.67,0,0,1-.319.253.26.26,0,0,1-.313,0,1.787,1.787,0,0,1-.327-.268,2.661,2.661,0,0,1-.815-1.9,2.7,2.7,0,0,1,.545-1.61c.04-.058.124-.144.216-.283a1.932,1.932,0,0,1,.466-.534.445.445,0,0,1,.666.072,1.956,1.956,0,0,1,.4.67,3.985,3.985,0,0,0,1.176,1.768,2.517,2.517,0,0,0,1.607.534,5.891,5.891,0,0,0,1.84-.373,16.263,16.263,0,0,1,2.324-.387,26.366,26.366,0,0,0,3-.593,3.012,3.012,0,0,0,1.446-.91,3.431,3.431,0,0,0,.736-1.575,2.455,2.455,0,0,1,.627-1.132,5.628,5.628,0,0,0,1.625-2.9,4.11,4.11,0,0,1,.234-.866l.029-.052.03.008a4.015,4.015,0,0,1,.812.5,3.967,3.967,0,0,1,1.794,3.327,5.3,5.3,0,0,1-.334,1.79,26.442,26.442,0,0,1-2.187,4.595c-.705,1.2-2.079,1.883-3.41,2.712-.558.351-1.145.67-1.743.975a2.964,2.964,0,0,1-.453.176,4.507,4.507,0,0,0-1.984-2.683A10.5,10.5,0,0,0,2091.973,3477.894Zm10.125-11.327a4.677,4.677,0,0,0-1.308.192,1.546,1.546,0,0,1-.423.067.731.731,0,0,1-.486-.159,1.3,1.3,0,0,1-.372-.566,1.89,1.89,0,0,1-.129-.686,2.517,2.517,0,0,1,.219-.975,5.228,5.228,0,0,1,2.295-2.649l.083-.007.076.008a9.908,9.908,0,0,1,1.9,4.1c.017.11.023.241.035.374-.011.143-.018.261-.031.361-.014.122-.03.224-.042.3-.073-.021-.166-.051-.287-.092A4.71,4.71,0,0,0,2102.1,3466.567Zm-4.5-8.345-.2.017a.418.418,0,0,1-.339-.115.7.7,0,0,1-.122-.465v-.023a1.789,1.789,0,0,1,.159-.71,4.083,4.083,0,0,1,2.3-2.146,1.456,1.456,0,0,1,.521-.109.636.636,0,0,1,.491.188.876.876,0,0,1,.193.614l-.008.16v0a3.367,3.367,0,0,0-.017.344,2.81,2.81,0,0,0,.67,1.863,12.436,12.436,0,0,0,5.088,3.87,6.015,6.015,0,0,0,2.141.417,5.853,5.853,0,0,0,3.953-1.668q1.748-1.568,3.579-3.049a5.928,5.928,0,0,0,1.524-1.763,4.859,4.859,0,0,0,.58-2.32v-.043l-.008-.043c-.215-1.108-.4-2.233-.66-3.354a4,4,0,0,0-1.68-2.248,12.728,12.728,0,0,1-1.421-1.164.808.808,0,0,1-.282-.549.791.791,0,0,1,.316-.567,4.459,4.459,0,0,1,3.179-1.04c.077,0,.152,0,.229,0a.73.73,0,0,1,.23.177.742.742,0,0,1,.159.241,2.584,2.584,0,0,1,.094.626.934.934,0,0,1-.1.455,1.052,1.052,0,0,1-.4.4,1.817,1.817,0,0,0-.829,1.589,2.647,2.647,0,0,0,.332,1.249,25.232,25.232,0,0,0,2.177,3.431,5.793,5.793,0,0,1,1.389,3.548,5.643,5.643,0,0,1-1.042,3.11,13.512,13.512,0,0,1-3.724,3.888,8.719,8.719,0,0,0-1.388,1.14,5.852,5.852,0,0,1-4.312,1.885,8.013,8.013,0,0,1-3.594-.935,2.658,2.658,0,0,1-1-.793,2.122,2.122,0,0,1-.373-1.177,5,5,0,0,0-.513-1.708,1.993,1.993,0,0,0-.824-.945,2.51,2.51,0,0,0-1.192-.311.978.978,0,0,1-.584-.25,5,5,0,0,0-3.776-1.793A5.578,5.578,0,0,0,2097.6,3458.221Zm25.261-11.33a.5.5,0,0,1,.111.313l0,.206a2.986,2.986,0,0,1-.09.764,15.171,15.171,0,0,0-.76,3.924c0,.117.011.236.018.354-.375-.43-.746-.861-1.087-1.3-.491-.632-.933-1.331-1.418-2.021a2.211,2.211,0,0,1-.38-1.332,5.921,5.921,0,0,1,.073-.824l.087-.073.075-.038.015-.005q1.2-.07,2.4-.071c.234,0,.469,0,.7.007A.325.325,0,0,1,2122.857,3446.892Zm8.7,7.346a4.571,4.571,0,0,0,3.392-1.51,22.342,22.342,0,0,0,2.179-2.613,5.507,5.507,0,0,0,.777-3.027,16.832,16.832,0,0,0-.14-1.925c-.094-.8-.234-1.574-.271-2.322v-.006l0-.1a.951.951,0,0,1,.137-.57.347.347,0,0,1,.311-.133,1.111,1.111,0,0,1,.271.039,19.319,19.319,0,0,1,3.369,1.349.259.259,0,0,1,.171.253.589.589,0,0,1-.141.349,2.463,2.463,0,0,1-.662.656,4.606,4.606,0,0,0-1.776,1.729,8.053,8.053,0,0,0-.839,2.221,7.018,7.018,0,0,0-.208,1.664,6.291,6.291,0,0,0,.14,1.321,3.563,3.563,0,0,1,.075.743,3.877,3.877,0,0,1-.091.835v0a2.781,2.781,0,0,0-.072.619,2.649,2.649,0,0,0,1.013,2.02,10.954,10.954,0,0,0,1.741,1.2.639.639,0,0,1,.118.083l-.038.054a6.7,6.7,0,0,1-1.037,1.2c-1.27.942-2.6,1.82-3.927,2.727a1.5,1.5,0,0,1-.84.306,1.375,1.375,0,0,1-.758-.26,17.475,17.475,0,0,0-5.392-2.052,5.358,5.358,0,0,1-3.88-3.066,9.383,9.383,0,0,0-.716-1.252C2126.872,3454.573,2129.219,3454.375,2131.554,3454.238Zm15.587.058a.852.852,0,0,1-.366.649,12.065,12.065,0,0,1-1.211.791,12.3,12.3,0,0,0-1.567,1.054c-.159.134-.208.136-.267.14a.76.76,0,0,1-.271-.073,3.469,3.469,0,0,1-.693-.331l-.025-.033a.61.61,0,0,1-.018-.181c0-.13.015-.327.037-.591.017-.215.022-.424.022-.629,0-.23-.005-.445-.009-.664v-.317c0-.307-.005-.609-.005-.906,0-.176,0-.351.008-.522a.9.9,0,0,1,.191-.611.712.712,0,0,1,.544-.175l.052,0a3.854,3.854,0,0,1,3.416,1.895A.982.982,0,0,1,2147.141,3454.3Zm2.629,4.877a7.632,7.632,0,0,0,2.032-.969,5.625,5.625,0,0,0,.784-.618,2.754,2.754,0,0,1,.634-.456,6.534,6.534,0,0,0,3.487-4.178c.138-.413.284-.837.4-1.282a.622.622,0,0,1,.17-.33.386.386,0,0,1,.268-.076l.151.011a3.355,3.355,0,0,1,2.1,1.055.976.976,0,0,1,.308.623.71.71,0,0,1-.32.542,5.262,5.262,0,0,1-1.745,1.044,7.259,7.259,0,0,0-3.991,3.2,11,11,0,0,0-2.169,5.655h0v0h0l0,.184a5.032,5.032,0,0,0,.859,2.645,13.865,13.865,0,0,0,3.785,4.288,4.142,4.142,0,0,0,2.39.88,3.3,3.3,0,0,0,.962-.16,2.848,2.848,0,0,1-.607.52,2.779,2.779,0,0,1-1.479.416c-.089,0-.177,0-.265,0-1.493,0-3.014-.165-4.553-.26-.127,0-.327-.066-.6-.07l-.12.006c-.165.016-.327.023-.487.023a6.939,6.939,0,0,1-4.072-1.622,17.506,17.506,0,0,1-4.03-4.1,3.8,3.8,0,0,1-.765-2.264,4.318,4.318,0,0,1,.049-.635,13.476,13.476,0,0,1,1.023-4.373.946.946,0,0,1,.2-.282.166.166,0,0,1,.13-.042.967.967,0,0,1,.285.057,12.125,12.125,0,0,0,3.707.745A6.179,6.179,0,0,0,2149.77,3459.173Zm19.11,10.452a4.505,4.505,0,0,1,.272.711c.061.2.108.383.155.54a2.237,2.237,0,0,1-.085.67.609.609,0,0,1-.326.4,2.141,2.141,0,0,1-.811.159l-.187.005a1.3,1.3,0,0,1-1.054-.374,2.537,2.537,0,0,1-.491-1.151,3.261,3.261,0,0,0-.244-.625,1.08,1.08,0,0,1-.112-.316,1.561,1.561,0,0,1,.273-.181,3.539,3.539,0,0,0,.459-.293,1.93,1.93,0,0,1,1.1-.531.73.73,0,0,1,.49.2A2.53,2.53,0,0,1,2168.881,3469.625Zm-8.856,5.33h0Zm-1.126,7.415c.065.43.108.878.162,1.4-.156,0-.3.005-.444.005-.163,0-.319,0-.469-.016-1.671-.143-3.344-.317-5.025-.46a1.087,1.087,0,0,1-.138-.019.976.976,0,0,1-.007-.143v-.076a5.468,5.468,0,0,1,1.067-3.369,9.81,9.81,0,0,1,5.835-3.817,6.494,6.494,0,0,0-1.214,3.977A16.955,16.955,0,0,0,2158.9,3482.37Zm5.74-6.993a3.479,3.479,0,0,1-.513-.041,6.35,6.35,0,0,1-.9-.2c-.167-.051-.337-.111-.525-.181a8.662,8.662,0,0,1,2.827-1.458c.126-.041.234-.07.311-.089.01.083.021.2.028.338,0,.087.007.168.007.245a1.561,1.561,0,0,1-.3,1.076A1.189,1.189,0,0,1,2164.638,3475.377Zm-60.9-13.365-.094-.154a1.234,1.234,0,0,1,.1.173Z" transform="translate(-2070.087 -3440.731)"/><path class="b" d="M2155.471,3452.2h0Z" transform="translate(-2081.93 -3442.321)"/><path class="b" d="M2132.139,3531.877h0Z" transform="translate(-2078.694 -3453.373)"/><g transform="translate(27.968 42.274)"><path class="b" d="M2113.665,3516.03l-1.09-.692a21.188,21.188,0,0,0,1.58-2.852,21.669,21.669,0,0,0,.655-4.209c.111-1.154.239-2.461.455-3.779a8.171,8.171,0,0,0-3.145-7.117,9.922,9.922,0,0,0-2.1-.779,11.39,11.39,0,0,1-2.025-.728,53.21,53.21,0,0,1-4.952-3.708l-.191-.159-.293-2.007,1.278-.187.22,1.515a48.7,48.7,0,0,0,4.554,3.411,11.313,11.313,0,0,0,1.778.626,10.206,10.206,0,0,1,2.442.938c1.924,1.269,4.284,4.895,3.708,8.4-.209,1.277-.328,2.5-.444,3.695a22.332,22.332,0,0,1-.711,4.483A22.6,22.6,0,0,1,2113.665,3516.03Z" transform="translate(-2102.559 -3489.813)"/></g></g></g></svg>