<svg xmlns="http://www.w3.org/2000/svg" width="122" height="69.402" viewBox="0 0 122 69.402"><defs><style>.a{fill:#170f49;}</style></defs><g transform="translate(-379.58 36)"><g transform="translate(379.58 -36)"><path class="a" d="M245.692,95.57h-4.686v2.7h1.667v1.839H238.79v7.37h4.428v-2.742H241.8v-1.887h3.888v-.143h0v-7h0Z" transform="translate(-124.733 -49.921)"/><path class="a" d="M147.952,13.771h-19.1V11.788h40.418V4.982H133.321V2.708h16.741V0H129.806V7.4h35.952V9.376H125.34v6.806h22.612Z" transform="translate(-65.472)"/><path class="a" d="M124,37.628V35.665h49.513V28.83h-25.8v2.412h22.282v2.006H120.48v6.773h1.944v.019h58.994v1.949h-44.97v6.849h23.892V46.426H139.963v-2.02h44.97V37.628Z" transform="translate(-62.933 -15.059)"/><path class="a" d="M187.408,102.55v2.412H199.88v2H176.69v6.864H193.4v1.925H182.742v7.212h8.717v-2.742h-5.2v-2.059h10.656v-6.773H193.4v.024H180.21v-2.04H203.4V102.55H187.408Z" transform="translate(-92.295 -53.567)"/><path class="a" d="M191.476,65.67v2.412H206.04v1.963H175.69v6.773h1.29v.038h21.27v1.977H178.121V85.7h6.467V83.286h-2.952V81.251h20.128V74.44H179.205V72.462h30.35V65.67Z" transform="translate(-91.773 -34.303)"/><path class="a" d="M23.071,84.929l-.955.716a5.082,5.082,0,0,0-1.839-1.524,5.431,5.431,0,0,0-2.388-.521,5.283,5.283,0,0,0-2.632.678,4.948,4.948,0,0,0-1.877,1.834A5.073,5.073,0,0,0,12.71,88.7a4.858,4.858,0,0,0,1.49,3.625,5.168,5.168,0,0,0,3.759,1.433,5.254,5.254,0,0,0,4.175-1.954l.955.712a5.942,5.942,0,0,1-2.216,1.748,6.954,6.954,0,0,1-2.966.616,6.171,6.171,0,0,1-4.915-2.073,6.267,6.267,0,0,1-1.514-4.232,5.894,5.894,0,0,1,1.829-4.39,6.324,6.324,0,0,1,4.585-1.782,6.735,6.735,0,0,1,3,.659,5.8,5.8,0,0,1,2.192,1.848" transform="translate(-5.995 -43.044)"/><path class="a" d="M45.8,82.438a6.171,6.171,0,0,1,4.5,1.8,6.243,6.243,0,0,1-4.423,10.675,6.076,6.076,0,0,1-4.456-1.805,5.951,5.951,0,0,1-1.82-4.38,6.3,6.3,0,0,1,.85-3.157A5.994,5.994,0,0,1,42.7,83.284a6.066,6.066,0,0,1,3.1-.831m.053,1.156a5.077,5.077,0,0,0-4.342,2.536,5.144,5.144,0,0,0-.664,2.6,5,5,0,0,0,5.006,5.034,5.063,5.063,0,0,0,2.56-.673,4.776,4.776,0,0,0,1.834-1.834,5.149,5.149,0,0,0,.659-2.584,5.034,5.034,0,0,0-.659-2.56,4.939,4.939,0,0,0-1.858-1.844,5.015,5.015,0,0,0-2.541-.688" transform="translate(-20.684 -43.061)"/><path class="a" d="M70.83,94.935V83.056H73.3a12.476,12.476,0,0,1,3.864.43,5.159,5.159,0,0,1,2.7,2.1,6.381,6.381,0,0,1,.955,3.563,6.209,6.209,0,0,1-.774,3.138,4.934,4.934,0,0,1-2,2.006,7.561,7.561,0,0,1-3.453.645Zm1.137-1.122h1.376a12.959,12.959,0,0,0,3.415-.306,3.95,3.95,0,0,0,2.106-1.571,4.834,4.834,0,0,0,.769-2.77,5.087,5.087,0,0,0-.831-2.938,4.189,4.189,0,0,0-2.321-1.672,14.081,14.081,0,0,0-3.673-.334h-.841Z" transform="translate(-36.998 -43.378)"/><path class="a" d="M96.61,83.07h6.806v1.161H97.8v3.726h5.569v1.161H97.8v4.667h5.569v1.165H96.61Z" transform="translate(-50.465 -43.392)"/><path class="a" d="M5.636,113.92H8.459l5.622,14.616h-2.89l-1.146-3.009H4.079L2.89,128.536H0Zm1.433,3.874-1.958,5.02H9.018Z" transform="translate(0 -59.507)"/><path class="a" d="M34.07,113.92h7.255v2.713H36.831v2.651h4.495v2.675H36.831v6.577H34.07Z" transform="translate(-17.797 -59.507)"/><path class="a" d="M54.83,113.92h2.947a9.834,9.834,0,0,1,3.453.43,3.582,3.582,0,0,1,1.653,1.433,4.409,4.409,0,0,1,.621,2.388,4.074,4.074,0,0,1-.688,2.388,4.179,4.179,0,0,1-2.083,1.462l3.463,6.5H61.154l-3.286-6.209h-.253v6.209H54.83Zm2.785,5.732h.869a3.405,3.405,0,0,0,1.829-.349,1.309,1.309,0,0,0,.478-1.156,1.433,1.433,0,0,0-.248-.836,1.4,1.4,0,0,0-.664-.506,5.158,5.158,0,0,0-1.528-.153h-.736Z" transform="translate(-28.641 -59.507)"/><rect class="a" width="2.761" height="14.616" transform="translate(37.61 54.413)"/><path class="a" d="M103.738,116.072l-1.944,1.853a6.023,6.023,0,0,0-4.471-2.1,4.886,4.886,0,0,0-4.963,4.963A5.192,5.192,0,0,0,93,123.384a4.538,4.538,0,0,0,1.8,1.782,5.254,5.254,0,0,0,2.584.645,5.321,5.321,0,0,0,2.211-.449,7.915,7.915,0,0,0,2.207-1.648l1.911,1.968a10.3,10.3,0,0,1-3.062,2.192,8.388,8.388,0,0,1-3.291.611,7.585,7.585,0,0,1-5.579-2.159,7.49,7.49,0,0,1-2.169-5.541,7.59,7.59,0,0,1,.965-3.9,7.346,7.346,0,0,1,2.828-2.732,8.02,8.02,0,0,1,3.974-1.032,8.416,8.416,0,0,1,6.367,2.938" transform="translate(-46.803 -59.089)"/><path class="a" d="M127.471,113.92h2.818l5.627,14.616h-2.895l-1.142-3.009h-5.966l-1.189,3.009H121.83Zm1.433,3.874-1.963,5.02h3.912Z" transform="translate(-63.638 -59.507)"/><path class="a" d="M115.477,88.6c.038-.119.072-.22.091-.3a1.031,1.031,0,0,0,.029-.225.778.778,0,0,0-.134-.478.478.478,0,0,0-.392-.167c-.349,0-.793.315-1.323.955a19.831,19.831,0,0,0-1.911,2.866h2.589l-.143.134h-2.536l-2.3,3.7a9.267,9.267,0,0,1-2.183,2.589,3.96,3.96,0,0,1-2.388.826,2.527,2.527,0,0,1-1.433-.349,1.127,1.127,0,0,1-.511-.984.989.989,0,0,1,.325-.75,1.127,1.127,0,0,1,.812-.306,2.111,2.111,0,0,1,.248,0,1.534,1.534,0,0,1,.253.033v.081H104.4a.826.826,0,0,0-.626.263.922.922,0,0,0-.248.664,1.146,1.146,0,0,0,.392.893,1.485,1.485,0,0,0,1.022.353,2.866,2.866,0,0,0,1.911-.874,15.685,15.685,0,0,0,2.336-3.09l1.911-3.052h-.955l.11-.134h.9l1.051-1.562a7.247,7.247,0,0,1,1.562-1.763,2.565,2.565,0,0,1,1.538-.607,1,1,0,0,1,.621.182.54.54,0,0,1,.239.478.616.616,0,0,1-.177.454.826.826,0,0,1-.478.22" transform="translate(-53.765 -45.611)"/><path class="a" d="M128.47,95.962l.072.048a2.756,2.756,0,0,1-.669.611,1.323,1.323,0,0,1-.688.191.884.884,0,0,1-.583-.182.989.989,0,0,1-.33-.535,3.415,3.415,0,0,1-.4,1.146,4.346,4.346,0,0,1-1.848,1.681,2.207,2.207,0,0,1-.955.239.9.9,0,0,1-.707-.267,1.237,1.237,0,0,1-.234-.812,2.336,2.336,0,0,1,.478-1.29,5.193,5.193,0,0,1,1.29-1.275,3.45,3.45,0,0,1,.783-.42,2.135,2.135,0,0,1,.755-.158c.449,0,.759.377.931,1.127a.09.09,0,0,0,0,.038.76.76,0,0,0,.291.449.845.845,0,0,0,.53.162,1.237,1.237,0,0,0,.645-.177,2.537,2.537,0,0,0,.64-.578m-2.766-.267a.721.721,0,0,0-.129-.478.43.43,0,0,0-.353-.167,1.141,1.141,0,0,0-.592.21,2.99,2.99,0,0,0-.654.626,6.645,6.645,0,0,0-.9,1.342,2.632,2.632,0,0,0-.325,1.137.755.755,0,0,0,.148.478.478.478,0,0,0,.392.191,1.251,1.251,0,0,0,.707-.306,3.931,3.931,0,0,0,.788-.836,5.632,5.632,0,0,0,.669-1.194,2.838,2.838,0,0,0,.248-1.017" transform="translate(-63.792 -49.592)"/><path class="a" d="M136.061,95.09a3.939,3.939,0,0,0-.406.693,1.537,1.537,0,0,0-.143.568.411.411,0,0,0,.1.3.478.478,0,0,0,.325.1,1.433,1.433,0,0,0,.607-.186,2.388,2.388,0,0,0,.659-.478l.062.067a2.636,2.636,0,0,1-.726.54,1.749,1.749,0,0,1-.779.2.845.845,0,0,1-.592-.2.693.693,0,0,1-.21-.535,1.142,1.142,0,0,1,.043-.3,2.022,2.022,0,0,1,.129-.339,11.634,11.634,0,0,0-1.815,1.7,8.391,8.391,0,0,0-1.213,1.911l-.822.048,2.431-3.917.764-.048-1.533,2.178.043.033a12.552,12.552,0,0,1,.994-1.032c.363-.339.755-.673,1.175-1.008h.024a.554.554,0,0,1,.344-.229Z" transform="translate(-68.575 -49.671)"/></g></g></svg>